{
.appVersion = "118";
copyright = "Copyright © 2022 by Florian Hannich.";
date = "2024-06-21 08:12:40 +0000";
designer = "Florian Hannich";
designerURL = "https://florianhannich.com";
familyName = Base;
featurePrefixes = (
{
automatic = 1;
code = "languagesystem DFLT dflt;\012";
name = Languagesystems;
}
);
fontMaster = (
{
alignmentZones = (
"{716, 15}",
"{517, 13}",
"{0, -15}",
"{-166, -16}"
);
ascender = 775;
capHeight = 715;
descender = -166;
horizontalStems = (
62,
68
);
id = "5B3AE2B2-6F0E-4414-97DF-6676E601E692";
verticalStems = (
74,
81
);
weightValue = 400;
widthValue = 5;
xHeight = 510;
}
);
glyphs = (
{
glyphname = A;
layers = (
{
hints = (
{
horizontal = 1;
place = "{0, 21}";
target = up;
type = BottomGhost;
},
{
horizontal = 1;
place = "{220, 71}";
type = Stem;
},
{
horizontal = 1;
place = "{715, -20}";
target = down;
type = TopGhost;
},
{
place = "{5, 606}";
type = Stem;
},
{
horizontal = 1;
place = "{624, 91}";
type = Stem;
}
);
layerId = "5B3AE2B2-6F0E-4414-97DF-6676E601E692";
paths = (
{
closed = 1;
nodes = (
"611 0 LINE",
"349 715 LINE",
"267 715 LINE",
"5 0 LINE",
"86 0 LINE",
"164 220 LINE",
"452 220 LINE",
"530 0 LINE"
);
},
{
closed = 1;
nodes = (
"258 470 LINE SMOOTH",
"271 506 OFFCURVE",
"292 571 OFFCURVE",
"308 624 CURVE",
"324 571 OFFCURVE",
"345 506 OFFCURVE",
"358 470 CURVE SMOOTH",
"424 291 LINE",
"192 291 LINE"
);
}
);
width = 616;
}
);
note = A;
unicode = 0041;
},
{
glyphname = Aacute;
layers = (
{
hints = (
{
horizontal = 1;
place = "{0, 21}";
target = up;
type = BottomGhost;
},
{
horizontal = 1;
place = "{220, 71}";
type = Stem;
},
{
horizontal = 1;
place = "{715, -20}";
target = down;
type = TopGhost;
},
{
horizontal = 1;
place = "{795, 99}";
type = Stem;
},
{
place = "{5, 606}";
type = Stem;
},
{
horizontal = 1;
place = "{624, 91}";
type = Stem;
}
);
layerId = "5B3AE2B2-6F0E-4414-97DF-6676E601E692";
paths = (
{
closed = 1;
nodes = (
"336 828 LINE SMOOTH",
"371 861 OFFCURVE",
"400 894 OFFCURVE",
"400 894 CURVE SMOOTH",
"320 894 LINE SMOOTH",
"320 894 OFFCURVE",
"280 861 OFFCURVE",
"246 828 CURVE SMOOTH",
"212 795 LINE",
"303 795 LINE"
);
},
{
closed = 1;
nodes = (
"611 0 LINE",
"349 715 LINE",
"267 715 LINE",
"5 0 LINE",
"86 0 LINE",
"164 220 LINE",
"452 220 LINE",
"530 0 LINE"
);
},
{
closed = 1;
nodes = (
"258 470 LINE SMOOTH",
"271 506 OFFCURVE",
"292 571 OFFCURVE",
"308 624 CURVE",
"324 571 OFFCURVE",
"345 506 OFFCURVE",
"358 470 CURVE SMOOTH",
"424 291 LINE",
"192 291 LINE"
);
}
);
width = 616;
}
);
note = Aacute;
unicode = 00C1;
},
{
glyphname = Acircumflex;
layers = (
{
hints = (
{
horizontal = 1;
place = "{0, 21}";
target = up;
type = BottomGhost;
},
{
horizontal = 1;
place = "{220, 71}";
type = Stem;
},
{
horizontal = 1;
place = "{715, -20}";
target = down;
type = TopGhost;
},
{
horizontal = 1;
place = "{795, 99}";
type = Stem;
},
{
place = "{5, 606}";
type = Stem;
},
{
horizontal = 1;
place = "{860, 34}";
type = Stem;
},
{
horizontal = 1;
place = "{624, 91}";
type = Stem;
}
);
layerId = "5B3AE2B2-6F0E-4414-97DF-6676E601E692";
paths = (
{
closed = 1;
nodes = (
"352 795 LINE",
"415 795 LINE",
"352 894 LINE",
"269 894 LINE",
"207 795 LINE",
"269 795 LINE",
"311 860 LINE"
);
},
{
closed = 1;
nodes = (
"267 715 LINE",
"5 0 LINE",
"86 0 LINE",
"164 220 LINE",
"452 220 LINE",
"530 0 LINE",
"611 0 LINE",
"349 715 LINE"
);
},
{
closed = 1;
nodes = (
"258 470 LINE SMOOTH",
"271 506 OFFCURVE",
"292 571 OFFCURVE",
"308 624 CURVE",
"324 571 OFFCURVE",
"345 506 OFFCURVE",
"358 470 CURVE SMOOTH",
"424 291 LINE",
"192 291 LINE"
);
}
);
width = 616;
}
);
note = Acircumflex;
unicode = 00C2;
},
{
glyphname = Adieresis;
layers = (
{
hints = (
{
horizontal = 1;
place = "{0, 21}";
target = up;
type = BottomGhost;
},
{
horizontal = 1;
place = "{220, 71}";
type = Stem;
},
{
horizontal = 1;
place = "{715, -20}";
target = down;
type = TopGhost;
},
{
horizontal = 1;
place = "{791, 102}";
type = Stem;
},
{
place = "{173, 104}";
type = Stem;
},
{
place = "{367, 104}";
type = Stem;
},
{
horizontal = 1;
place = "{624, 91}";
type = Stem;
}
);
layerId = "5B3AE2B2-6F0E-4414-97DF-6676E601E692";
paths = (
{
closed = 1;
nodes = (
"173 813 OFFCURVE",
"195 791 OFFCURVE",
"225 791 CURVE SMOOTH",
"255 791 OFFCURVE",
"277 813 OFFCURVE",
"277 842 CURVE SMOOTH",
"277 871 OFFCURVE",
"255 893 OFFCURVE",
"225 893 CURVE SMOOTH",
"195 893 OFFCURVE",
"173 871 OFFCURVE",
"173 842 CURVE SMOOTH"
);
},
{
closed = 1;
nodes = (
"367 813 OFFCURVE",
"389 791 OFFCURVE",
"419 791 CURVE SMOOTH",
"449 791 OFFCURVE",
"471 813 OFFCURVE",
"471 842 CURVE SMOOTH",
"471 871 OFFCURVE",
"449 893 OFFCURVE",
"419 893 CURVE SMOOTH",
"389 893 OFFCURVE",
"367 871 OFFCURVE",
"367 842 CURVE SMOOTH"
);
},
{
closed = 1;
nodes = (
"611 0 LINE",
"349 715 LINE",
"267 715 LINE",
"5 0 LINE",
"86 0 LINE",
"164 220 LINE",
"452 220 LINE",
"530 0 LINE"
);
},
{
closed = 1;
nodes = (
"258 470 LINE SMOOTH",
"271 506 OFFCURVE",
"292 571 OFFCURVE",
"308 624 CURVE",
"324 571 OFFCURVE",
"345 506 OFFCURVE",
"358 470 CURVE SMOOTH",
"424 291 LINE",
"192 291 LINE"
);
}
);
width = 616;
}
);
note = Adieresis;
unicode = 00C4;
},
{
glyphname = Agrave;
layers = (
{
hints = (
{
horizontal = 1;
place = "{0, 21}";
target = up;
type = BottomGhost;
},
{
horizontal = 1;
place = "{220, 71}";
type = Stem;
},
{
horizontal = 1;
place = "{715, -20}";
target = down;
type = TopGhost;
},
{
horizontal = 1;
place = "{795, 99}";
type = Stem;
},
{
place = "{5, 606}";
type = Stem;
},
{
horizontal = 1;
place = "{624, 91}";
type = Stem;
}
);
layerId = "5B3AE2B2-6F0E-4414-97DF-6676E601E692";
paths = (
{
closed = 1;
nodes = (
"407 795 LINE",
"373 828 LINE SMOOTH",
"339 861 OFFCURVE",
"299 894 OFFCURVE",
"299 894 CURVE SMOOTH",
"219 894 LINE SMOOTH",
"219 894 OFFCURVE",
"248 861 OFFCURVE",
"283 828 CURVE SMOOTH",
"316 795 LINE"
);
},
{
closed = 1;
nodes = (
"611 0 LINE",
"349 715 LINE",
"267 715 LINE",
"5 0 LINE",
"86 0 LINE",
"164 220 LINE",
"452 220 LINE",
"530 0 LINE"
);
},
{
closed = 1;
nodes = (
"258 470 LINE SMOOTH",
"271 506 OFFCURVE",
"292 571 OFFCURVE",
"308 624 CURVE",
"324 571 OFFCURVE",
"345 506 OFFCURVE",
"358 470 CURVE SMOOTH",
"424 291 LINE",
"192 291 LINE"
);
}
);
width = 616;
}
);
note = Agrave;
unicode = 00C0;
},
{
glyphname = Aring;
layers = (
{
hints = (
{
horizontal = 1;
place = "{0, 21}";
target = up;
type = BottomGhost;
},
{
horizontal = 1;
place = "{220, 71}";
type = Stem;
},
{
horizontal = 1;
place = "{715, -20}";
target = down;
type = TopGhost;
},
{
horizontal = 1;
place = "{797, 36}";
type = Stem;
},
{
horizontal = 1;
place = "{881, 36}";
type = Stem;
},
{
place = "{245, 38}";
type = Stem;
},
{
place = "{331, 38}";
type = Stem;
},
{
horizontal = 1;
place = "{624, 91}";
type = Stem;
}
);
layerId = "5B3AE2B2-6F0E-4414-97DF-6676E601E692";
paths = (
{
closed = 1;
nodes = (
"342 797 OFFCURVE",
"369 823 OFFCURVE",
"369 857 CURVE SMOOTH",
"369 891 OFFCURVE",
"342 917 OFFCURVE",
"307 917 CURVE SMOOTH",
"272 917 OFFCURVE",
"245 891 OFFCURVE",
"245 857 CURVE SMOOTH",
"245 823 OFFCURVE",
"272 797 OFFCURVE",
"307 797 CURVE SMOOTH"
);
},
{
closed = 1;
nodes = (
"293 833 OFFCURVE",
"283 844 OFFCURVE",
"283 857 CURVE SMOOTH",
"283 871 OFFCURVE",
"293 881 OFFCURVE",
"307 881 CURVE SMOOTH",
"321 881 OFFCURVE",
"331 871 OFFCURVE",
"331 857 CURVE SMOOTH",
"331 844 OFFCURVE",
"321 833 OFFCURVE",
"307 833 CURVE SMOOTH"
);
},
{
closed = 1;
nodes = (
"611 0 LINE",
"349 715 LINE",
"267 715 LINE",
"5 0 LINE",
"86 0 LINE",
"164 220 LINE",
"452 220 LINE",
"530 0 LINE"
);
},
{
closed = 1;
nodes = (
"258 470 LINE SMOOTH",
"271 506 OFFCURVE",
"292 571 OFFCURVE",
"308 624 CURVE",
"324 571 OFFCURVE",
"345 506 OFFCURVE",
"358 470 CURVE SMOOTH",
"424 291 LINE",
"192 291 LINE"
);
}
);
width = 616;
}
);
note = Aring;
unicode = 00C5;
},
{
glyphname = Atilde;
layers = (
{
hints = (
{
horizontal = 1;
place = "{0, 21}";
target = up;
type = BottomGhost;
},
{
horizontal = 1;
place = "{220, 71}";
type = Stem;
},
{
horizontal = 1;
place = "{715, -20}";
target = down;
type = TopGhost;
},
{
place = "{5, 606}";
type = Stem;
},
{
horizontal = 1;
place = "{624, 91}";
type = Stem;
}
);
layerId = "5B3AE2B2-6F0E-4414-97DF-6676E601E692";
paths = (
{
closed = 1;
nodes = (
"611 0 LINE",
"349 715 LINE",
"267 715 LINE",
"5 0 LINE",
"86 0 LINE",
"164 220 LINE",
"452 220 LINE",
"530 0 LINE"
);
},
{
closed = 1;
nodes = (
"258 470 LINE SMOOTH",
"271 506 OFFCURVE",
"292 571 OFFCURVE",
"308 624 CURVE",
"324 571 OFFCURVE",
"345 506 OFFCURVE",
"358 470 CURVE SMOOTH",
"424 291 LINE",
"192 291 LINE"
);
}
);
width = 616;
}
);
note = Atilde;
unicode = 00C3;
},
{
glyphname = AE;
layers = (
{
hints = (
{
horizontal = 1;
place = "{1, 71}";
type = Stem;
},
{
horizontal = 1;
place = "{220, 71}";
type = Stem;
},
{
horizontal = 1;
place = "{325, 71}";
type = Stem;
},
{
horizontal = 1;
place = "{644, 71}";
type = Stem;
},
{
place = "{397, 85}";
type = Stem;
},
{
horizontal = 1;
place = "{645, 70}";
type = Stem;
}
);
layerId = "5B3AE2B2-6F0E-4414-97DF-6676E601E692";
paths = (
{
closed = 1;
nodes = (
"582 72 LINE SMOOTH",
"549 72 OFFCURVE",
"482 70 OFFCURVE",
"482 70 CURVE",
"482 326 LINE",
"482 326 OFFCURVE",
"549 325 OFFCURVE",
"582 325 CURVE SMOOTH",
"838 325 LINE",
"838 396 LINE",
"582 396 LINE SMOOTH",
"549 396 OFFCURVE",
"482 395 OFFCURVE",
"482 395 CURVE",
"482 645 LINE",
"482 645 OFFCURVE",
"549 644 OFFCURVE",
"582 644 CURVE SMOOTH",
"848 644 LINE",
"848 715 LINE",
"267 715 LINE",
"5 0 LINE",
"86 0 LINE",
"164 220 LINE",
"397 220 LINE",
"397 1 LINE",
"858 1 LINE",
"858 72 LINE"
);
},
{
closed = 1;
nodes = (
"258 470 LINE SMOOTH",
"271 506 OFFCURVE",
"299 592 OFFCURVE",
"315 645 CURVE",
"397 645 LINE",
"397 291 LINE",
"192 291 LINE"
);
}
);
width = 900;
}
);
note = AE;
unicode = 00C6;
},
{
glyphname = B;
layers = (
{
hints = (
{
horizontal = 1;
place = "{0, 74}";
type = Stem;
},
{
horizontal = 1;
place = "{341, 75}";
type = Stem;
},
{
horizontal = 1;
place = "{641, 74}";
type = Stem;
},
{
place = "{75, 85}";
type = Stem;
},
{
place = "{525, 85}";
type = Stem;
},
{
place = "{499, 85}";
type = Stem;
}
);
layerId = "5B3AE2B2-6F0E-4414-97DF-6676E601E692";
paths = (
{
closed = 1;
nodes = (
"407 0 LINE SMOOTH",
"537 0 OFFCURVE",
"610 94 OFFCURVE",
"610 208 CURVE SMOOTH",
"610 300 OFFCURVE",
"559 359 OFFCURVE",
"476 381 CURVE",
"543 404 OFFCURVE",
"584 457 OFFCURVE",
"584 531 CURVE SMOOTH",
"584 632 OFFCURVE",
"517 715 OFFCURVE",
"403 715 CURVE SMOOTH",
"75 715 LINE",
"75 0 LINE"
);
},
{
closed = 1;
nodes = (
"160 640 LINE",
"386 641 LINE SMOOTH",
"456 641 OFFCURVE",
"499 591 OFFCURVE",
"499 528 CURVE SMOOTH",
"499 467 OFFCURVE",
"449 416 OFFCURVE",
"377 416 CURVE SMOOTH",
"160 416 LINE"
);
},
{
closed = 1;
nodes = (
"160 341 LINE",
"385 341 LINE SMOOTH",
"466 341 OFFCURVE",
"525 280 OFFCURVE",
"525 207 CURVE SMOOTH",
"525 134 OFFCURVE",
"478 74 OFFCURVE",
"394 74 CURVE SMOOTH",
"160 74 LINE"
);
}
);
width = 652;
}
);
note = B;
unicode = 0042;
},
{
glyphname = C;
layers = (
{
hints = (
{
horizontal = 1;
place = "{-15, 75}";
type = Stem;
},
{
horizontal = 1;
place = "{656, 75}";
type = Stem;
},
{
place = "{42, 88}";
type = Stem;
}
);
layerId = "5B3AE2B2-6F0E-4414-97DF-6676E601E692";
paths = (
{
closed = 1;
nodes = (
"557 -15 OFFCURVE",
"663 93 OFFCURVE",
"690 243 CURVE",
"601 243 LINE",
"583 135 OFFCURVE",
"510 60 OFFCURVE",
"389 60 CURVE SMOOTH",
"223 60 OFFCURVE",
"130 195 OFFCURVE",
"130 356 CURVE SMOOTH",
"130 519 OFFCURVE",
"220 656 OFFCURVE",
"387 656 CURVE SMOOTH",
"497 656 OFFCURVE",
"573 591 OFFCURVE",
"595 494 CURVE",
"688 494 LINE",
"655 633 OFFCURVE",
"550 731 OFFCURVE",
"385 731 CURVE SMOOTH",
"173 731 OFFCURVE",
"42 563 OFFCURVE",
"42 357 CURVE SMOOTH",
"42 152 OFFCURVE",
"173 -15 OFFCURVE",
"385 -15 CURVE SMOOTH"
);
}
);
width = 732;
}
);
note = C;
unicode = 0043;
},
{
glyphname = Ccedilla;
layers = (
{
hints = (
{
horizontal = 1;
place = "{-15, 75}";
type = Stem;
},
{
horizontal = 1;
place = "{656, 75}";
type = Stem;
},
{
place = "{42, 88}";
type = Stem;
}
);
layerId = "5B3AE2B2-6F0E-4414-97DF-6676E601E692";
paths = (
{
closed = 1;
nodes = (
"557 -15 OFFCURVE",
"663 93 OFFCURVE",
"690 243 CURVE",
"601 243 LINE",
"583 135 OFFCURVE",
"510 60 OFFCURVE",
"389 60 CURVE SMOOTH",
"223 60 OFFCURVE",
"130 195 OFFCURVE",
"130 356 CURVE SMOOTH",
"130 519 OFFCURVE",
"220 656 OFFCURVE",
"387 656 CURVE SMOOTH",
"497 656 OFFCURVE",
"573 591 OFFCURVE",
"595 494 CURVE",
"688 494 LINE",
"655 633 OFFCURVE",
"550 731 OFFCURVE",
"385 731 CURVE SMOOTH",
"173 731 OFFCURVE",
"42 563 OFFCURVE",
"42 357 CURVE SMOOTH",
"42 152 OFFCURVE",
"173 -15 OFFCURVE",
"385 -15 CURVE SMOOTH"
);
}
);
width = 732;
}
);
note = Ccedilla;
unicode = 00C7;
},
{
glyphname = D;
layers = (
{
hints = (
{
horizontal = 1;
place = "{0, 74}";
type = Stem;
},
{
horizontal = 1;
place = "{641, 75}";
type = Stem;
},
{
place = "{75, 85}";
type = Stem;
},
{
place = "{583, 88}";
type = Stem;
}
);
layerId = "5B3AE2B2-6F0E-4414-97DF-6676E601E692";
paths = (
{
closed = 1;
nodes = (
"343 0 LINE SMOOTH",
"547 0 OFFCURVE",
"671 161 OFFCURVE",
"671 358 CURVE SMOOTH",
"671 555 OFFCURVE",
"550 717 OFFCURVE",
"343 716 CURVE SMOOTH",
"75 715 LINE",
"75 0 LINE"
);
},
{
closed = 1;
nodes = (
"160 641 LINE",
"337 641 LINE SMOOTH",
"495 641 OFFCURVE",
"583 510 OFFCURVE",
"583 357 CURVE SMOOTH",
"583 206 OFFCURVE",
"492 74 OFFCURVE",
"340 74 CURVE SMOOTH",
"160 74 LINE"
);
}
);
width = 713;
}
);
note = D;
rightKerningGroup = D;
unicode = 0044;
},
{
glyphname = Eth;
layers = (
{
hints = (
{
horizontal = 1;
place = "{0, 74}";
type = Stem;
},
{
horizontal = 1;
place = "{323, 71}";
type = Stem;
},
{
horizontal = 1;
place = "{641, 75}";
type = Stem;
},
{
place = "{75, 85}";
type = Stem;
},
{
place = "{583, 88}";
type = Stem;
}
);
layerId = "5B3AE2B2-6F0E-4414-97DF-6676E601E692";
paths = (
{
closed = 1;
nodes = (
"75 715 LINE",
"75 394 LINE",
"20 394 LINE",
"20 323 LINE",
"75 323 LINE",
"75 0 LINE",
"343 0 LINE SMOOTH",
"547 0 OFFCURVE",
"671 161 OFFCURVE",
"671 358 CURVE SMOOTH",
"671 555 OFFCURVE",
"550 717 OFFCURVE",
"343 716 CURVE SMOOTH"
);
},
{
closed = 1;
nodes = (
"160 74 LINE",
"160 323 LINE",
"300 323 LINE",
"300 394 LINE",
"160 394 LINE",
"160 641 LINE",
"337 641 LINE SMOOTH",
"495 641 OFFCURVE",
"583 510 OFFCURVE",
"583 357 CURVE SMOOTH",
"583 206 OFFCURVE",
"492 74 OFFCURVE",
"340 74 CURVE SMOOTH"
);
}
);
width = 713;
}
);
note = Eth;
unicode = 00D0;
},
{
glyphname = E;
layers = (
{
hints = (
{
horizontal = 1;
place = "{1, 71}";
type = Stem;
},
{
horizontal = 1;
place = "{325, 71}";
type = Stem;
},
{
horizontal = 1;
place = "{644, 71}";
type = Stem;
},
{
place = "{75, 85}";
type = Stem;
}
);
layerId = "5B3AE2B2-6F0E-4414-97DF-6676E601E692";
paths = (
{
closed = 1;
nodes = (
"536 1 LINE",
"536 72 LINE",
"260 72 LINE SMOOTH",
"227 72 OFFCURVE",
"160 70 OFFCURVE",
"160 70 CURVE",
"160 326 LINE",
"160 326 OFFCURVE",
"227 325 OFFCURVE",
"260 325 CURVE SMOOTH",
"516 325 LINE",
"516 396 LINE",
"260 396 LINE SMOOTH",
"227 396 OFFCURVE",
"160 395 OFFCURVE",
"160 395 CURVE",
"160 645 LINE",
"160 645 OFFCURVE",
"227 644 OFFCURVE",
"260 644 CURVE SMOOTH",
"526 644 LINE",
"526 715 LINE",
"75 715 LINE",
"75 1 LINE"
);
}
);
width = 578;
}
);
note = E;
unicode = 0045;
},
{
glyphname = Eacute;
layers = (
{
hints = (
{
horizontal = 1;
place = "{1, 71}";
type = Stem;
},
{
horizontal = 1;
place = "{325, 71}";
type = Stem;
},
{
horizontal = 1;
place = "{644, 71}";
type = Stem;
},
{
horizontal = 1;
place = "{794, 99}";
type = Stem;
},
{
place = "{75, 85}";
type = Stem;
}
);
layerId = "5B3AE2B2-6F0E-4414-97DF-6676E601E692";
paths = (
{
closed = 1;
nodes = (
"332 827 LINE SMOOTH",
"367 860 OFFCURVE",
"396 893 OFFCURVE",
"396 893 CURVE SMOOTH",
"316 893 LINE SMOOTH",
"316 893 OFFCURVE",
"276 860 OFFCURVE",
"242 827 CURVE SMOOTH",
"208 794 LINE",
"299 794 LINE"
);
},
{
closed = 1;
nodes = (
"536 1 LINE",
"536 72 LINE",
"260 72 LINE SMOOTH",
"227 72 OFFCURVE",
"160 70 OFFCURVE",
"160 70 CURVE",
"160 326 LINE",
"160 326 OFFCURVE",
"227 325 OFFCURVE",
"260 325 CURVE SMOOTH",
"516 325 LINE",
"516 396 LINE",
"260 396 LINE SMOOTH",
"227 396 OFFCURVE",
"160 395 OFFCURVE",
"160 395 CURVE",
"160 645 LINE",
"160 645 OFFCURVE",
"227 644 OFFCURVE",
"260 644 CURVE SMOOTH",
"526 644 LINE",
"526 715 LINE",
"75 715 LINE",
"75 1 LINE"
);
}
);
width = 578;
}
);
note = Eacute;
unicode = 00C9;
},
{
glyphname = Ecircumflex;
layers = (
{
hints = (
{
horizontal = 1;
place = "{1, 71}";
type = Stem;
},
{
horizontal = 1;
place = "{325, 71}";
type = Stem;
},
{
horizontal = 1;
place = "{644, 71}";
type = Stem;
},
{
horizontal = 1;
place = "{795, 99}";
type = Stem;
},
{
place = "{75, 85}";
type = Stem;
},
{
horizontal = 1;
place = "{860, 34}";
type = Stem;
}
);
layerId = "5B3AE2B2-6F0E-4414-97DF-6676E601E692";
paths = (
{
closed = 1;
nodes = (
"347 795 LINE",
"410 795 LINE",
"347 894 LINE",
"264 894 LINE",
"202 795 LINE",
"264 795 LINE",
"306 860 LINE"
);
},
{
closed = 1;
nodes = (
"260 72 LINE SMOOTH",
"227 72 OFFCURVE",
"160 70 OFFCURVE",
"160 70 CURVE",
"160 326 LINE",
"160 326 OFFCURVE",
"227 325 OFFCURVE",
"260 325 CURVE SMOOTH",
"516 325 LINE",
"516 396 LINE",
"260 396 LINE SMOOTH",
"227 396 OFFCURVE",
"160 395 OFFCURVE",
"160 395 CURVE",
"160 645 LINE",
"160 645 OFFCURVE",
"227 644 OFFCURVE",
"260 644 CURVE SMOOTH",
"526 644 LINE",
"526 715 LINE",
"75 715 LINE",
"75 1 LINE",
"536 1 LINE",
"536 72 LINE"
);
}
);
width = 578;
}
);
note = Ecircumflex;
unicode = 00CA;
},
{
glyphname = Edieresis;
layers = (
{
hints = (
{
horizontal = 1;
place = "{1, 71}";
type = Stem;
},
{
horizontal = 1;
place = "{325, 71}";
type = Stem;
},
{
horizontal = 1;
place = "{644, 71}";
type = Stem;
},
{
horizontal = 1;
place = "{791, 102}";
type = Stem;
},
{
place = "{156, 104}";
type = Stem;
},
{
place = "{350, 104}";
type = Stem;
},
{
place = "{75, 85}";
type = Stem;
}
);
layerId = "5B3AE2B2-6F0E-4414-97DF-6676E601E692";
paths = (
{
closed = 1;
nodes = (
"156 813 OFFCURVE",
"178 791 OFFCURVE",
"208 791 CURVE SMOOTH",
"238 791 OFFCURVE",
"260 813 OFFCURVE",
"260 842 CURVE SMOOTH",
"260 871 OFFCURVE",
"238 893 OFFCURVE",
"208 893 CURVE SMOOTH",
"178 893 OFFCURVE",
"156 871 OFFCURVE",
"156 842 CURVE SMOOTH"
);
},
{
closed = 1;
nodes = (
"350 813 OFFCURVE",
"372 791 OFFCURVE",
"402 791 CURVE SMOOTH",
"432 791 OFFCURVE",
"454 813 OFFCURVE",
"454 842 CURVE SMOOTH",
"454 871 OFFCURVE",
"432 893 OFFCURVE",
"402 893 CURVE SMOOTH",
"372 893 OFFCURVE",
"350 871 OFFCURVE",
"350 842 CURVE SMOOTH"
);
},
{
closed = 1;
nodes = (
"536 1 LINE",
"536 72 LINE",
"260 72 LINE SMOOTH",
"227 72 OFFCURVE",
"160 70 OFFCURVE",
"160 70 CURVE",
"160 326 LINE",
"160 326 OFFCURVE",
"227 325 OFFCURVE",
"260 325 CURVE SMOOTH",
"516 325 LINE",
"516 396 LINE",
"260 396 LINE SMOOTH",
"227 396 OFFCURVE",
"160 395 OFFCURVE",
"160 395 CURVE",
"160 645 LINE",
"160 645 OFFCURVE",
"227 644 OFFCURVE",
"260 644 CURVE SMOOTH",
"526 644 LINE",
"526 715 LINE",
"75 715 LINE",
"75 1 LINE"
);
}
);
width = 578;
}
);
note = Edieresis;
unicode = 00CB;
},
{
glyphname = F;
layers = (
{
hints = (
{
horizontal = 1;
place = "{0, 21}";
target = up;
type = BottomGhost;
},
{
horizontal = 1;
place = "{326, 71}";
type = Stem;
},
{
horizontal = 1;
place = "{644, 71}";
type = Stem;
},
{
place = "{75, 85}";
type = Stem;
}
);
layerId = "5B3AE2B2-6F0E-4414-97DF-6676E601E692";
paths = (
{
closed = 1;
nodes = (
"160 0 LINE",
"160 326 LINE",
"260 326 LINE",
"486 326 LINE",
"486 397 LINE",
"260 397 LINE SMOOTH",
"227 397 OFFCURVE",
"160 395 OFFCURVE",
"160 395 CURVE",
"160 646 LINE",
"160 646 OFFCURVE",
"227 644 OFFCURVE",
"260 644 CURVE SMOOTH",
"526 644 LINE",
"526 715 LINE",
"75 715 LINE",
"75 0 LINE"
);
}
);
width = 568;
}
);
note = F;
rightKerningGroup = F;
unicode = 0046;
},
{
glyphname = G;
layers = (
{
hints = (
{
horizontal = 1;
place = "{-15, 75}";
type = Stem;
},
{
horizontal = 1;
place = "{304, 71}";
type = Stem;
},
{
horizontal = 1;
place = "{655, 75}";
type = Stem;
},
{
place = "{42, 88}";
type = Stem;
},
{
place = "{630, 71}";
type = Stem;
},
{
horizontal = 1;
place = "{0, 21}";
target = up;
type = BottomGhost;
},
{
place = "{610, 91}";
type = Stem;
}
);
layerId = "5B3AE2B2-6F0E-4414-97DF-6676E601E692";
paths = (
{
closed = 1;
nodes = (
"487 -15 OFFCURVE",
"598 49 OFFCURVE",
"630 145 CURVE",
"630 0 LINE",
"701 0 LINE",
"701 375 LINE",
"396 375 LINE",
"396 304 LINE",
"513 304 LINE SMOOTH",
"549 304 OFFCURVE",
"601 307 OFFCURVE",
"610 307 CURVE",
"597 169 OFFCURVE",
"509 60 OFFCURVE",
"385 60 CURVE SMOOTH",
"226 60 OFFCURVE",
"130 197 OFFCURVE",
"130 356 CURVE SMOOTH",
"130 517 OFFCURVE",
"225 655 OFFCURVE",
"385 655 CURVE SMOOTH",
"500 655 OFFCURVE",
"565 589 OFFCURVE",
"594 494 CURVE",
"684 494 LINE",
"647 632 OFFCURVE",
"549 730 OFFCURVE",
"385 730 CURVE SMOOTH",
"174 730 OFFCURVE",
"42 563 OFFCURVE",
"42 357 CURVE SMOOTH",
"42 152 OFFCURVE",
"164 -15 OFFCURVE",
"375 -15 CURVE SMOOTH"
);
}
);
width = 776;
}
);
note = G;
unicode = 0047;
},
{
glyphname = H;
layers = (
{
hints = (
{
horizontal = 1;
place = "{0, 21}";
target = up;
type = BottomGhost;
},
{
horizontal = 1;
place = "{333, 71}";
type = Stem;
},
{
horizontal = 1;
place = "{715, -20}";
target = down;
type = TopGhost;
},
{
place = "{75, 85}";
type = Stem;
},
{
place = "{552, 85}";
type = Stem;
}
);
layerId = "5B3AE2B2-6F0E-4414-97DF-6676E601E692";
paths = (
{
closed = 1;
nodes = (
"637 0 LINE",
"637 715 LINE",
"552 715 LINE",
"552 402 LINE",
"552 402 OFFCURVE",
"501 404 OFFCURVE",
"465 404 CURVE SMOOTH",
"251 404 LINE SMOOTH",
"215 404 OFFCURVE",
"160 402 OFFCURVE",
"160 402 CURVE",
"160 715 LINE",
"75 715 LINE",
"75 0 LINE",
"160 0 LINE",
"160 335 LINE",
"160 335 OFFCURVE",
"215 333 OFFCURVE",
"251 333 CURVE SMOOTH",
"465 333 LINE SMOOTH",
"501 333 OFFCURVE",
"552 335 OFFCURVE",
"552 335 CURVE",
"552 0 LINE"
);
}
);
width = 712;
}
);
note = H;
unicode = 0048;
},
{
glyphname = I;
layers = (
{
hints = (
{
horizontal = 1;
place = "{0, 21}";
target = up;
type = BottomGhost;
},
{
horizontal = 1;
place = "{715, -20}";
target = down;
type = TopGhost;
},
{
place = "{75, 85}";
type = Stem;
}
);
layerId = "5B3AE2B2-6F0E-4414-97DF-6676E601E692";
paths = (
{
closed = 1;
nodes = (
"160 0 LINE",
"160 715 LINE",
"75 715 LINE",
"75 0 LINE"
);
}
);
width = 235;
}
);
note = I;
unicode = 0049;
},
{
glyphname = Icircumflex;
layers = (
{
hints = (
{
horizontal = 1;
place = "{0, 21}";
target = up;
type = BottomGhost;
},
{
horizontal = 1;
place = "{715, -20}";
target = down;
type = TopGhost;
},
{
horizontal = 1;
place = "{795, 99}";
type = Stem;
},
{
place = "{75, 85}";
type = Stem;
},
{
horizontal = 1;
place = "{860, 34}";
type = Stem;
}
);
layerId = "5B3AE2B2-6F0E-4414-97DF-6676E601E692";
paths = (
{
closed = 1;
nodes = (
"218 795 LINE",
"155 894 LINE",
"72 894 LINE",
"10 795 LINE",
"72 795 LINE",
"114 860 LINE",
"155 795 LINE"
);
},
{
closed = 1;
nodes = (
"160 0 LINE",
"160 715 LINE",
"75 715 LINE",
"75 0 LINE"
);
}
);
width = 235;
}
);
note = Icircumflex;
unicode = 00CE;
},
{
glyphname = Idieresis;
layers = (
{
hints = (
{
horizontal = 1;
place = "{0, 21}";
target = up;
type = BottomGhost;
},
{
horizontal = 1;
place = "{715, -20}";
target = down;
type = TopGhost;
},
{
horizontal = 1;
place = "{791, 102}";
type = Stem;
},
{
place = "{-33, 104}";
type = Stem;
},
{
place = "{161, 104}";
type = Stem;
},
{
place = "{75, 85}";
type = Stem;
}
);
layerId = "5B3AE2B2-6F0E-4414-97DF-6676E601E692";
paths = (
{
closed = 1;
nodes = (
"-33 813 OFFCURVE",
"-11 791 OFFCURVE",
"19 791 CURVE SMOOTH",
"49 791 OFFCURVE",
"71 813 OFFCURVE",
"71 842 CURVE SMOOTH",
"71 871 OFFCURVE",
"49 893 OFFCURVE",
"19 893 CURVE SMOOTH",
"-11 893 OFFCURVE",
"-33 871 OFFCURVE",
"-33 842 CURVE SMOOTH"
);
},
{
closed = 1;
nodes = (
"161 813 OFFCURVE",
"183 791 OFFCURVE",
"213 791 CURVE SMOOTH",
"243 791 OFFCURVE",
"265 813 OFFCURVE",
"265 842 CURVE SMOOTH",
"265 871 OFFCURVE",
"243 893 OFFCURVE",
"213 893 CURVE SMOOTH",
"183 893 OFFCURVE",
"161 871 OFFCURVE",
"161 842 CURVE SMOOTH"
);
},
{
closed = 1;
nodes = (
"160 0 LINE",
"160 715 LINE",
"75 715 LINE",
"75 0 LINE"
);
}
);
width = 235;
}
);
note = Idieresis;
unicode = 00CF;
},
{
glyphname = Igrave;
layers = (
{
hints = (
{
horizontal = 1;
place = "{0, 21}";
target = up;
type = BottomGhost;
},
{
horizontal = 1;
place = "{715, -20}";
target = down;
type = TopGhost;
},
{
horizontal = 1;
place = "{795, 99}";
type = Stem;
},
{
place = "{75, 85}";
type = Stem;
}
);
layerId = "5B3AE2B2-6F0E-4414-97DF-6676E601E692";
paths = (
{
closed = 1;
nodes = (
"216 795 LINE",
"182 828 LINE SMOOTH",
"148 861 OFFCURVE",
"108 894 OFFCURVE",
"108 894 CURVE SMOOTH",
"28 894 LINE SMOOTH",
"28 894 OFFCURVE",
"57 861 OFFCURVE",
"92 828 CURVE SMOOTH",
"125 795 LINE"
);
},
{
closed = 1;
nodes = (
"160 0 LINE",
"160 715 LINE",
"75 715 LINE",
"75 0 LINE"
);
}
);
width = 235;
}
);
note = Igrave;
unicode = 00CC;
},
{
glyphname = J;
layers = (
{
hints = (
{
horizontal = 1;
place = "{-16, 69}";
type = Stem;
},
{
horizontal = 1;
place = "{715, -20}";
target = down;
type = TopGhost;
},
{
place = "{5, 85}";
type = Stem;
},
{
place = "{337, 84}";
type = Stem;
}
);
layerId = "5B3AE2B2-6F0E-4414-97DF-6676E601E692";
paths = (
{
closed = 1;
nodes = (
"353 -16 OFFCURVE",
"421 76 OFFCURVE",
"421 211 CURVE SMOOTH",
"422 715 LINE",
"337 715 LINE",
"337 198 LINE SMOOTH",
"337 109 OFFCURVE",
"304 53 OFFCURVE",
"214 53 CURVE SMOOTH",
"124 53 OFFCURVE",
"90 111 OFFCURVE",
"90 191 CURVE",
"5 191 LINE",
"5 78 OFFCURVE",
"75 -16 OFFCURVE",
"214 -16 CURVE SMOOTH"
);
}
);
width = 497;
}
);
note = J;
unicode = 004A;
},
{
glyphname = K;
layers = (
{
hints = (
{
horizontal = 1;
place = "{0, 21}";
target = up;
type = BottomGhost;
},
{
horizontal = 1;
place = "{717, -20}";
target = down;
type = TopGhost;
},
{
place = "{75.5, 84.5}";
type = Stem;
},
{
horizontal = 1;
place = "{1, 21}";
target = up;
type = BottomGhost;
},
{
horizontal = 1;
place = "{716, -20}";
target = down;
type = TopGhost;
},
{
place = "{75.5, 84}";
type = Stem;
}
);
layerId = "5B3AE2B2-6F0E-4414-97DF-6676E601E692";
paths = (
{
closed = 1;
nodes = (
"160 0 LINE",
"160 251 LINE",
"283 377 LINE",
"557 1 LINE",
"651 1 LINE",
"336 431 LINE",
"616 716 LINE",
"510 716 LINE",
"159 360 LINE",
"160 717 LINE",
"76 717 LINE",
"75 0 LINE"
);
}
);
width = 651;
}
);
note = K;
unicode = 004B;
},
{
glyphname = L;
layers = (
{
hints = (
{
horizontal = 1;
place = "{0, 75}";
type = Stem;
},
{
horizontal = 1;
place = "{715, -20}";
target = down;
type = TopGhost;
},
{
place = "{75, 85}";
type = Stem;
}
);
layerId = "5B3AE2B2-6F0E-4414-97DF-6676E601E692";
paths = (
{
closed = 1;
nodes = (
"525 0 LINE",
"525 75 LINE",
"260 75 LINE SMOOTH",
"227 75 OFFCURVE",
"160 73 OFFCURVE",
"160 73 CURVE",
"160 715 LINE",
"75 715 LINE",
"75 0 LINE"
);
}
);
width = 530;
}
);
note = L;
unicode = 004C;
},
{
glyphname = M;
layers = (
{
hints = (
{
horizontal = 1;
place = "{0, 21}";
target = up;
type = BottomGhost;
},
{
horizontal = 1;
place = "{715, -20}";
target = down;
type = TopGhost;
},
{
place = "{75, 85}";
type = Stem;
},
{
place = "{744, 85}";
type = Stem;
},
{
horizontal = 1;
place = "{0, 85}";
type = Stem;
},
{
horizontal = 1;
place = "{586, 129}";
type = Stem;
}
);
layerId = "5B3AE2B2-6F0E-4414-97DF-6676E601E692";
paths = (
{
closed = 1;
nodes = (
"496 0 LINE",
"690 441 LINE SMOOTH",
"701 465 OFFCURVE",
"723 517 OFFCURVE",
"744 570 CURVE",
"744 0 LINE",
"829 0 LINE",
"829 715 LINE",
"730 715 LINE",
"518 240 LINE SMOOTH",
"500 199 OFFCURVE",
"475 136 OFFCURVE",
"455 85 CURVE",
"435 136 OFFCURVE",
"410 199 OFFCURVE",
"392 240 CURVE SMOOTH",
"180 715 LINE",
"75 715 LINE",
"75 0 LINE",
"160 0 LINE",
"160 586 LINE",
"183 528 OFFCURVE",
"208 468 OFFCURVE",
"220 441 CURVE SMOOTH",
"414 0 LINE"
);
}
);
width = 904;
}
);
note = M;
unicode = 004D;
},
{
glyphname = N;
layers = (
{
hints = (
{
horizontal = 1;
place = "{0, 21}";
target = up;
type = BottomGhost;
},
{
horizontal = 1;
place = "{715, -20}";
target = down;
type = TopGhost;
},
{
place = "{75, 85}";
type = Stem;
},
{
place = "{522, 85}";
type = Stem;
}
);
layerId = "5B3AE2B2-6F0E-4414-97DF-6676E601E692";
paths = (
{
closed = 1;
nodes = (
"607 0 LINE",
"607 715 LINE",
"522 715 LINE",
"522 132 LINE",
"501 170 OFFCURVE",
"479 209 OFFCURVE",
"461 238 CURVE SMOOTH",
"160 715 LINE",
"75 715 LINE",
"75 0 LINE",
"160 0 LINE",
"160 584 LINE",
"185 538 OFFCURVE",
"213 489 OFFCURVE",
"235 454 CURVE SMOOTH",
"522 0 LINE"
);
}
);
width = 682;
}
);
note = N;
unicode = 004E;
},
{
glyphname = Ntilde;
layers = (
{
hints = (
{
horizontal = 1;
place = "{0, 21}";
target = up;
type = BottomGhost;
},
{
horizontal = 1;
place = "{715, -20}";
target = down;
type = TopGhost;
},
{
place = "{75, 85}";
type = Stem;
},
{
place = "{522, 85}";
type = Stem;
}
);
layerId = "5B3AE2B2-6F0E-4414-97DF-6676E601E692";
paths = (
{
closed = 1;
nodes = (
"607 0 LINE",
"607 715 LINE",
"522 715 LINE",
"522 132 LINE",
"501 170 OFFCURVE",
"479 209 OFFCURVE",
"461 238 CURVE SMOOTH",
"160 715 LINE",
"75 715 LINE",
"75 0 LINE",
"160 0 LINE",
"160 584 LINE",
"185 538 OFFCURVE",
"213 489 OFFCURVE",
"235 454 CURVE SMOOTH",
"522 0 LINE"
);
}
);
width = 682;
}
);
note = Ntilde;
unicode = 00D1;
},
{
glyphname = O;
layers = (
{
hints = (
{
horizontal = 1;
place = "{-15, 75}";
type = Stem;
},
{
horizontal = 1;
place = "{655, 75}";
type = Stem;
},
{
place = "{42, 88}";
type = Stem;
},
{
place = "{640, 87}";
type = Stem;
}
);
layerId = "5B3AE2B2-6F0E-4414-97DF-6676E601E692";
paths = (
{
closed = 1;
nodes = (
"597 -15 OFFCURVE",
"727 152 OFFCURVE",
"727 357 CURVE SMOOTH",
"727 563 OFFCURVE",
"600 730 OFFCURVE",
"385 730 CURVE SMOOTH",
"174 730 OFFCURVE",
"42 563 OFFCURVE",
"42 357 CURVE SMOOTH",
"42 152 OFFCURVE",
"174 -15 OFFCURVE",
"385 -15 CURVE SMOOTH"
);
},
{
closed = 1;
nodes = (
"130 517 OFFCURVE",
"222 655 OFFCURVE",
"384 655 CURVE SMOOTH",
"551 655 OFFCURVE",
"640 517 OFFCURVE",
"640 356 CURVE SMOOTH",
"640 198 OFFCURVE",
"547 60 OFFCURVE",
"384 60 CURVE SMOOTH",
"223 60 OFFCURVE",
"130 198 OFFCURVE",
"130 356 CURVE SMOOTH"
);
}
);
width = 769;
}
);
note = O;
unicode = 004F;
},
{
glyphname = Oacute;
layers = (
{
hints = (
{
horizontal = 1;
place = "{-15, 75}";
type = Stem;
},
{
horizontal = 1;
place = "{655, 75}";
type = Stem;
},
{
horizontal = 1;
place = "{795, 99}";
type = Stem;
},
{
place = "{42, 88}";
type = Stem;
},
{
place = "{640, 87}";
type = Stem;
}
);
layerId = "5B3AE2B2-6F0E-4414-97DF-6676E601E692";
paths = (
{
closed = 1;
nodes = (
"403 828 LINE SMOOTH",
"438 861 OFFCURVE",
"467 894 OFFCURVE",
"467 894 CURVE SMOOTH",
"387 894 LINE SMOOTH",
"387 894 OFFCURVE",
"347 861 OFFCURVE",
"313 828 CURVE SMOOTH",
"279 795 LINE",
"370 795 LINE"
);
},
{
closed = 1;
nodes = (
"597 -15 OFFCURVE",
"727 152 OFFCURVE",
"727 357 CURVE SMOOTH",
"727 563 OFFCURVE",
"600 730 OFFCURVE",
"385 730 CURVE SMOOTH",
"174 730 OFFCURVE",
"42 563 OFFCURVE",
"42 357 CURVE SMOOTH",
"42 152 OFFCURVE",
"174 -15 OFFCURVE",
"385 -15 CURVE SMOOTH"
);
},
{
closed = 1;
nodes = (
"130 517 OFFCURVE",
"222 655 OFFCURVE",
"384 655 CURVE SMOOTH",
"551 655 OFFCURVE",
"640 517 OFFCURVE",
"640 356 CURVE SMOOTH",
"640 198 OFFCURVE",
"547 60 OFFCURVE",
"384 60 CURVE SMOOTH",
"223 60 OFFCURVE",
"130 198 OFFCURVE",
"130 356 CURVE SMOOTH"
);
}
);
width = 769;
}
);
note = Oacute;
unicode = 00D3;
},
{
glyphname = Ocircumflex;
layers = (
{
hints = (
{
horizontal = 1;
place = "{-15, 75}";
type = Stem;
},
{
horizontal = 1;
place = "{655, 75}";
type = Stem;
},
{
horizontal = 1;
place = "{795, 99}";
type = Stem;
},
{
place = "{42, 88}";
type = Stem;
},
{
place = "{640, 87}";
type = Stem;
},
{
horizontal = 1;
place = "{860, 34}";
type = Stem;
}
);
layerId = "5B3AE2B2-6F0E-4414-97DF-6676E601E692";
paths = (
{
closed = 1;
nodes = (
"419 795 LINE",
"482 795 LINE",
"419 894 LINE",
"336 894 LINE",
"274 795 LINE",
"336 795 LINE",
"378 860 LINE"
);
},
{
closed = 1;
nodes = (
"174 730 OFFCURVE",
"42 563 OFFCURVE",
"42 357 CURVE SMOOTH",
"42 152 OFFCURVE",
"174 -15 OFFCURVE",
"385 -15 CURVE SMOOTH",
"597 -15 OFFCURVE",
"727 152 OFFCURVE",
"727 357 CURVE SMOOTH",
"727 563 OFFCURVE",
"600 730 OFFCURVE",
"385 730 CURVE SMOOTH"
);
},
{
closed = 1;
nodes = (
"223 60 OFFCURVE",
"130 198 OFFCURVE",
"130 356 CURVE SMOOTH",
"130 517 OFFCURVE",
"222 655 OFFCURVE",
"384 655 CURVE SMOOTH",
"551 655 OFFCURVE",
"640 517 OFFCURVE",
"640 356 CURVE SMOOTH",
"640 198 OFFCURVE",
"547 60 OFFCURVE",
"384 60 CURVE SMOOTH"
);
}
);
width = 769;
}
);
note = Ocircumflex;
unicode = 00D4;
},
{
glyphname = Odieresis;
layers = (
{
hints = (
{
horizontal = 1;
place = "{-15, 75}";
type = Stem;
},
{
horizontal = 1;
place = "{655, 75}";
type = Stem;
},
{
horizontal = 1;
place = "{792, 102}";
type = Stem;
},
{
place = "{42, 88}";
type = Stem;
},
{
place = "{229, 104}";
type = Stem;
},
{
place = "{423, 104}";
type = Stem;
},
{
place = "{640, 87}";
type = Stem;
}
);
layerId = "5B3AE2B2-6F0E-4414-97DF-6676E601E692";
paths = (
{
closed = 1;
nodes = (
"229 814 OFFCURVE",
"251 792 OFFCURVE",
"281 792 CURVE SMOOTH",
"311 792 OFFCURVE",
"333 814 OFFCURVE",
"333 843 CURVE SMOOTH",
"333 872 OFFCURVE",
"311 894 OFFCURVE",
"281 894 CURVE SMOOTH",
"251 894 OFFCURVE",
"229 872 OFFCURVE",
"229 843 CURVE SMOOTH"
);
},
{
closed = 1;
nodes = (
"423 814 OFFCURVE",
"445 792 OFFCURVE",
"475 792 CURVE SMOOTH",
"505 792 OFFCURVE",
"527 814 OFFCURVE",
"527 843 CURVE SMOOTH",
"527 872 OFFCURVE",
"505 894 OFFCURVE",
"475 894 CURVE SMOOTH",
"445 894 OFFCURVE",
"423 872 OFFCURVE",
"423 843 CURVE SMOOTH"
);
},
{
closed = 1;
nodes = (
"597 -15 OFFCURVE",
"727 152 OFFCURVE",
"727 357 CURVE SMOOTH",
"727 563 OFFCURVE",
"600 730 OFFCURVE",
"385 730 CURVE SMOOTH",
"174 730 OFFCURVE",
"42 563 OFFCURVE",
"42 357 CURVE SMOOTH",
"42 152 OFFCURVE",
"174 -15 OFFCURVE",
"385 -15 CURVE SMOOTH"
);
},
{
closed = 1;
nodes = (
"130 517 OFFCURVE",
"222 655 OFFCURVE",
"384 655 CURVE SMOOTH",
"551 655 OFFCURVE",
"640 517 OFFCURVE",
"640 356 CURVE SMOOTH",
"640 198 OFFCURVE",
"547 60 OFFCURVE",
"384 60 CURVE SMOOTH",
"223 60 OFFCURVE",
"130 198 OFFCURVE",
"130 356 CURVE SMOOTH"
);
}
);
width = 769;
}
);
note = Odieresis;
unicode = 00D6;
},
{
glyphname = Ograve;
layers = (
{
hints = (
{
horizontal = 1;
place = "{-15, 75}";
type = Stem;
},
{
horizontal = 1;
place = "{655, 75}";
type = Stem;
},
{
horizontal = 1;
place = "{795, 99}";
type = Stem;
},
{
place = "{42, 88}";
type = Stem;
},
{
place = "{640, 87}";
type = Stem;
}
);
layerId = "5B3AE2B2-6F0E-4414-97DF-6676E601E692";
paths = (
{
closed = 1;
nodes = (
"477 795 LINE",
"443 828 LINE SMOOTH",
"409 861 OFFCURVE",
"369 894 OFFCURVE",
"369 894 CURVE SMOOTH",
"289 894 LINE SMOOTH",
"289 894 OFFCURVE",
"318 861 OFFCURVE",
"353 828 CURVE SMOOTH",
"386 795 LINE"
);
},
{
closed = 1;
nodes = (
"597 -15 OFFCURVE",
"727 152 OFFCURVE",
"727 357 CURVE SMOOTH",
"727 563 OFFCURVE",
"600 730 OFFCURVE",
"385 730 CURVE SMOOTH",
"174 730 OFFCURVE",
"42 563 OFFCURVE",
"42 357 CURVE SMOOTH",
"42 152 OFFCURVE",
"174 -15 OFFCURVE",
"385 -15 CURVE SMOOTH"
);
},
{
closed = 1;
nodes = (
"130 517 OFFCURVE",
"222 655 OFFCURVE",
"384 655 CURVE SMOOTH",
"551 655 OFFCURVE",
"640 517 OFFCURVE",
"640 356 CURVE SMOOTH",
"640 198 OFFCURVE",
"547 60 OFFCURVE",
"384 60 CURVE SMOOTH",
"223 60 OFFCURVE",
"130 198 OFFCURVE",
"130 356 CURVE SMOOTH"
);
}
);
width = 769;
}
);
note = Ograve;
unicode = 00D2;
},
{
glyphname = Oslash;
layers = (
{
hints = (
{
horizontal = 1;
place = "{-15, 75}";
type = Stem;
},
{
horizontal = 1;
place = "{655, 75}";
type = Stem;
},
{
place = "{42, 88}";
type = Stem;
},
{
place = "{640, 87}";
type = Stem;
},
{
horizontal = 1;
place = "{660, 71}";
type = Stem;
}
);
layerId = "5B3AE2B2-6F0E-4414-97DF-6676E601E692";
paths = (
{
closed = 1;
nodes = (
"637 731 LINE",
"550 731 LINE",
"532 700 LINE",
"489 719 OFFCURVE",
"440 730 OFFCURVE",
"385 730 CURVE SMOOTH",
"174 730 OFFCURVE",
"42 563 OFFCURVE",
"42 357 CURVE SMOOTH",
"42 239 OFFCURVE",
"86 133 OFFCURVE",
"163 65 CURVE",
"117 -15 LINE",
"204 -15 LINE",
"226 22 LINE",
"272 -2 OFFCURVE",
"325 -15 OFFCURVE",
"385 -15 CURVE SMOOTH",
"597 -15 OFFCURVE",
"727 152 OFFCURVE",
"727 357 CURVE SMOOTH",
"727 482 OFFCURVE",
"680 592 OFFCURVE",
"596 660 CURVE"
);
},
{
closed = 1;
nodes = (
"130 517 OFFCURVE",
"222 655 OFFCURVE",
"384 655 CURVE SMOOTH",
"425 655 OFFCURVE",
"461 647 OFFCURVE",
"492 632 CURVE",
"206 138 LINE",
"157 193 OFFCURVE",
"130 272 OFFCURVE",
"130 356 CURVE SMOOTH"
);
},
{
closed = 1;
nodes = (
"339 60 OFFCURVE",
"299 71 OFFCURVE",
"265 90 CURVE",
"554 589 LINE",
"611 533 OFFCURVE",
"640 448 OFFCURVE",
"640 356 CURVE SMOOTH",
"640 198 OFFCURVE",
"547 60 OFFCURVE",
"384 60 CURVE SMOOTH"
);
}
);
width = 769;
}
);
note = Oslash;
unicode = 00D8;
},
{
glyphname = Otilde;
layers = (
{
hints = (
{
horizontal = 1;
place = "{-15, 75}";
type = Stem;
},
{
horizontal = 1;
place = "{655, 75}";
type = Stem;
},
{
place = "{42, 88}";
type = Stem;
},
{
place = "{640, 87}";
type = Stem;
}
);
layerId = "5B3AE2B2-6F0E-4414-97DF-6676E601E692";
paths = (
{
closed = 1;
nodes = (
"597 -15 OFFCURVE",
"727 152 OFFCURVE",
"727 357 CURVE SMOOTH",
"727 563 OFFCURVE",
"600 730 OFFCURVE",
"385 730 CURVE SMOOTH",
"174 730 OFFCURVE",
"42 563 OFFCURVE",
"42 357 CURVE SMOOTH",
"42 152 OFFCURVE",
"174 -15 OFFCURVE",
"385 -15 CURVE SMOOTH"
);
},
{
closed = 1;
nodes = (
"130 517 OFFCURVE",
"222 655 OFFCURVE",
"384 655 CURVE SMOOTH",
"551 655 OFFCURVE",
"640 517 OFFCURVE",
"640 356 CURVE SMOOTH",
"640 198 OFFCURVE",
"547 60 OFFCURVE",
"384 60 CURVE SMOOTH",
"223 60 OFFCURVE",
"130 198 OFFCURVE",
"130 356 CURVE SMOOTH"
);
}
);
width = 769;
}
);
note = Otilde;
unicode = 00D5;
},
{
glyphname = OE;
layers = (
{
hints = (
{
horizontal = 1;
place = "{1, 71}";
type = Stem;
},
{
horizontal = 1;
place = "{325, 71}";
type = Stem;
},
{
horizontal = 1;
place = "{644, 71}";
type = Stem;
},
{
place = "{42, 88}";
type = Stem;
},
{
place = "{634, 85}";
type = Stem;
},
{
horizontal = 1;
place = "{-15, 75}";
type = Stem;
},
{
horizontal = 1;
place = "{655, 75}";
type = Stem;
}
);
layerId = "5B3AE2B2-6F0E-4414-97DF-6676E601E692";
paths = (
{
closed = 1;
nodes = (
"819 72 LINE SMOOTH",
"786 72 OFFCURVE",
"719 70 OFFCURVE",
"719 70 CURVE",
"719 271 LINE",
"722 289 OFFCURVE",
"725 307 OFFCURVE",
"726 326 CURVE",
"819 325 LINE",
"1075 325 LINE",
"1075 396 LINE",
"819 396 LINE",
"726 395 LINE",
"724 412 OFFCURVE",
"722 428 OFFCURVE",
"719 444 CURVE",
"719 645 LINE",
"719 645 OFFCURVE",
"786 644 OFFCURVE",
"819 644 CURVE SMOOTH",
"1085 644 LINE",
"1085 715 LINE",
"634 715 LINE",
"634 624 LINE",
"575 689 OFFCURVE",
"491 730 OFFCURVE",
"385 730 CURVE SMOOTH",
"174 730 OFFCURVE",
"42 563 OFFCURVE",
"42 357 CURVE SMOOTH",
"42 152 OFFCURVE",
"174 -15 OFFCURVE",
"385 -15 CURVE SMOOTH",
"490 -15 OFFCURVE",
"575 26 OFFCURVE",
"634 92 CURVE",
"634 1 LINE",
"1095 1 LINE",
"1095 72 LINE"
);
},
{
closed = 1;
nodes = (
"223 60 OFFCURVE",
"130 198 OFFCURVE",
"130 356 CURVE SMOOTH",
"130 517 OFFCURVE",
"222 655 OFFCURVE",
"384 655 CURVE SMOOTH",
"526 655 OFFCURVE",
"611 555 OFFCURVE",
"634 427 CURVE",
"634 288 LINE",
"611 160 OFFCURVE",
"523 60 OFFCURVE",
"384 60 CURVE SMOOTH"
);
}
);
width = 1137;
}
);
note = OE;
unicode = 0152;
},
{
glyphname = P;
layers = (
{
hints = (
{
horizontal = 1;
place = "{0, 21}";
target = up;
type = BottomGhost;
},
{
horizontal = 1;
place = "{279, 70}";
type = Stem;
},
{
horizontal = 1;
place = "{644, 71}";
type = Stem;
},
{
place = "{75, 85}";
type = Stem;
},
{
place = "{517, 86}";
type = Stem;
}
);
layerId = "5B3AE2B2-6F0E-4414-97DF-6676E601E692";
paths = (
{
closed = 1;
nodes = (
"402 279 LINE SMOOTH",
"527 279 OFFCURVE",
"603 376 OFFCURVE",
"603 497 CURVE SMOOTH",
"603 618 OFFCURVE",
"529 715 OFFCURVE",
"402 715 CURVE SMOOTH",
"75 715 LINE",
"75 0 LINE",
"160 0 LINE",
"160 279 LINE"
);
},
{
closed = 1;
nodes = (
"160 644 LINE",
"392 644 LINE SMOOTH",
"475 644 OFFCURVE",
"517 577 OFFCURVE",
"517 496 CURVE SMOOTH",
"517 416 OFFCURVE",
"472 349 OFFCURVE",
"392 349 CURVE SMOOTH",
"160 350 LINE"
);
}
);
width = 645;
}
);
note = P;
rightKerningGroup = P;
unicode = 0050;
},
{
glyphname = Thorn;
layers = (
{
hints = (
{
horizontal = 1;
place = "{0, 21}";
target = up;
type = BottomGhost;
},
{
horizontal = 1;
place = "{165, 70}";
type = Stem;
},
{
horizontal = 1;
place = "{530, 71}";
type = Stem;
},
{
place = "{75, 85}";
type = Stem;
},
{
place = "{517, 86}";
type = Stem;
},
{
horizontal = 1;
place = "{530, 185}";
type = Stem;
}
);
layerId = "5B3AE2B2-6F0E-4414-97DF-6676E601E692";
paths = (
{
closed = 1;
nodes = (
"160 0 LINE",
"160 165 LINE",
"402 165 LINE SMOOTH",
"527 165 OFFCURVE",
"603 262 OFFCURVE",
"603 383 CURVE SMOOTH",
"603 504 OFFCURVE",
"529 601 OFFCURVE",
"402 601 CURVE SMOOTH",
"160 601 LINE",
"160 715 LINE",
"75 715 LINE",
"75 0 LINE"
);
},
{
closed = 1;
nodes = (
"160 530 LINE",
"392 530 LINE SMOOTH",
"475 530 OFFCURVE",
"517 463 OFFCURVE",
"517 382 CURVE SMOOTH",
"517 302 OFFCURVE",
"472 235 OFFCURVE",
"392 235 CURVE SMOOTH",
"160 236 LINE"
);
}
);
width = 645;
}
);
note = Thorn;
unicode = 00DE;
},
{
glyphname = Q;
layers = (
{
hints = (
{
horizontal = 1;
place = "{-15, 75}";
type = Stem;
},
{
horizontal = 1;
place = "{655, 75}";
type = Stem;
},
{
place = "{42, 88}";
type = Stem;
},
{
place = "{640, 87}";
type = Stem;
}
);
layerId = "5B3AE2B2-6F0E-4414-97DF-6676E601E692";
paths = (
{
closed = 1;
nodes = (
"727 563 OFFCURVE",
"600 730 OFFCURVE",
"385 730 CURVE SMOOTH",
"174 730 OFFCURVE",
"42 563 OFFCURVE",
"42 357 CURVE SMOOTH",
"42 152 OFFCURVE",
"174 -15 OFFCURVE",
"385 -15 CURVE SMOOTH",
"431 -15 OFFCURVE",
"473 -7 OFFCURVE",
"511 7 CURVE",
"561 -57 LINE",
"656 -57 LINE",
"578 42 LINE",
"673 109 OFFCURVE",
"727 225 OFFCURVE",
"727 357 CURVE SMOOTH"
);
},
{
closed = 1;
nodes = (
"223 60 OFFCURVE",
"130 198 OFFCURVE",
"130 356 CURVE SMOOTH",
"130 517 OFFCURVE",
"222 655 OFFCURVE",
"384 655 CURVE SMOOTH",
"551 655 OFFCURVE",
"640 517 OFFCURVE",
"640 356 CURVE SMOOTH",
"640 253 OFFCURVE",
"601 159 OFFCURVE",
"528 106 CURVE",
"480 167 LINE",
"385 167 LINE",
"460 71 LINE",
"437 64 OFFCURVE",
"411 60 OFFCURVE",
"384 60 CURVE SMOOTH"
);
}
);
width = 769;
}
);
note = Q;
unicode = 0051;
},
{
glyphname = R;
layers = (
{
hints = (
{
horizontal = 1;
place = "{0, 21}";
target = up;
type = BottomGhost;
},
{
horizontal = 1;
place = "{275, 70}";
type = Stem;
},
{
horizontal = 1;
place = "{644, 71}";
type = Stem;
},
{
place = "{75, 85}";
type = Stem;
},
{
place = "{517, 86}";
type = Stem;
}
);
layerId = "5B3AE2B2-6F0E-4414-97DF-6676E601E692";
paths = (
{
closed = 1;
nodes = (
"358 275 LINE",
"550 0 LINE",
"643 0 LINE",
"447 280 LINE",
"545 300 OFFCURVE",
"603 389 OFFCURVE",
"603 495 CURVE SMOOTH",
"603 616 OFFCURVE",
"529 715 OFFCURVE",
"402 715 CURVE SMOOTH",
"75 715 LINE",
"75 0 LINE",
"160 0 LINE",
"160 275 LINE"
);
},
{
closed = 1;
nodes = (
"160 644 LINE",
"392 644 LINE SMOOTH",
"475 644 OFFCURVE",
"517 571 OFFCURVE",
"517 494 CURVE SMOOTH",
"517 418 OFFCURVE",
"472 345 OFFCURVE",
"392 345 CURVE SMOOTH",
"160 346 LINE"
);
}
);
width = 658;
}
);
note = R;
rightKerningGroup = R;
unicode = 0052;
},
{
glyphname = S;
layers = (
{
hints = (
{
horizontal = 1;
place = "{-16, 75}";
type = Stem;
},
{
horizontal = 1;
place = "{656, 75}";
type = Stem;
},
{
place = "{66, 88}";
type = Stem;
},
{
place = "{546, 88}";
type = Stem;
}
);
layerId = "5B3AE2B2-6F0E-4414-97DF-6676E601E692";
paths = (
{
closed = 1;
nodes = (
"517 -21 OFFCURVE",
"634 61 OFFCURVE",
"634 195 CURVE SMOOTH",
"634 348 OFFCURVE",
"490 381 OFFCURVE",
"372 410 CURVE SMOOTH",
"246 441 OFFCURVE",
"154 470 OFFCURVE",
"154 547 CURVE SMOOTH",
"154 609 OFFCURVE",
"222 656 OFFCURVE",
"324 656 CURVE SMOOTH",
"432 656 OFFCURVE",
"513 617 OFFCURVE",
"527 509 CURVE",
"612 508 LINE",
"595 651 OFFCURVE",
"491 731 OFFCURVE",
"341 731 CURVE SMOOTH",
"163 731 OFFCURVE",
"66 652 OFFCURVE",
"66 535 CURVE SMOOTH",
"66 400 OFFCURVE",
"213 365 OFFCURVE",
"335 338 CURVE SMOOTH",
"484 305 OFFCURVE",
"547 266 OFFCURVE",
"546 190 CURVE SMOOTH",
"545 112 OFFCURVE",
"465 56 OFFCURVE",
"361 59 CURVE SMOOTH",
"258 62 OFFCURVE",
"146 91 OFFCURVE",
"127 235 CURVE",
"42 236 LINE",
"55 77 OFFCURVE",
"172 -11 OFFCURVE",
"341 -16 CURVE SMOOTH"
);
}
);
width = 676;
}
);
note = S;
unicode = 0053;
},
{
glyphname = T;
layers = (
{
hints = (
{
horizontal = 1;
place = "{0, 21}";
target = up;
type = BottomGhost;
},
{
horizontal = 1;
place = "{644, 71}";
type = Stem;
},
{
place = "{234, 85}";
type = Stem;
}
);
layerId = "5B3AE2B2-6F0E-4414-97DF-6676E601E692";
paths = (
{
closed = 1;
nodes = (
"319 0 LINE",
"319 544 LINE SMOOTH",
"319 579 OFFCURVE",
"316 644 OFFCURVE",
"316 644 CURVE",
"546 644 LINE",
"546 715 LINE",
"5 715 LINE",
"5 644 LINE",
"235 644 LINE",
"235 644 OFFCURVE",
"234 579 OFFCURVE",
"234 544 CURVE SMOOTH",
"234 0 LINE"
);
}
);
width = 551;
}
);
note = T;
rightKerningGroup = T;
unicode = 0054;
},
{
glyphname = U;
layers = (
{
hints = (
{
horizontal = 1;
place = "{-15, 75}";
type = Stem;
},
{
horizontal = 1;
place = "{715, -20}";
target = down;
type = TopGhost;
},
{
place = "{75, 85}";
type = Stem;
},
{
place = "{530, 85}";
type = Stem;
}
);
layerId = "5B3AE2B2-6F0E-4414-97DF-6676E601E692";
paths = (
{
closed = 1;
nodes = (
"513 -15 OFFCURVE",
"615 92 OFFCURVE",
"615 297 CURVE SMOOTH",
"615 715 LINE",
"530 715 LINE",
"530 276 LINE SMOOTH",
"530 138 OFFCURVE",
"462 60 OFFCURVE",
"344 60 CURVE SMOOTH",
"228 60 OFFCURVE",
"160 138 OFFCURVE",
"160 276 CURVE SMOOTH",
"160 715 LINE",
"75 715 LINE",
"75 297 LINE SMOOTH",
"75 92 OFFCURVE",
"179 -15 OFFCURVE",
"345 -15 CURVE SMOOTH"
);
}
);
width = 690;
}
);
note = U;
unicode = 0055;
},
{
glyphname = Uacute;
layers = (
{
hints = (
{
horizontal = 1;
place = "{-15, 75}";
type = Stem;
},
{
horizontal = 1;
place = "{715, -20}";
target = down;
type = TopGhost;
},
{
horizontal = 1;
place = "{795, 99}";
type = Stem;
},
{
place = "{75, 85}";
type = Stem;
},
{
place = "{530, 85}";
type = Stem;
}
);
layerId = "5B3AE2B2-6F0E-4414-97DF-6676E601E692";
paths = (
{
closed = 1;
nodes = (
"390 828 LINE SMOOTH",
"425 861 OFFCURVE",
"454 894 OFFCURVE",
"454 894 CURVE SMOOTH",
"374 894 LINE SMOOTH",
"374 894 OFFCURVE",
"334 861 OFFCURVE",
"300 828 CURVE SMOOTH",
"266 795 LINE",
"357 795 LINE"
);
},
{
closed = 1;
nodes = (
"513 -15 OFFCURVE",
"615 92 OFFCURVE",
"615 297 CURVE SMOOTH",
"615 715 LINE",
"530 715 LINE",
"530 276 LINE SMOOTH",
"530 138 OFFCURVE",
"462 60 OFFCURVE",
"344 60 CURVE SMOOTH",
"228 60 OFFCURVE",
"160 138 OFFCURVE",
"160 276 CURVE SMOOTH",
"160 715 LINE",
"75 715 LINE",
"75 297 LINE SMOOTH",
"75 92 OFFCURVE",
"179 -15 OFFCURVE",
"345 -15 CURVE SMOOTH"
);
}
);
width = 690;
}
);
note = Uacute;
unicode = 00DA;
},
{
glyphname = Ucircumflex;
layers = (
{
hints = (
{
horizontal = 1;
place = "{-15, 75}";
type = Stem;
},
{
horizontal = 1;
place = "{715, -20}";
target = down;
type = TopGhost;
},
{
horizontal = 1;
place = "{795, 99}";
type = Stem;
},
{
place = "{75, 85}";
type = Stem;
},
{
place = "{530, 85}";
type = Stem;
},
{
horizontal = 1;
place = "{860, 34}";
type = Stem;
}
);
layerId = "5B3AE2B2-6F0E-4414-97DF-6676E601E692";
paths = (
{
closed = 1;
nodes = (
"386 795 LINE",
"449 795 LINE",
"386 894 LINE",
"303 894 LINE",
"241 795 LINE",
"303 795 LINE",
"345 860 LINE"
);
},
{
closed = 1;
nodes = (
"530 276 LINE SMOOTH",
"530 138 OFFCURVE",
"462 60 OFFCURVE",
"344 60 CURVE SMOOTH",
"228 60 OFFCURVE",
"160 138 OFFCURVE",
"160 276 CURVE SMOOTH",
"160 715 LINE",
"75 715 LINE",
"75 297 LINE SMOOTH",
"75 92 OFFCURVE",
"179 -15 OFFCURVE",
"345 -15 CURVE SMOOTH",
"513 -15 OFFCURVE",
"615 92 OFFCURVE",
"615 297 CURVE SMOOTH",
"615 715 LINE",
"530 715 LINE"
);
}
);
width = 690;
}
);
note = Ucircumflex;
unicode = 00DB;
},
{
glyphname = Udieresis;
layers = (
{
hints = (
{
horizontal = 1;
place = "{-15, 75}";
type = Stem;
},
{
horizontal = 1;
place = "{715, -20}";
target = down;
type = TopGhost;
},
{
horizontal = 1;
place = "{791, 102}";
type = Stem;
},
{
place = "{75, 85}";
type = Stem;
},
{
place = "{197, 104}";
type = Stem;
},
{
place = "{391, 104}";
type = Stem;
},
{
place = "{530, 85}";
type = Stem;
}
);
layerId = "5B3AE2B2-6F0E-4414-97DF-6676E601E692";
paths = (
{
closed = 1;
nodes = (
"197 813 OFFCURVE",
"219 791 OFFCURVE",
"249 791 CURVE SMOOTH",
"279 791 OFFCURVE",
"301 813 OFFCURVE",
"301 842 CURVE SMOOTH",
"301 871 OFFCURVE",
"279 893 OFFCURVE",
"249 893 CURVE SMOOTH",
"219 893 OFFCURVE",
"197 871 OFFCURVE",
"197 842 CURVE SMOOTH"
);
},
{
closed = 1;
nodes = (
"391 813 OFFCURVE",
"413 791 OFFCURVE",
"443 791 CURVE SMOOTH",
"473 791 OFFCURVE",
"495 813 OFFCURVE",
"495 842 CURVE SMOOTH",
"495 871 OFFCURVE",
"473 893 OFFCURVE",
"443 893 CURVE SMOOTH",
"413 893 OFFCURVE",
"391 871 OFFCURVE",
"391 842 CURVE SMOOTH"
);
},
{
closed = 1;
nodes = (
"513 -15 OFFCURVE",
"615 92 OFFCURVE",
"615 297 CURVE SMOOTH",
"615 715 LINE",
"530 715 LINE",
"530 276 LINE SMOOTH",
"530 138 OFFCURVE",
"462 60 OFFCURVE",
"344 60 CURVE SMOOTH",
"228 60 OFFCURVE",
"160 138 OFFCURVE",
"160 276 CURVE SMOOTH",
"160 715 LINE",
"75 715 LINE",
"75 297 LINE SMOOTH",
"75 92 OFFCURVE",
"179 -15 OFFCURVE",
"345 -15 CURVE SMOOTH"
);
}
);
width = 690;
}
);
note = Udieresis;
unicode = 00DC;
},
{
glyphname = Ugrave;
layers = (
{
hints = (
{
horizontal = 1;
place = "{-15, 75}";
type = Stem;
},
{
horizontal = 1;
place = "{715, -20}";
target = down;
type = TopGhost;
},
{
horizontal = 1;
place = "{795, 99}";
type = Stem;
},
{
place = "{75, 85}";
type = Stem;
},
{
place = "{530, 85}";
type = Stem;
}
);
layerId = "5B3AE2B2-6F0E-4414-97DF-6676E601E692";
paths = (
{
closed = 1;
nodes = (
"444 795 LINE",
"410 828 LINE SMOOTH",
"376 861 OFFCURVE",
"336 894 OFFCURVE",
"336 894 CURVE SMOOTH",
"256 894 LINE SMOOTH",
"256 894 OFFCURVE",
"285 861 OFFCURVE",
"320 828 CURVE SMOOTH",
"353 795 LINE"
);
},
{
closed = 1;
nodes = (
"513 -15 OFFCURVE",
"615 92 OFFCURVE",
"615 297 CURVE SMOOTH",
"615 715 LINE",
"530 715 LINE",
"530 276 LINE SMOOTH",
"530 138 OFFCURVE",
"462 60 OFFCURVE",
"344 60 CURVE SMOOTH",
"228 60 OFFCURVE",
"160 138 OFFCURVE",
"160 276 CURVE SMOOTH",
"160 715 LINE",
"75 715 LINE",
"75 297 LINE SMOOTH",
"75 92 OFFCURVE",
"179 -15 OFFCURVE",
"345 -15 CURVE SMOOTH"
);
}
);
width = 690;
}
);
note = Ugrave;
unicode = 00D9;
},
{
glyphname = V;
layers = (
{
hints = (
{
horizontal = 1;
place = "{0, 21}";
target = up;
type = BottomGhost;
},
{
horizontal = 1;
place = "{716, -20}";
target = down;
type = TopGhost;
},
{
place = "{5, 581}";
type = Stem;
}
);
layerId = "5B3AE2B2-6F0E-4414-97DF-6676E601E692";
paths = (
{
closed = 1;
nodes = (
"338 0 LINE",
"586 716 LINE",
"505 716 LINE",
"355 281 LINE SMOOTH",
"338 231 OFFCURVE",
"296 89 OFFCURVE",
"296 89 CURVE SMOOTH",
"296 89 OFFCURVE",
"253 231 OFFCURVE",
"236 281 CURVE SMOOTH",
"86 716 LINE",
"5 716 LINE",
"255 0 LINE"
);
}
);
width = 591;
}
);
note = V;
rightKerningGroup = V;
unicode = 0056;
},
{
glyphname = W;
layers = (
{
hints = (
{
horizontal = 1;
place = "{1, 21}";
target = up;
type = BottomGhost;
},
{
horizontal = 1;
place = "{716, -20}";
target = down;
type = TopGhost;
},
{
place = "{5, 932}";
type = Stem;
}
);
layerId = "5B3AE2B2-6F0E-4414-97DF-6676E601E692";
paths = (
{
closed = 1;
nodes = (
"723 1 LINE",
"937 716 LINE",
"856 716 LINE",
"727 277 LINE SMOOTH",
"714 232 OFFCURVE",
"685 110 OFFCURVE",
"685 110 CURVE SMOOTH",
"685 110 OFFCURVE",
"655 232 OFFCURVE",
"642 277 CURVE SMOOTH",
"511 716 LINE",
"431 716 LINE",
"300 275 LINE SMOOTH",
"287 231 OFFCURVE",
"258 110 OFFCURVE",
"258 110 CURVE SMOOTH",
"258 110 OFFCURVE",
"228 231 OFFCURVE",
"215 275 CURVE SMOOTH",
"86 716 LINE",
"5 716 LINE",
"219 1 LINE",
"296 1 LINE",
"471 586 LINE",
"646 1 LINE"
);
}
);
width = 942;
}
);
note = W;
rightKerningGroup = V;
unicode = 0057;
},
{
glyphname = Wacute;
layers = (
{
hints = (
{
horizontal = 1;
place = "{1, 21}";
target = up;
type = BottomGhost;
},
{
horizontal = 1;
place = "{716, -20}";
target = down;
type = TopGhost;
},
{
horizontal = 1;
place = "{795, 99}";
type = Stem;
},
{
place = "{5, 932}";
type = Stem;
}
);
layerId = "5B3AE2B2-6F0E-4414-97DF-6676E601E692";
paths = (
{
closed = 1;
nodes = (
"499 828 LINE SMOOTH",
"534 861 OFFCURVE",
"563 894 OFFCURVE",
"563 894 CURVE SMOOTH",
"483 894 LINE SMOOTH",
"483 894 OFFCURVE",
"443 861 OFFCURVE",
"409 828 CURVE SMOOTH",
"375 795 LINE",
"466 795 LINE"
);
},
{
closed = 1;
nodes = (
"723 1 LINE",
"937 716 LINE",
"856 716 LINE",
"727 277 LINE SMOOTH",
"714 232 OFFCURVE",
"685 110 OFFCURVE",
"685 110 CURVE SMOOTH",
"685 110 OFFCURVE",
"655 232 OFFCURVE",
"642 277 CURVE SMOOTH",
"511 716 LINE",
"431 716 LINE",
"300 275 LINE SMOOTH",
"287 231 OFFCURVE",
"258 110 OFFCURVE",
"258 110 CURVE SMOOTH",
"258 110 OFFCURVE",
"228 231 OFFCURVE",
"215 275 CURVE SMOOTH",
"86 716 LINE",
"5 716 LINE",
"219 1 LINE",
"296 1 LINE",
"471 586 LINE",
"646 1 LINE"
);
}
);
width = 942;
}
);
note = Wacute;
unicode = 1E82;
},
{
glyphname = Wcircumflex;
layers = (
{
hints = (
{
horizontal = 1;
place = "{1, 21}";
target = up;
type = BottomGhost;
},
{
horizontal = 1;
place = "{716, -20}";
target = down;
type = TopGhost;
},
{
horizontal = 1;
place = "{795, 99}";
type = Stem;
},
{
place = "{5, 932}";
type = Stem;
},
{
horizontal = 1;
place = "{860, 34}";
type = Stem;
}
);
layerId = "5B3AE2B2-6F0E-4414-97DF-6676E601E692";
paths = (
{
closed = 1;
nodes = (
"515 795 LINE",
"578 795 LINE",
"515 894 LINE",
"432 894 LINE",
"370 795 LINE",
"432 795 LINE",
"474 860 LINE"
);
},
{
closed = 1;
nodes = (
"727 277 LINE SMOOTH",
"714 232 OFFCURVE",
"685 110 OFFCURVE",
"685 110 CURVE SMOOTH",
"685 110 OFFCURVE",
"655 232 OFFCURVE",
"642 277 CURVE SMOOTH",
"511 716 LINE",
"431 716 LINE",
"300 275 LINE SMOOTH",
"287 231 OFFCURVE",
"258 110 OFFCURVE",
"258 110 CURVE SMOOTH",
"258 110 OFFCURVE",
"228 231 OFFCURVE",
"215 275 CURVE SMOOTH",
"86 716 LINE",
"5 716 LINE",
"219 1 LINE",
"296 1 LINE",
"471 586 LINE",
"646 1 LINE",
"723 1 LINE",
"937 716 LINE",
"856 716 LINE"
);
}
);
width = 942;
}
);
note = Wcircumflex;
unicode = 0174;
},
{
glyphname = Wdieresis;
layers = (
{
hints = (
{
horizontal = 1;
place = "{1, 21}";
target = up;
type = BottomGhost;
},
{
horizontal = 1;
place = "{716, -20}";
target = down;
type = TopGhost;
},
{
horizontal = 1;
place = "{791, 102}";
type = Stem;
},
{
place = "{325, 104}";
type = Stem;
},
{
place = "{519, 104}";
type = Stem;
}
);
layerId = "5B3AE2B2-6F0E-4414-97DF-6676E601E692";
paths = (
{
closed = 1;
nodes = (
"325 813 OFFCURVE",
"347 791 OFFCURVE",
"377 791 CURVE SMOOTH",
"407 791 OFFCURVE",
"429 813 OFFCURVE",
"429 842 CURVE SMOOTH",
"429 871 OFFCURVE",
"407 893 OFFCURVE",
"377 893 CURVE SMOOTH",
"347 893 OFFCURVE",
"325 871 OFFCURVE",
"325 842 CURVE SMOOTH"
);
},
{
closed = 1;
nodes = (
"519 813 OFFCURVE",
"541 791 OFFCURVE",
"571 791 CURVE SMOOTH",
"601 791 OFFCURVE",
"623 813 OFFCURVE",
"623 842 CURVE SMOOTH",
"623 871 OFFCURVE",
"601 893 OFFCURVE",
"571 893 CURVE SMOOTH",
"541 893 OFFCURVE",
"519 871 OFFCURVE",
"519 842 CURVE SMOOTH"
);
},
{
closed = 1;
nodes = (
"723 1 LINE",
"937 716 LINE",
"856 716 LINE",
"727 277 LINE SMOOTH",
"714 232 OFFCURVE",
"685 110 OFFCURVE",
"685 110 CURVE SMOOTH",
"685 110 OFFCURVE",
"655 232 OFFCURVE",
"642 277 CURVE SMOOTH",
"511 716 LINE",
"431 716 LINE",
"300 275 LINE SMOOTH",
"287 231 OFFCURVE",
"258 110 OFFCURVE",
"258 110 CURVE SMOOTH",
"258 110 OFFCURVE",
"228 231 OFFCURVE",
"215 275 CURVE SMOOTH",
"86 716 LINE",
"5 716 LINE",
"219 1 LINE",
"296 1 LINE",
"471 586 LINE",
"646 1 LINE"
);
}
);
width = 942;
}
);
note = Wdieresis;
unicode = 1E84;
},
{
glyphname = Wgrave;
layers = (
{
hints = (
{
horizontal = 1;
place = "{1, 21}";
target = up;
type = BottomGhost;
},
{
horizontal = 1;
place = "{716, -20}";
target = down;
type = TopGhost;
},
{
horizontal = 1;
place = "{795, 99}";
type = Stem;
},
{
place = "{5, 932}";
type = Stem;
}
);
layerId = "5B3AE2B2-6F0E-4414-97DF-6676E601E692";
paths = (
{
closed = 1;
nodes = (
"573 795 LINE",
"539 828 LINE SMOOTH",
"505 861 OFFCURVE",
"465 894 OFFCURVE",
"465 894 CURVE SMOOTH",
"385 894 LINE SMOOTH",
"385 894 OFFCURVE",
"414 861 OFFCURVE",
"449 828 CURVE SMOOTH",
"482 795 LINE"
);
},
{
closed = 1;
nodes = (
"723 1 LINE",
"937 716 LINE",
"856 716 LINE",
"727 277 LINE SMOOTH",
"714 232 OFFCURVE",
"685 110 OFFCURVE",
"685 110 CURVE SMOOTH",
"685 110 OFFCURVE",
"655 232 OFFCURVE",
"642 277 CURVE SMOOTH",
"511 716 LINE",
"431 716 LINE",
"300 275 LINE SMOOTH",
"287 231 OFFCURVE",
"258 110 OFFCURVE",
"258 110 CURVE SMOOTH",
"258 110 OFFCURVE",
"228 231 OFFCURVE",
"215 275 CURVE SMOOTH",
"86 716 LINE",
"5 716 LINE",
"219 1 LINE",
"296 1 LINE",
"471 586 LINE",
"646 1 LINE"
);
}
);
width = 942;
}
);
note = Wgrave;
unicode = 1E80;
},
{
glyphname = X;
layers = (
{
hints = (
{
horizontal = 1;
place = "{0, 21}";
target = up;
type = BottomGhost;
},
{
horizontal = 1;
place = "{715, -20}";
target = down;
type = TopGhost;
},
{
place = "{42, 537}";
type = Stem;
}
);
layerId = "5B3AE2B2-6F0E-4414-97DF-6676E601E692";
paths = (
{
closed = 1;
nodes = (
"201 462 LINE SMOOTH",
"220 431 OFFCURVE",
"260 369 OFFCURVE",
"260 369 CURVE SMOOTH",
"260 369 OFFCURVE",
"221 308 OFFCURVE",
"202 277 CURVE SMOOTH",
"42 22 LINE",
"130 22 LINE",
"227 177 LINE SMOOTH",
"252 217 OFFCURVE",
"303 299 OFFCURVE",
"303 299 CURVE",
"379 177 LINE",
"490 0 LINE",
"579 0 LINE",
"421 252 LINE SMOOTH",
"397 291 OFFCURVE",
"347 369 OFFCURVE",
"347 369 CURVE SMOOTH",
"347 369 OFFCURVE",
"398 448 OFFCURVE",
"423 488 CURVE SMOOTH",
"579 737 LINE",
"490 737 LINE",
"363 535 LINE SMOOTH",
"343 503 OFFCURVE",
"303 438 OFFCURVE",
"303 438 CURVE",
"242 536 LINE",
"130 715 LINE",
"42 715 LINE"
);
}
);
width = 621;
}
);
note = X;
unicode = 0058;
},
{
glyphname = Y;
layers = (
{
hints = (
{
horizontal = 1;
place = "{0, 21}";
target = up;
type = BottomGhost;
},
{
horizontal = 1;
place = "{716, -20}";
target = down;
type = TopGhost;
},
{
place = "{253, 85}";
type = Stem;
},
{
place = "{295, 43}";
type = Stem;
}
);
layerId = "5B3AE2B2-6F0E-4414-97DF-6676E601E692";
paths = (
{
closed = 1;
nodes = (
"338 0 LINE",
"338 322 LINE",
"585 716 LINE",
"496 716 LINE",
"332 455 LINE SMOOTH",
"317 432 OFFCURVE",
"295 393 OFFCURVE",
"295 393 CURVE SMOOTH",
"295 393 OFFCURVE",
"274 431 OFFCURVE",
"259 454 CURVE SMOOTH",
"94 716 LINE",
"5 716 LINE",
"253 322 LINE",
"253 0 LINE"
);
}
);
width = 590;
}
);
note = Y;
rightKerningGroup = V;
unicode = 0059;
},
{
glyphname = Yacute;
layers = (
{
hints = (
{
horizontal = 1;
place = "{0, 21}";
target = up;
type = BottomGhost;
},
{
horizontal = 1;
place = "{716, -20}";
target = down;
type = TopGhost;
},
{
horizontal = 1;
place = "{795, 99}";
type = Stem;
},
{
place = "{253, 85}";
type = Stem;
}
);
layerId = "5B3AE2B2-6F0E-4414-97DF-6676E601E692";
paths = (
{
closed = 1;
nodes = (
"323 828 LINE SMOOTH",
"358 861 OFFCURVE",
"387 894 OFFCURVE",
"387 894 CURVE SMOOTH",
"307 894 LINE SMOOTH",
"307 894 OFFCURVE",
"267 861 OFFCURVE",
"233 828 CURVE SMOOTH",
"199 795 LINE",
"290 795 LINE"
);
},
{
closed = 1;
nodes = (
"338 0 LINE",
"338 322 LINE",
"585 716 LINE",
"496 716 LINE",
"332 455 LINE SMOOTH",
"317 432 OFFCURVE",
"295 393 OFFCURVE",
"295 393 CURVE SMOOTH",
"295 393 OFFCURVE",
"274 431 OFFCURVE",
"259 454 CURVE SMOOTH",
"94 716 LINE",
"5 716 LINE",
"253 322 LINE",
"253 0 LINE"
);
}
);
width = 590;
}
);
note = Yacute;
unicode = 00DD;
},
{
glyphname = Ycircumflex;
layers = (
{
hints = (
{
horizontal = 1;
place = "{0, 21}";
target = up;
type = BottomGhost;
},
{
horizontal = 1;
place = "{716, -20}";
target = down;
type = TopGhost;
},
{
horizontal = 1;
place = "{795, 99}";
type = Stem;
},
{
place = "{253, 85}";
type = Stem;
},
{
horizontal = 1;
place = "{860, 34}";
type = Stem;
},
{
place = "{295, 43}";
type = Stem;
}
);
layerId = "5B3AE2B2-6F0E-4414-97DF-6676E601E692";
paths = (
{
closed = 1;
nodes = (
"339 795 LINE",
"402 795 LINE",
"339 894 LINE",
"256 894 LINE",
"194 795 LINE",
"256 795 LINE",
"298 860 LINE"
);
},
{
closed = 1;
nodes = (
"332 455 LINE SMOOTH",
"317 432 OFFCURVE",
"295 393 OFFCURVE",
"295 393 CURVE SMOOTH",
"295 393 OFFCURVE",
"274 431 OFFCURVE",
"259 454 CURVE SMOOTH",
"94 716 LINE",
"5 716 LINE",
"253 322 LINE",
"253 0 LINE",
"338 0 LINE",
"338 322 LINE",
"585 716 LINE",
"496 716 LINE"
);
}
);
width = 590;
}
);
note = Ycircumflex;
unicode = 0176;
},
{
glyphname = Ydieresis;
layers = (
{
hints = (
{
horizontal = 1;
place = "{0, 21}";
target = up;
type = BottomGhost;
},
{
horizontal = 1;
place = "{716, -20}";
target = down;
type = TopGhost;
},
{
horizontal = 1;
place = "{791, 102}";
type = Stem;
},
{
place = "{149, 104}";
type = Stem;
},
{
place = "{343, 104}";
type = Stem;
},
{
place = "{253, 85}";
type = Stem;
}
);
layerId = "5B3AE2B2-6F0E-4414-97DF-6676E601E692";
paths = (
{
closed = 1;
nodes = (
"149 813 OFFCURVE",
"171 791 OFFCURVE",
"201 791 CURVE SMOOTH",
"231 791 OFFCURVE",
"253 813 OFFCURVE",
"253 842 CURVE SMOOTH",
"253 871 OFFCURVE",
"231 893 OFFCURVE",
"201 893 CURVE SMOOTH",
"171 893 OFFCURVE",
"149 871 OFFCURVE",
"149 842 CURVE SMOOTH"
);
},
{
closed = 1;
nodes = (
"343 813 OFFCURVE",
"365 791 OFFCURVE",
"395 791 CURVE SMOOTH",
"425 791 OFFCURVE",
"447 813 OFFCURVE",
"447 842 CURVE SMOOTH",
"447 871 OFFCURVE",
"425 893 OFFCURVE",
"395 893 CURVE SMOOTH",
"365 893 OFFCURVE",
"343 871 OFFCURVE",
"343 842 CURVE SMOOTH"
);
},
{
closed = 1;
nodes = (
"338 0 LINE",
"338 322 LINE",
"585 716 LINE",
"496 716 LINE",
"332 455 LINE SMOOTH",
"317 432 OFFCURVE",
"295 393 OFFCURVE",
"295 393 CURVE SMOOTH",
"295 393 OFFCURVE",
"274 431 OFFCURVE",
"259 454 CURVE SMOOTH",
"94 716 LINE",
"5 716 LINE",
"253 322 LINE",
"253 0 LINE"
);
}
);
width = 590;
}
);
note = Ydieresis;
unicode = 0178;
},
{
glyphname = Ygrave;
layers = (
{
hints = (
{
horizontal = 1;
place = "{0, 21}";
target = up;
type = BottomGhost;
},
{
horizontal = 1;
place = "{716, -20}";
target = down;
type = TopGhost;
},
{
horizontal = 1;
place = "{795, 99}";
type = Stem;
},
{
place = "{253, 85}";
type = Stem;
}
);
layerId = "5B3AE2B2-6F0E-4414-97DF-6676E601E692";
paths = (
{
closed = 1;
nodes = (
"397 795 LINE",
"363 828 LINE SMOOTH",
"329 861 OFFCURVE",
"289 894 OFFCURVE",
"289 894 CURVE SMOOTH",
"209 894 LINE SMOOTH",
"209 894 OFFCURVE",
"238 861 OFFCURVE",
"273 828 CURVE SMOOTH",
"306 795 LINE"
);
},
{
closed = 1;
nodes = (
"338 0 LINE",
"338 322 LINE",
"585 716 LINE",
"496 716 LINE",
"332 455 LINE SMOOTH",
"317 432 OFFCURVE",
"295 393 OFFCURVE",
"295 393 CURVE SMOOTH",
"295 393 OFFCURVE",
"274 431 OFFCURVE",
"259 454 CURVE SMOOTH",
"94 716 LINE",
"5 716 LINE",
"253 322 LINE",
"253 0 LINE"
);
}
);
width = 590;
}
);
note = Ygrave;
unicode = 1EF2;
},
{
glyphname = Z;
layers = (
{
hints = (
{
horizontal = 1;
place = "{0, 71}";
type = Stem;
},
{
horizontal = 1;
place = "{644, 71}";
type = Stem;
},
{
place = "{42, 540}";
type = Stem;
}
);
layerId = "5B3AE2B2-6F0E-4414-97DF-6676E601E692";
paths = (
{
closed = 1;
nodes = (
"582 0 LINE",
"582 71 LINE",
"159 71 LINE",
"582 681 LINE",
"582 715 LINE",
"42 715 LINE",
"42 644 LINE",
"465 644 LINE",
"42 35 LINE",
"42 0 LINE"
);
}
);
width = 624;
}
);
note = Z;
rightKerningGroup = Z;
unicode = 005A;
},
{
glyphname = a;
layers = (
{
hints = (
{
horizontal = 1;
place = "{0, 70}";
type = Stem;
},
{
horizontal = 1;
place = "{245, 60}";
type = Stem;
},
{
horizontal = 1;
place = "{460, 71}";
type = Stem;
},
{
place = "{43, 82}";
type = Stem;
},
{
place = "{382, 76}";
type = Stem;
},
{
horizontal = 1;
place = "{-13, 68}";
type = Stem;
},
{
place = "{383, 75}";
type = Stem;
}
);
layerId = "5B3AE2B2-6F0E-4414-97DF-6676E601E692";
paths = (
{
closed = 1;
nodes = (
"458 364 LINE SMOOTH",
"458 461 OFFCURVE",
"387 531 OFFCURVE",
"257 531 CURVE SMOOTH",
"147 531 OFFCURVE",
"69 457 OFFCURVE",
"59 368 CURVE",
"143 368 LINE",
"149 432 OFFCURVE",
"199 460 OFFCURVE",
"268 460 CURVE SMOOTH",
"334 460 OFFCURVE",
"382 429 OFFCURVE",
"382 338 CURVE SMOOTH",
"382 304 LINE",
"376 305 OFFCURVE",
"303 313 OFFCURVE",
"234 305 CURVE SMOOTH",
"167 297 OFFCURVE",
"43 269 OFFCURVE",
"43 142 CURVE SMOOTH",
"43 49 OFFCURVE",
"131 -13 OFFCURVE",
"208 -13 CURVE SMOOTH",
"334 -13 OFFCURVE",
"368 50 OFFCURVE",
"383 69 CURVE",
"389 23 OFFCURVE",
"415 0 OFFCURVE",
"474 0 CURVE SMOOTH",
"504 0 OFFCURVE",
"517 6 OFFCURVE",
"517 6 CURVE",
"517 73 LINE",
"476 63 OFFCURVE",
"458 77 OFFCURVE",
"458 121 CURVE SMOOTH"
);
},
{
closed = 1;
nodes = (
"182 55 OFFCURVE",
"125 83 OFFCURVE",
"125 137 CURVE SMOOTH",
"125 196 OFFCURVE",
"168 237 OFFCURVE",
"244 245 CURVE SMOOTH",
"319 253 OFFCURVE",
"364 251 OFFCURVE",
"382 250 CURVE",
"383 179 LINE",
"376 111 OFFCURVE",
"304 55 OFFCURVE",
"234 55 CURVE SMOOTH"
);
},
{
closed = 1;
nodes = (
"383 190 LINE",
"383 187 LINE"
);
}
);
width = 552;
}
);
leftKerningGroup = a;
note = a;
rightKerningGroup = a;
unicode = 0061;
},
{
glyphname = aacute;
layers = (
{
hints = (
{
horizontal = 1;
place = "{-13, 68}";
type = Stem;
},
{
horizontal = 1;
place = "{245, 60}";
type = Stem;
},
{
horizontal = 1;
place = "{460, 71}";
type = Stem;
},
{
horizontal = 1;
place = "{617, 99}";
type = Stem;
},
{
place = "{43, 82}";
type = Stem;
},
{
place = "{382, 76}";
type = Stem;
},
{
horizontal = 1;
place = "{0, 70}";
type = Stem;
},
{
place = "{383, 75}";
type = Stem;
}
);
layerId = "5B3AE2B2-6F0E-4414-97DF-6676E601E692";
paths = (
{
closed = 1;
nodes = (
"281 650 LINE SMOOTH",
"316 683 OFFCURVE",
"345 716 OFFCURVE",
"345 716 CURVE SMOOTH",
"265 716 LINE SMOOTH",
"265 716 OFFCURVE",
"225 683 OFFCURVE",
"191 650 CURVE SMOOTH",
"157 617 LINE",
"248 617 LINE"
);
},
{
closed = 1;
nodes = (
"458 364 LINE SMOOTH",
"458 461 OFFCURVE",
"387 531 OFFCURVE",
"257 531 CURVE SMOOTH",
"147 531 OFFCURVE",
"69 457 OFFCURVE",
"59 368 CURVE",
"143 368 LINE",
"149 432 OFFCURVE",
"199 460 OFFCURVE",
"268 460 CURVE SMOOTH",
"334 460 OFFCURVE",
"382 429 OFFCURVE",
"382 338 CURVE SMOOTH",
"382 304 LINE",
"376 305 OFFCURVE",
"303 313 OFFCURVE",
"234 305 CURVE SMOOTH",
"167 297 OFFCURVE",
"43 269 OFFCURVE",
"43 142 CURVE SMOOTH",
"43 49 OFFCURVE",
"131 -13 OFFCURVE",
"208 -13 CURVE SMOOTH",
"334 -13 OFFCURVE",
"368 50 OFFCURVE",
"383 69 CURVE",
"389 23 OFFCURVE",
"415 0 OFFCURVE",
"474 0 CURVE SMOOTH",
"504 0 OFFCURVE",
"517 6 OFFCURVE",
"517 6 CURVE",
"517 73 LINE",
"476 63 OFFCURVE",
"458 77 OFFCURVE",
"458 121 CURVE SMOOTH"
);
},
{
closed = 1;
nodes = (
"182 55 OFFCURVE",
"125 83 OFFCURVE",
"125 137 CURVE SMOOTH",
"125 196 OFFCURVE",
"168 237 OFFCURVE",
"244 245 CURVE SMOOTH",
"319 253 OFFCURVE",
"364 251 OFFCURVE",
"382 250 CURVE",
"383 179 LINE",
"376 111 OFFCURVE",
"304 55 OFFCURVE",
"234 55 CURVE SMOOTH"
);
},
{
closed = 1;
nodes = (
"383 190 LINE",
"383 187 LINE"
);
}
);
width = 552;
}
);
note = aacute;
unicode = 00E1;
},
{
glyphname = acircumflex;
layers = (
{
hints = (
{
horizontal = 1;
place = "{-13, 68}";
type = Stem;
},
{
horizontal = 1;
place = "{245, 60}";
type = Stem;
},
{
horizontal = 1;
place = "{460, 71}";
type = Stem;
},
{
horizontal = 1;
place = "{617, 99}";
type = Stem;
},
{
place = "{43, 82}";
type = Stem;
},
{
place = "{382, 76}";
type = Stem;
},
{
horizontal = 1;
place = "{0, 70}";
type = Stem;
},
{
horizontal = 1;
place = "{682, 34}";
type = Stem;
},
{
place = "{383, 75}";
type = Stem;
}
);
layerId = "5B3AE2B2-6F0E-4414-97DF-6676E601E692";
paths = (
{
closed = 1;
nodes = (
"291 617 LINE",
"354 617 LINE",
"291 716 LINE",
"208 716 LINE",
"146 617 LINE",
"208 617 LINE",
"250 682 LINE"
);
},
{
closed = 1;
nodes = (
"458 364 LINE SMOOTH",
"458 461 OFFCURVE",
"387 531 OFFCURVE",
"257 531 CURVE SMOOTH",
"147 531 OFFCURVE",
"69 457 OFFCURVE",
"59 368 CURVE",
"143 368 LINE",
"149 432 OFFCURVE",
"199 460 OFFCURVE",
"268 460 CURVE SMOOTH",
"334 460 OFFCURVE",
"382 429 OFFCURVE",
"382 338 CURVE SMOOTH",
"382 304 LINE",
"376 305 OFFCURVE",
"303 313 OFFCURVE",
"234 305 CURVE SMOOTH",
"167 297 OFFCURVE",
"43 269 OFFCURVE",
"43 142 CURVE SMOOTH",
"43 49 OFFCURVE",
"131 -13 OFFCURVE",
"208 -13 CURVE SMOOTH",
"334 -13 OFFCURVE",
"368 50 OFFCURVE",
"383 69 CURVE",
"389 23 OFFCURVE",
"415 0 OFFCURVE",
"474 0 CURVE SMOOTH",
"504 0 OFFCURVE",
"517 6 OFFCURVE",
"517 6 CURVE",
"517 73 LINE",
"476 63 OFFCURVE",
"458 77 OFFCURVE",
"458 121 CURVE SMOOTH"
);
},
{
closed = 1;
nodes = (
"182 55 OFFCURVE",
"125 83 OFFCURVE",
"125 137 CURVE SMOOTH",
"125 196 OFFCURVE",
"168 237 OFFCURVE",
"244 245 CURVE SMOOTH",
"319 253 OFFCURVE",
"364 251 OFFCURVE",
"382 250 CURVE",
"383 179 LINE",
"376 111 OFFCURVE",
"304 55 OFFCURVE",
"234 55 CURVE SMOOTH"
);
},
{
closed = 1;
nodes = (
"383 190 LINE",
"383 187 LINE"
);
}
);
width = 552;
}
);
note = acircumflex;
unicode = 00E2;
},
{
glyphname = adieresis;
layers = (
{
hints = (
{
horizontal = 1;
place = "{-13, 68}";
type = Stem;
},
{
horizontal = 1;
place = "{245, 60}";
type = Stem;
},
{
horizontal = 1;
place = "{460, 71}";
type = Stem;
},
{
horizontal = 1;
place = "{615, 102}";
type = Stem;
},
{
place = "{117, 104}";
type = Stem;
},
{
place = "{311, 104}";
type = Stem;
},
{
horizontal = 1;
place = "{0, 70}";
type = Stem;
},
{
place = "{43, 82}";
type = Stem;
},
{
place = "{382, 76}";
type = Stem;
},
{
place = "{383, 75}";
type = Stem;
}
);
layerId = "5B3AE2B2-6F0E-4414-97DF-6676E601E692";
paths = (
{
closed = 1;
nodes = (
"199 615 OFFCURVE",
"221 637 OFFCURVE",
"221 666 CURVE SMOOTH",
"221 695 OFFCURVE",
"199 717 OFFCURVE",
"169 717 CURVE SMOOTH",
"139 717 OFFCURVE",
"117 695 OFFCURVE",
"117 666 CURVE SMOOTH",
"117 637 OFFCURVE",
"139 615 OFFCURVE",
"169 615 CURVE SMOOTH"
);
},
{
closed = 1;
nodes = (
"393 615 OFFCURVE",
"415 637 OFFCURVE",
"415 666 CURVE SMOOTH",
"415 695 OFFCURVE",
"393 717 OFFCURVE",
"363 717 CURVE SMOOTH",
"333 717 OFFCURVE",
"311 695 OFFCURVE",
"311 666 CURVE SMOOTH",
"311 637 OFFCURVE",
"333 615 OFFCURVE",
"363 615 CURVE SMOOTH"
);
},
{
closed = 1;
nodes = (
"458 364 LINE SMOOTH",
"458 461 OFFCURVE",
"387 531 OFFCURVE",
"257 531 CURVE SMOOTH",
"147 531 OFFCURVE",
"69 457 OFFCURVE",
"59 368 CURVE",
"143 368 LINE",
"149 432 OFFCURVE",
"199 460 OFFCURVE",
"268 460 CURVE SMOOTH",
"334 460 OFFCURVE",
"382 429 OFFCURVE",
"382 338 CURVE SMOOTH",
"382 304 LINE",
"376 305 OFFCURVE",
"303 313 OFFCURVE",
"234 305 CURVE SMOOTH",
"167 297 OFFCURVE",
"43 269 OFFCURVE",
"43 142 CURVE SMOOTH",
"43 49 OFFCURVE",
"131 -13 OFFCURVE",
"208 -13 CURVE SMOOTH",
"334 -13 OFFCURVE",
"368 50 OFFCURVE",
"383 69 CURVE",
"389 23 OFFCURVE",
"415 0 OFFCURVE",
"474 0 CURVE SMOOTH",
"504 0 OFFCURVE",
"517 6 OFFCURVE",
"517 6 CURVE",
"517 73 LINE",
"476 63 OFFCURVE",
"458 77 OFFCURVE",
"458 121 CURVE SMOOTH"
);
},
{
closed = 1;
nodes = (
"182 55 OFFCURVE",
"125 83 OFFCURVE",
"125 137 CURVE SMOOTH",
"125 196 OFFCURVE",
"168 237 OFFCURVE",
"244 245 CURVE SMOOTH",
"319 253 OFFCURVE",
"364 251 OFFCURVE",
"382 250 CURVE",
"383 179 LINE",
"376 111 OFFCURVE",
"304 55 OFFCURVE",
"234 55 CURVE SMOOTH"
);
},
{
closed = 1;
nodes = (
"383 190 LINE",
"383 187 LINE"
);
}
);
width = 552;
}
);
note = adieresis;
unicode = 00E4;
},
{
glyphname = agrave;
layers = (
{
hints = (
{
horizontal = 1;
place = "{-13, 68}";
type = Stem;
},
{
horizontal = 1;
place = "{245, 60}";
type = Stem;
},
{
horizontal = 1;
place = "{460, 71}";
type = Stem;
},
{
horizontal = 1;
place = "{617, 99}";
type = Stem;
},
{
place = "{43, 82}";
type = Stem;
},
{
place = "{382, 76}";
type = Stem;
},
{
horizontal = 1;
place = "{0, 70}";
type = Stem;
},
{
place = "{383, 75}";
type = Stem;
}
);
layerId = "5B3AE2B2-6F0E-4414-97DF-6676E601E692";
paths = (
{
closed = 1;
nodes = (
"275 617 LINE",
"366 617 LINE",
"332 650 LINE SMOOTH",
"298 683 OFFCURVE",
"258 716 OFFCURVE",
"258 716 CURVE SMOOTH",
"178 716 LINE SMOOTH",
"178 716 OFFCURVE",
"207 683 OFFCURVE",
"242 650 CURVE SMOOTH"
);
},
{
closed = 1;
nodes = (
"458 364 LINE SMOOTH",
"458 461 OFFCURVE",
"387 531 OFFCURVE",
"257 531 CURVE SMOOTH",
"147 531 OFFCURVE",
"69 457 OFFCURVE",
"59 368 CURVE",
"143 368 LINE",
"149 432 OFFCURVE",
"199 460 OFFCURVE",
"268 460 CURVE SMOOTH",
"334 460 OFFCURVE",
"382 429 OFFCURVE",
"382 338 CURVE SMOOTH",
"382 304 LINE",
"376 305 OFFCURVE",
"303 313 OFFCURVE",
"234 305 CURVE SMOOTH",
"167 297 OFFCURVE",
"43 269 OFFCURVE",
"43 142 CURVE SMOOTH",
"43 49 OFFCURVE",
"131 -13 OFFCURVE",
"208 -13 CURVE SMOOTH",
"334 -13 OFFCURVE",
"368 50 OFFCURVE",
"383 69 CURVE",
"389 23 OFFCURVE",
"415 0 OFFCURVE",
"474 0 CURVE SMOOTH",
"504 0 OFFCURVE",
"517 6 OFFCURVE",
"517 6 CURVE",
"517 73 LINE",
"476 63 OFFCURVE",
"458 77 OFFCURVE",
"458 121 CURVE SMOOTH"
);
},
{
closed = 1;
nodes = (
"182 55 OFFCURVE",
"125 83 OFFCURVE",
"125 137 CURVE SMOOTH",
"125 196 OFFCURVE",
"168 237 OFFCURVE",
"244 245 CURVE SMOOTH",
"319 253 OFFCURVE",
"364 251 OFFCURVE",
"382 250 CURVE",
"383 179 LINE",
"376 111 OFFCURVE",
"304 55 OFFCURVE",
"234 55 CURVE SMOOTH"
);
},
{
closed = 1;
nodes = (
"383 190 LINE",
"383 187 LINE"
);
}
);
width = 552;
}
);
note = agrave;
unicode = 00E0;
},
{
glyphname = aring;
layers = (
{
hints = (
{
horizontal = 1;
place = "{-13, 68}";
type = Stem;
},
{
horizontal = 1;
place = "{245, 60}";
type = Stem;
},
{
horizontal = 1;
place = "{460, 71}";
type = Stem;
},
{
horizontal = 1;
place = "{596, 36}";
type = Stem;
},
{
horizontal = 1;
place = "{680, 36}";
type = Stem;
},
{
place = "{43, 82}";
type = Stem;
},
{
place = "{204, 38}";
type = Stem;
},
{
place = "{290, 38}";
type = Stem;
},
{
place = "{382, 76}";
type = Stem;
},
{
horizontal = 1;
place = "{0, 70}";
type = Stem;
},
{
place = "{383, 75}";
type = Stem;
}
);
layerId = "5B3AE2B2-6F0E-4414-97DF-6676E601E692";
paths = (
{
closed = 1;
nodes = (
"301 596 OFFCURVE",
"328 622 OFFCURVE",
"328 656 CURVE SMOOTH",
"328 690 OFFCURVE",
"301 716 OFFCURVE",
"266 716 CURVE SMOOTH",
"231 716 OFFCURVE",
"204 690 OFFCURVE",
"204 656 CURVE SMOOTH",
"204 622 OFFCURVE",
"231 596 OFFCURVE",
"266 596 CURVE SMOOTH"
);
},
{
closed = 1;
nodes = (
"280 680 OFFCURVE",
"290 670 OFFCURVE",
"290 656 CURVE SMOOTH",
"290 643 OFFCURVE",
"280 632 OFFCURVE",
"266 632 CURVE SMOOTH",
"252 632 OFFCURVE",
"242 643 OFFCURVE",
"242 656 CURVE SMOOTH",
"242 670 OFFCURVE",
"252 680 OFFCURVE",
"266 680 CURVE SMOOTH"
);
},
{
closed = 1;
nodes = (
"458 364 LINE SMOOTH",
"458 461 OFFCURVE",
"387 531 OFFCURVE",
"257 531 CURVE SMOOTH",
"147 531 OFFCURVE",
"69 457 OFFCURVE",
"59 368 CURVE",
"143 368 LINE",
"149 432 OFFCURVE",
"199 460 OFFCURVE",
"268 460 CURVE SMOOTH",
"334 460 OFFCURVE",
"382 429 OFFCURVE",
"382 338 CURVE SMOOTH",
"382 304 LINE",
"376 305 OFFCURVE",
"303 313 OFFCURVE",
"234 305 CURVE SMOOTH",
"167 297 OFFCURVE",
"43 269 OFFCURVE",
"43 142 CURVE SMOOTH",
"43 49 OFFCURVE",
"131 -13 OFFCURVE",
"208 -13 CURVE SMOOTH",
"334 -13 OFFCURVE",
"368 50 OFFCURVE",
"383 69 CURVE",
"389 23 OFFCURVE",
"415 0 OFFCURVE",
"474 0 CURVE SMOOTH",
"504 0 OFFCURVE",
"517 6 OFFCURVE",
"517 6 CURVE",
"517 73 LINE",
"476 63 OFFCURVE",
"458 77 OFFCURVE",
"458 121 CURVE SMOOTH"
);
},
{
closed = 1;
nodes = (
"182 55 OFFCURVE",
"125 83 OFFCURVE",
"125 137 CURVE SMOOTH",
"125 196 OFFCURVE",
"168 237 OFFCURVE",
"244 245 CURVE SMOOTH",
"319 253 OFFCURVE",
"364 251 OFFCURVE",
"382 250 CURVE",
"383 179 LINE",
"376 111 OFFCURVE",
"304 55 OFFCURVE",
"234 55 CURVE SMOOTH"
);
},
{
closed = 1;
nodes = (
"383 190 LINE",
"383 187 LINE"
);
}
);
width = 552;
}
);
note = aring;
unicode = 00E5;
},
{
glyphname = atilde;
layers = (
{
hints = (
{
horizontal = 1;
place = "{0, 70}";
type = Stem;
},
{
horizontal = 1;
place = "{245, 60}";
type = Stem;
},
{
horizontal = 1;
place = "{460, 71}";
type = Stem;
},
{
place = "{43, 82}";
type = Stem;
},
{
place = "{382, 76}";
type = Stem;
},
{
horizontal = 1;
place = "{-13, 68}";
type = Stem;
},
{
place = "{383, 75}";
type = Stem;
}
);
layerId = "5B3AE2B2-6F0E-4414-97DF-6676E601E692";
paths = (
{
closed = 1;
nodes = (
"458 364 LINE SMOOTH",
"458 461 OFFCURVE",
"387 531 OFFCURVE",
"257 531 CURVE SMOOTH",
"147 531 OFFCURVE",
"69 457 OFFCURVE",
"59 368 CURVE",
"143 368 LINE",
"149 432 OFFCURVE",
"199 460 OFFCURVE",
"268 460 CURVE SMOOTH",
"334 460 OFFCURVE",
"382 429 OFFCURVE",
"382 338 CURVE SMOOTH",
"382 304 LINE",
"376 305 OFFCURVE",
"303 313 OFFCURVE",
"234 305 CURVE SMOOTH",
"167 297 OFFCURVE",
"43 269 OFFCURVE",
"43 142 CURVE SMOOTH",
"43 49 OFFCURVE",
"131 -13 OFFCURVE",
"208 -13 CURVE SMOOTH",
"334 -13 OFFCURVE",
"368 50 OFFCURVE",
"383 69 CURVE",
"389 23 OFFCURVE",
"415 0 OFFCURVE",
"474 0 CURVE SMOOTH",
"504 0 OFFCURVE",
"517 6 OFFCURVE",
"517 6 CURVE",
"517 73 LINE",
"476 63 OFFCURVE",
"458 77 OFFCURVE",
"458 121 CURVE SMOOTH"
);
},
{
closed = 1;
nodes = (
"182 55 OFFCURVE",
"125 83 OFFCURVE",
"125 137 CURVE SMOOTH",
"125 196 OFFCURVE",
"168 237 OFFCURVE",
"244 245 CURVE SMOOTH",
"319 253 OFFCURVE",
"364 251 OFFCURVE",
"382 250 CURVE",
"383 179 LINE",
"376 111 OFFCURVE",
"304 55 OFFCURVE",
"234 55 CURVE SMOOTH"
);
},
{
closed = 1;
nodes = (
"383 190 LINE",
"383 187 LINE"
);
}
);
width = 552;
}
);
note = atilde;
unicode = 00E3;
},
{
glyphname = ae;
layers = (
{
hints = (
{
horizontal = 1;
place = "{-14, 67}";
type = Stem;
},
{
horizontal = 1;
place = "{245, 65}";
type = Stem;
},
{
horizontal = 1;
place = "{464, 66}";
type = Stem;
},
{
place = "{43, 83}";
type = Stem;
},
{
place = "{383, 89}";
type = Stem;
},
{
place = "{789, 83}";
type = Stem;
},
{
horizontal = 1;
place = "{-15, 64}";
type = Stem;
},
{
horizontal = 1;
place = "{469, 61}";
type = Stem;
}
);
layerId = "5B3AE2B2-6F0E-4414-97DF-6676E601E692";
paths = (
{
closed = 1;
nodes = (
"872 258 LINE SMOOTH",
"872 408 OFFCURVE",
"798 530 OFFCURVE",
"641 530 CURVE SMOOTH",
"558 530 OFFCURVE",
"492 494 OFFCURVE",
"448 438 CURVE",
"425 495 OFFCURVE",
"359 530 OFFCURVE",
"257 530 CURVE SMOOTH",
"147 530 OFFCURVE",
"71 472 OFFCURVE",
"59 367 CURVE",
"141 367 LINE",
"149 440 OFFCURVE",
"199 469 OFFCURVE",
"268 469 CURVE SMOOTH",
"334 469 OFFCURVE",
"381 434 OFFCURVE",
"381 391 CURVE SMOOTH",
"381 338 OFFCURVE",
"327 324 OFFCURVE",
"234 301 CURVE SMOOTH",
"125 277 OFFCURVE",
"43 254 OFFCURVE",
"43 144 CURVE SMOOTH",
"43 51 OFFCURVE",
"130 -15 OFFCURVE",
"222 -15 CURVE SMOOTH",
"295 -15 OFFCURVE",
"394 17 OFFCURVE",
"410 147 CURVE",
"446 52 OFFCURVE",
"528 -14 OFFCURVE",
"641 -14 CURVE SMOOTH",
"763 -14 OFFCURVE",
"836 62 OFFCURVE",
"861 155 CURVE",
"780 155 LINE",
"764 105 OFFCURVE",
"720 53 OFFCURVE",
"641 53 CURVE SMOOTH",
"531 53 OFFCURVE",
"477 142 OFFCURVE",
"472 247 CURVE",
"492 246 OFFCURVE",
"538 245 OFFCURVE",
"579 245 CURVE SMOOTH",
"872 245 LINE"
);
},
{
closed = 1;
nodes = (
"729 464 OFFCURVE",
"779 395 OFFCURVE",
"789 310 CURVE",
"579 310 LINE SMOOTH",
"540 310 OFFCURVE",
"497 309 OFFCURVE",
"476 308 CURVE",
"490 394 OFFCURVE",
"531 464 OFFCURVE",
"642 464 CURVE SMOOTH"
);
},
{
closed = 1;
nodes = (
"383 226 LINE SMOOTH",
"383 120 OFFCURVE",
"316 49 OFFCURVE",
"244 49 CURVE SMOOTH",
"174 49 OFFCURVE",
"126 85 OFFCURVE",
"126 139 CURVE SMOOTH",
"126 181 OFFCURVE",
"149 214 OFFCURVE",
"261 238 CURVE SMOOTH",
"306 248 OFFCURVE",
"349 258 OFFCURVE",
"383 274 CURVE"
);
}
);
width = 915;
}
);
note = ae;
unicode = 00E6;
},
{
glyphname = b;
layers = (
{
hints = (
{
horizontal = 1;
place = "{-15, 70}";
type = Stem;
},
{
horizontal = 1;
place = "{461, 69}";
type = Stem;
},
{
horizontal = 1;
place = "{717, -20}";
target = down;
type = TopGhost;
},
{
place = "{77, 81}";
type = Stem;
},
{
place = "{460, 83}";
type = Stem;
},
{
horizontal = 1;
place = "{0, 21}";
target = up;
type = BottomGhost;
}
);
layerId = "5B3AE2B2-6F0E-4414-97DF-6676E601E692";
paths = (
{
closed = 1;
nodes = (
"445 -15 OFFCURVE",
"543 87 OFFCURVE",
"543 258 CURVE SMOOTH",
"543 428 OFFCURVE",
"446 530 OFFCURVE",
"335 530 CURVE SMOOTH",
"246 530 OFFCURVE",
"180 481 OFFCURVE",
"158 435 CURVE",
"158 717 LINE",
"77 717 LINE",
"77 0 LINE",
"158 0 LINE",
"158 80 LINE",
"180 34 OFFCURVE",
"246 -15 OFFCURVE",
"335 -15 CURVE SMOOTH"
);
},
{
closed = 1;
nodes = (
"158 371 OFFCURVE",
"211 461 OFFCURVE",
"310 461 CURVE SMOOTH",
"388 461 OFFCURVE",
"460 391 OFFCURVE",
"460 257 CURVE SMOOTH",
"460 125 OFFCURVE",
"389 55 OFFCURVE",
"310 55 CURVE SMOOTH",
"211 55 OFFCURVE",
"158 145 OFFCURVE",
"158 257 CURVE SMOOTH"
);
}
);
width = 586;
}
);
note = b;
unicode = 0062;
},
{
glyphname = c;
layers = (
{
hints = (
{
horizontal = 1;
place = "{-16, 72}";
type = Stem;
},
{
horizontal = 1;
place = "{457, 71}";
type = Stem;
},
{
place = "{43, 83}";
type = Stem;
}
);
layerId = "5B3AE2B2-6F0E-4414-97DF-6676E601E692";
paths = (
{
closed = 1;
nodes = (
"418 -16 OFFCURVE",
"496 63 OFFCURVE",
"516 165 CURVE",
"435 165 LINE",
"420 108 OFFCURVE",
"367 56 OFFCURVE",
"293 56 CURVE SMOOTH",
"187 56 OFFCURVE",
"126 149 OFFCURVE",
"126 255 CURVE SMOOTH",
"126 365 OFFCURVE",
"186 457 OFFCURVE",
"294 457 CURVE SMOOTH",
"367 457 OFFCURVE",
"419 404 OFFCURVE",
"434 348 CURVE",
"517 348 LINE",
"497 449 OFFCURVE",
"419 528 OFFCURVE",
"293 528 CURVE SMOOTH",
"139 528 OFFCURVE",
"43 406 OFFCURVE",
"43 256 CURVE SMOOTH",
"43 106 OFFCURVE",
"139 -16 OFFCURVE",
"293 -16 CURVE SMOOTH"
);
}
);
width = 554;
}
);
leftKerningGroup = c;
note = c;
unicode = 0063;
},
{
glyphname = ccedilla;
layers = (
{
hints = (
{
horizontal = 1;
place = "{-16, 72}";
type = Stem;
},
{
horizontal = 1;
place = "{457, 71}";
type = Stem;
},
{
place = "{43, 83}";
type = Stem;
}
);
layerId = "5B3AE2B2-6F0E-4414-97DF-6676E601E692";
paths = (
{
closed = 1;
nodes = (
"418 -16 OFFCURVE",
"496 63 OFFCURVE",
"516 165 CURVE",
"435 165 LINE",
"420 108 OFFCURVE",
"367 56 OFFCURVE",
"293 56 CURVE SMOOTH",
"187 56 OFFCURVE",
"126 149 OFFCURVE",
"126 255 CURVE SMOOTH",
"126 365 OFFCURVE",
"186 457 OFFCURVE",
"294 457 CURVE SMOOTH",
"367 457 OFFCURVE",
"419 404 OFFCURVE",
"434 348 CURVE",
"517 348 LINE",
"497 449 OFFCURVE",
"419 528 OFFCURVE",
"293 528 CURVE SMOOTH",
"139 528 OFFCURVE",
"43 406 OFFCURVE",
"43 256 CURVE SMOOTH",
"43 106 OFFCURVE",
"139 -16 OFFCURVE",
"293 -16 CURVE SMOOTH"
);
}
);
width = 554;
}
);
note = ccedilla;
unicode = 00E7;
},
{
glyphname = d;
layers = (
{
hints = (
{
horizontal = 1;
place = "{-15, 70}";
type = Stem;
},
{
horizontal = 1;
place = "{461, 69}";
type = Stem;
},
{
horizontal = 1;
place = "{717, -20}";
target = down;
type = TopGhost;
},
{
place = "{43, 83}";
type = Stem;
},
{
place = "{428, 81}";
type = Stem;
},
{
horizontal = 1;
place = "{0, 21}";
target = up;
type = BottomGhost;
}
);
layerId = "5B3AE2B2-6F0E-4414-97DF-6676E601E692";
paths = (
{
closed = 1;
nodes = (
"340 -15 OFFCURVE",
"406 34 OFFCURVE",
"428 80 CURVE",
"428 0 LINE",
"509 0 LINE",
"509 717 LINE",
"428 717 LINE",
"428 435 LINE",
"406 481 OFFCURVE",
"340 530 OFFCURVE",
"251 530 CURVE SMOOTH",
"140 530 OFFCURVE",
"43 428 OFFCURVE",
"43 258 CURVE SMOOTH",
"43 87 OFFCURVE",
"141 -15 OFFCURVE",
"251 -15 CURVE SMOOTH"
);
},
{
closed = 1;
nodes = (
"126 391 OFFCURVE",
"198 461 OFFCURVE",
"276 461 CURVE SMOOTH",
"375 461 OFFCURVE",
"428 371 OFFCURVE",
"428 257 CURVE SMOOTH",
"428 145 OFFCURVE",
"375 55 OFFCURVE",
"276 55 CURVE SMOOTH",
"197 55 OFFCURVE",
"126 125 OFFCURVE",
"126 257 CURVE SMOOTH"
);
}
);
width = 586;
}
);
leftKerningGroup = d;
note = d;
unicode = 0064;
},
{
glyphname = e;
layers = (
{
hints = (
{
horizontal = 1;
place = "{-14, 67}";
type = Stem;
},
{
horizontal = 1;
place = "{245, 65}";
type = Stem;
},
{
horizontal = 1;
place = "{464, 66}";
type = Stem;
},
{
place = "{43, 81}";
type = Stem;
},
{
place = "{441, 83}";
type = Stem;
}
);
layerId = "5B3AE2B2-6F0E-4414-97DF-6676E601E692";
paths = (
{
closed = 1;
nodes = (
"415 -14 OFFCURVE",
"488 62 OFFCURVE",
"513 155 CURVE",
"432 155 LINE",
"416 105 OFFCURVE",
"372 53 OFFCURVE",
"293 53 CURVE SMOOTH",
"183 53 OFFCURVE",
"129 142 OFFCURVE",
"124 247 CURVE",
"144 246 OFFCURVE",
"190 245 OFFCURVE",
"231 245 CURVE SMOOTH",
"524 245 LINE",
"524 258 LINE SMOOTH",
"524 408 OFFCURVE",
"450 530 OFFCURVE",
"293 530 CURVE SMOOTH",
"139 530 OFFCURVE",
"43 408 OFFCURVE",
"43 258 CURVE SMOOTH",
"43 108 OFFCURVE",
"139 -14 OFFCURVE",
"293 -14 CURVE SMOOTH"
);
},
{
closed = 1;
nodes = (
"142 394 OFFCURVE",
"183 464 OFFCURVE",
"294 464 CURVE SMOOTH",
"381 464 OFFCURVE",
"431 395 OFFCURVE",
"441 310 CURVE",
"231 310 LINE SMOOTH",
"192 310 OFFCURVE",
"149 309 OFFCURVE",
"128 308 CURVE"
);
}
);
width = 567;
}
);
leftKerningGroup = e;
note = e;
unicode = 0065;
},
{
glyphname = eacute;
layers = (
{
hints = (
{
horizontal = 1;
place = "{-14, 67}";
type = Stem;
},
{
horizontal = 1;
place = "{245, 65}";
type = Stem;
},
{
horizontal = 1;
place = "{464, 66}";
type = Stem;
},
{
horizontal = 1;
place = "{617, 99}";
type = Stem;
},
{
place = "{43, 81}";
type = Stem;
},
{
place = "{441, 83}";
type = Stem;
}
);
layerId = "5B3AE2B2-6F0E-4414-97DF-6676E601E692";
paths = (
{
closed = 1;
nodes = (
"288 650 LINE SMOOTH",
"323 683 OFFCURVE",
"352 716 OFFCURVE",
"352 716 CURVE SMOOTH",
"272 716 LINE SMOOTH",
"272 716 OFFCURVE",
"232 683 OFFCURVE",
"198 650 CURVE SMOOTH",
"164 617 LINE",
"255 617 LINE"
);
},
{
closed = 1;
nodes = (
"415 -14 OFFCURVE",
"488 62 OFFCURVE",
"513 155 CURVE",
"432 155 LINE",
"416 105 OFFCURVE",
"372 53 OFFCURVE",
"293 53 CURVE SMOOTH",
"183 53 OFFCURVE",
"129 142 OFFCURVE",
"124 247 CURVE",
"144 246 OFFCURVE",
"190 245 OFFCURVE",
"231 245 CURVE SMOOTH",
"524 245 LINE",
"524 258 LINE SMOOTH",
"524 408 OFFCURVE",
"450 530 OFFCURVE",
"293 530 CURVE SMOOTH",
"139 530 OFFCURVE",
"43 408 OFFCURVE",
"43 258 CURVE SMOOTH",
"43 108 OFFCURVE",
"139 -14 OFFCURVE",
"293 -14 CURVE SMOOTH"
);
},
{
closed = 1;
nodes = (
"142 394 OFFCURVE",
"183 464 OFFCURVE",
"294 464 CURVE SMOOTH",
"381 464 OFFCURVE",
"431 395 OFFCURVE",
"441 310 CURVE",
"231 310 LINE SMOOTH",
"192 310 OFFCURVE",
"149 309 OFFCURVE",
"128 308 CURVE"
);
}
);
width = 567;
}
);
note = eacute;
unicode = 00E9;
},
{
glyphname = ecircumflex;
layers = (
{
hints = (
{
horizontal = 1;
place = "{-14, 67}";
type = Stem;
},
{
horizontal = 1;
place = "{245, 65}";
type = Stem;
},
{
horizontal = 1;
place = "{464, 66}";
type = Stem;
},
{
horizontal = 1;
place = "{617, 99}";
type = Stem;
},
{
place = "{43, 81}";
type = Stem;
},
{
horizontal = 1;
place = "{682, 34}";
type = Stem;
},
{
place = "{441, 83}";
type = Stem;
}
);
layerId = "5B3AE2B2-6F0E-4414-97DF-6676E601E692";
paths = (
{
closed = 1;
nodes = (
"299 617 LINE",
"362 617 LINE",
"299 716 LINE",
"216 716 LINE",
"154 617 LINE",
"216 617 LINE",
"258 682 LINE"
);
},
{
closed = 1;
nodes = (
"524 258 LINE SMOOTH",
"524 408 OFFCURVE",
"450 530 OFFCURVE",
"293 530 CURVE SMOOTH",
"139 530 OFFCURVE",
"43 408 OFFCURVE",
"43 258 CURVE SMOOTH",
"43 108 OFFCURVE",
"139 -14 OFFCURVE",
"293 -14 CURVE SMOOTH",
"415 -14 OFFCURVE",
"488 62 OFFCURVE",
"513 155 CURVE",
"432 155 LINE",
"416 105 OFFCURVE",
"372 53 OFFCURVE",
"293 53 CURVE SMOOTH",
"183 53 OFFCURVE",
"129 142 OFFCURVE",
"124 247 CURVE",
"144 246 OFFCURVE",
"190 245 OFFCURVE",
"231 245 CURVE SMOOTH",
"524 245 LINE"
);
},
{
closed = 1;
nodes = (
"381 464 OFFCURVE",
"431 395 OFFCURVE",
"441 310 CURVE",
"231 310 LINE SMOOTH",
"192 310 OFFCURVE",
"149 309 OFFCURVE",
"128 308 CURVE",
"142 394 OFFCURVE",
"183 464 OFFCURVE",
"294 464 CURVE SMOOTH"
);
}
);
width = 567;
}
);
note = ecircumflex;
unicode = 00EA;
},
{
glyphname = edieresis;
layers = (
{
hints = (
{
horizontal = 1;
place = "{-14, 67}";
type = Stem;
},
{
horizontal = 1;
place = "{245, 65}";
type = Stem;
},
{
horizontal = 1;
place = "{464, 66}";
type = Stem;
},
{
horizontal = 1;
place = "{630, 102}";
type = Stem;
},
{
place = "{117, 104}";
type = Stem;
},
{
place = "{311, 104}";
type = Stem;
},
{
place = "{43, 81}";
type = Stem;
},
{
place = "{441, 83}";
type = Stem;
}
);
layerId = "5B3AE2B2-6F0E-4414-97DF-6676E601E692";
paths = (
{
closed = 1;
nodes = (
"117 652 OFFCURVE",
"139 630 OFFCURVE",
"169 630 CURVE SMOOTH",
"199 630 OFFCURVE",
"221 652 OFFCURVE",
"221 681 CURVE SMOOTH",
"221 710 OFFCURVE",
"199 732 OFFCURVE",
"169 732 CURVE SMOOTH",
"139 732 OFFCURVE",
"117 710 OFFCURVE",
"117 681 CURVE SMOOTH"
);
},
{
closed = 1;
nodes = (
"311 652 OFFCURVE",
"333 630 OFFCURVE",
"363 630 CURVE SMOOTH",
"393 630 OFFCURVE",
"415 652 OFFCURVE",
"415 681 CURVE SMOOTH",
"415 710 OFFCURVE",
"393 732 OFFCURVE",
"363 732 CURVE SMOOTH",
"333 732 OFFCURVE",
"311 710 OFFCURVE",
"311 681 CURVE SMOOTH"
);
},
{
closed = 1;
nodes = (
"415 -14 OFFCURVE",
"488 62 OFFCURVE",
"513 155 CURVE",
"432 155 LINE",
"416 105 OFFCURVE",
"372 53 OFFCURVE",
"293 53 CURVE SMOOTH",
"183 53 OFFCURVE",
"129 142 OFFCURVE",
"124 247 CURVE",
"144 246 OFFCURVE",
"190 245 OFFCURVE",
"231 245 CURVE SMOOTH",
"524 245 LINE",
"524 258 LINE SMOOTH",
"524 408 OFFCURVE",
"450 530 OFFCURVE",
"293 530 CURVE SMOOTH",
"139 530 OFFCURVE",
"43 408 OFFCURVE",
"43 258 CURVE SMOOTH",
"43 108 OFFCURVE",
"139 -14 OFFCURVE",
"293 -14 CURVE SMOOTH"
);
},
{
closed = 1;
nodes = (
"142 394 OFFCURVE",
"183 464 OFFCURVE",
"294 464 CURVE SMOOTH",
"381 464 OFFCURVE",
"431 395 OFFCURVE",
"441 310 CURVE",
"231 310 LINE SMOOTH",
"192 310 OFFCURVE",
"149 309 OFFCURVE",
"128 308 CURVE"
);
}
);
width = 567;
}
);
note = edieresis;
unicode = 00EB;
},
{
glyphname = egrave;
layers = (
{
hints = (
{
horizontal = 1;
place = "{-14, 67}";
type = Stem;
},
{
horizontal = 1;
place = "{245, 65}";
type = Stem;
},
{
horizontal = 1;
place = "{464, 66}";
type = Stem;
},
{
horizontal = 1;
place = "{617, 99}";
type = Stem;
},
{
place = "{43, 81}";
type = Stem;
},
{
place = "{441, 83}";
type = Stem;
}
);
layerId = "5B3AE2B2-6F0E-4414-97DF-6676E601E692";
paths = (
{
closed = 1;
nodes = (
"373 617 LINE",
"339 650 LINE SMOOTH",
"305 683 OFFCURVE",
"265 716 OFFCURVE",
"265 716 CURVE SMOOTH",
"185 716 LINE SMOOTH",
"185 716 OFFCURVE",
"214 683 OFFCURVE",
"249 650 CURVE SMOOTH",
"282 617 LINE"
);
},
{
closed = 1;
nodes = (
"415 -14 OFFCURVE",
"488 62 OFFCURVE",
"513 155 CURVE",
"432 155 LINE",
"416 105 OFFCURVE",
"372 53 OFFCURVE",
"293 53 CURVE SMOOTH",
"183 53 OFFCURVE",
"129 142 OFFCURVE",
"124 247 CURVE",
"144 246 OFFCURVE",
"190 245 OFFCURVE",
"231 245 CURVE SMOOTH",
"524 245 LINE",
"524 258 LINE SMOOTH",
"524 408 OFFCURVE",
"450 530 OFFCURVE",
"293 530 CURVE SMOOTH",
"139 530 OFFCURVE",
"43 408 OFFCURVE",
"43 258 CURVE SMOOTH",
"43 108 OFFCURVE",
"139 -14 OFFCURVE",
"293 -14 CURVE SMOOTH"
);
},
{
closed = 1;
nodes = (
"142 394 OFFCURVE",
"183 464 OFFCURVE",
"294 464 CURVE SMOOTH",
"381 464 OFFCURVE",
"431 395 OFFCURVE",
"441 310 CURVE",
"231 310 LINE SMOOTH",
"192 310 OFFCURVE",
"149 309 OFFCURVE",
"128 308 CURVE"
);
}
);
width = 567;
}
);
note = egrave;
unicode = 00E8;
},
{
glyphname = f;
layers = (
{
hints = (
{
horizontal = 1;
place = "{0, 21}";
target = up;
type = BottomGhost;
},
{
horizontal = 1;
place = "{450, 67}";
type = Stem;
},
{
horizontal = 1;
place = "{650, 66}";
type = Stem;
},
{
place = "{122, 81}";
type = Stem;
},
{
place = "{202, 112}";
type = Stem;
}
);
layerId = "5B3AE2B2-6F0E-4414-97DF-6676E601E692";
paths = (
{
closed = 1;
nodes = (
"203 0 LINE",
"203 362 LINE SMOOTH",
"203 391 OFFCURVE",
"202 451 OFFCURVE",
"202 451 CURVE SMOOTH",
"202 451 OFFCURVE",
"230 450 OFFCURVE",
"245 450 CURVE SMOOTH",
"314 450 LINE",
"314 517 LINE",
"245 517 LINE SMOOTH",
"230 517 OFFCURVE",
"202 516 OFFCURVE",
"202 516 CURVE",
"203 579 LINE SMOOTH",
"204 659 OFFCURVE",
"275 655 OFFCURVE",
"312 645 CURVE",
"312 712 LINE",
"312 712 OFFCURVE",
"271 719 OFFCURVE",
"237 716 CURVE SMOOTH",
"158 710 OFFCURVE",
"122 655 OFFCURVE",
"122 592 CURVE SMOOTH",
"122 567 OFFCURVE",
"123 516 OFFCURVE",
"123 516 CURVE SMOOTH",
"123 516 OFFCURVE",
"93 517 OFFCURVE",
"78 517 CURVE SMOOTH",
"30 517 LINE",
"30 450 LINE",
"78 450 LINE SMOOTH",
"93 450 OFFCURVE",
"123 451 OFFCURVE",
"123 451 CURVE SMOOTH",
"123 451 OFFCURVE",
"122 392 OFFCURVE",
"122 362 CURVE SMOOTH",
"122 0 LINE"
);
}
);
width = 349;
}
);
note = f;
unicode = 0066;
},
{
glyphname = g;
layers = (
{
hints = (
{
horizontal = 1;
place = "{-181, 71}";
type = Stem;
},
{
horizontal = 1;
place = "{205, 59}";
type = Stem;
},
{
horizontal = 1;
place = "{460, 71}";
type = Stem;
},
{
place = "{91, 71}";
type = Stem;
},
{
place = "{440, 81}";
type = Stem;
},
{
horizontal = 1;
place = "{193, 71}";
type = Stem;
},
{
place = "{82, 81}";
type = Stem;
},
{
place = "{386, 81}";
type = Stem;
},
{
place = "{50, 81}";
type = Stem;
}
);
layerId = "5B3AE2B2-6F0E-4414-97DF-6676E601E692";
paths = (
{
closed = 1;
nodes = (
"181 122 OFFCURVE",
"162 143 OFFCURVE",
"162 166 CURVE SMOOTH",
"162 188 OFFCURVE",
"176 203 OFFCURVE",
"206 205 CURVE",
"228 197 OFFCURVE",
"252 193 OFFCURVE",
"274 193 CURVE SMOOTH",
"373 193 OFFCURVE",
"467 258 OFFCURVE",
"467 363 CURVE SMOOTH",
"467 403 OFFCURVE",
"452 438 OFFCURVE",
"429 465 CURVE",
"448 485 OFFCURVE",
"480 496 OFFCURVE",
"500 493 CURVE",
"500 558 LINE",
"500 558 OFFCURVE",
"497 562 OFFCURVE",
"467 562 CURVE SMOOTH",
"428 562 OFFCURVE",
"399 535 OFFCURVE",
"382 503 CURVE",
"350 521 OFFCURVE",
"312 531 OFFCURVE",
"274 531 CURVE SMOOTH",
"174 531 OFFCURVE",
"82 465 OFFCURVE",
"82 363 CURVE SMOOTH",
"82 311 OFFCURVE",
"108 268 OFFCURVE",
"145 238 CURVE",
"109 225 OFFCURVE",
"91 199 OFFCURVE",
"91 166 CURVE SMOOTH",
"91 145 OFFCURVE",
"99 121 OFFCURVE",
"120 101 CURVE",
"76 79 OFFCURVE",
"50 39 OFFCURVE",
"50 -27 CURVE SMOOTH",
"50 -136 OFFCURVE",
"157 -181 OFFCURVE",
"288 -181 CURVE SMOOTH",
"419 -181 OFFCURVE",
"520 -136 OFFCURVE",
"521 -27 CURVE SMOOTH",
"521 89 OFFCURVE",
"421 129 OFFCURVE",
"283 125 CURVE SMOOTH"
);
},
{
closed = 1;
nodes = (
"342 460 OFFCURVE",
"386 429 OFFCURVE",
"386 362 CURVE SMOOTH",
"386 293 OFFCURVE",
"342 264 OFFCURVE",
"275 264 CURVE SMOOTH",
"207 265 OFFCURVE",
"164 295 OFFCURVE",
"163 362 CURVE",
"163 428 OFFCURVE",
"208 460 OFFCURVE",
"275 460 CURVE SMOOTH"
);
},
{
closed = 1;
nodes = (
"195 -110 OFFCURVE",
"132 -80 OFFCURVE",
"131 -27 CURVE",
"131 18 OFFCURVE",
"154 54 OFFCURVE",
"286 54 CURVE SMOOTH",
"404 54 OFFCURVE",
"440 18 OFFCURVE",
"440 -27 CURVE SMOOTH",
"440 -78 OFFCURVE",
"386 -110 OFFCURVE",
"289 -110 CURVE SMOOTH"
);
}
);
width = 556;
}
);
leftKerningGroup = g;
note = g;
unicode = 0067;
},
{
glyphname = h;
layers = (
{
hints = (
{
horizontal = 1;
place = "{0, 21}";
target = up;
type = BottomGhost;
},
{
horizontal = 1;
place = "{461, 70}";
type = Stem;
},
{
horizontal = 1;
place = "{716, -20}";
target = down;
type = TopGhost;
},
{
place = "{77, 81}";
type = Stem;
},
{
place = "{417, 81}";
type = Stem;
}
);
layerId = "5B3AE2B2-6F0E-4414-97DF-6676E601E692";
paths = (
{
closed = 1;
nodes = (
"158 333 LINE SMOOTH",
"158 389 OFFCURVE",
"216 461 OFFCURVE",
"309 461 CURVE SMOOTH",
"379 461 OFFCURVE",
"417 425 OFFCURVE",
"417 338 CURVE SMOOTH",
"417 0 LINE",
"498 0 LINE",
"498 374 LINE SMOOTH",
"498 471 OFFCURVE",
"427 531 OFFCURVE",
"334 531 CURVE SMOOTH",
"246 531 OFFCURVE",
"179 479 OFFCURVE",
"158 445 CURVE",
"158 716 LINE",
"77 716 LINE",
"77 0 LINE",
"158 0 LINE"
);
}
);
width = 575;
}
);
note = h;
unicode = 0068;
},
{
glyphname = i;
layers = (
{
hints = (
{
place = "{55, 81}";
type = Stem;
}
);
layerId = "5B3AE2B2-6F0E-4414-97DF-6676E601E692";
paths = (
{
closed = 1;
nodes = (
"77 640 OFFCURVE",
"99 618 OFFCURVE",
"129 618 CURVE SMOOTH",
"159 618 OFFCURVE",
"181 640 OFFCURVE",
"181 669 CURVE SMOOTH",
"181 698 OFFCURVE",
"159 720 OFFCURVE",
"129 720 CURVE SMOOTH",
"99 720 OFFCURVE",
"77 698 OFFCURVE",
"77 669 CURVE SMOOTH"
);
},
{
closed = 1;
nodes = (
"170 0 LINE",
"170 517 LINE",
"89 517 LINE",
"89 0 LINE"
);
}
);
width = 258;
}
);
note = i;
unicode = 0069;
},
{
glyphname = iacute;
layers = (
{
hints = (
{
horizontal = 1;
place = "{0, 21}";
target = up;
type = BottomGhost;
},
{
horizontal = 1;
place = "{517, -20}";
target = down;
type = TopGhost;
},
{
horizontal = 1;
place = "{617, 99}";
type = Stem;
},
{
place = "{140, 81}";
type = Stem;
}
);
layerId = "5B3AE2B2-6F0E-4414-97DF-6676E601E692";
paths = (
{
closed = 1;
nodes = (
"201 650 LINE SMOOTH",
"236 683 OFFCURVE",
"265 716 OFFCURVE",
"265 716 CURVE SMOOTH",
"185 716 LINE SMOOTH",
"185 716 OFFCURVE",
"145 683 OFFCURVE",
"111 650 CURVE SMOOTH",
"77 617 LINE",
"168 617 LINE"
);
},
{
closed = 1;
nodes = (
"221 0 LINE",
"221 517 LINE",
"140 517 LINE",
"140 0 LINE"
);
}
);
width = 342;
}
);
note = iacute;
unicode = 00ED;
},
{
glyphname = icircumflex;
layers = (
{
hints = (
{
horizontal = 1;
place = "{0, 21}";
target = up;
type = BottomGhost;
},
{
horizontal = 1;
place = "{517, -20}";
target = down;
type = TopGhost;
},
{
horizontal = 1;
place = "{618, 99}";
type = Stem;
},
{
place = "{77, 81}";
type = Stem;
},
{
horizontal = 1;
place = "{683, 34}";
type = Stem;
}
);
layerId = "5B3AE2B2-6F0E-4414-97DF-6676E601E692";
paths = (
{
closed = 1;
nodes = (
"218 618 LINE",
"155 717 LINE",
"72 717 LINE",
"10 618 LINE",
"72 618 LINE",
"114 683 LINE",
"155 618 LINE"
);
},
{
closed = 1;
nodes = (
"158 0 LINE",
"158 517 LINE",
"77 517 LINE",
"77 0 LINE"
);
}
);
width = 235;
}
);
note = icircumflex;
unicode = 00EE;
},
{
glyphname = idieresis;
layers = (
{
hints = (
{
horizontal = 1;
place = "{0, 21}";
target = up;
type = BottomGhost;
},
{
horizontal = 1;
place = "{517, -20}";
target = down;
type = TopGhost;
},
{
horizontal = 1;
place = "{614, 102}";
type = Stem;
},
{
place = "{-35, 104}";
type = Stem;
},
{
place = "{159, 104}";
type = Stem;
},
{
place = "{77, 81}";
type = Stem;
}
);
layerId = "5B3AE2B2-6F0E-4414-97DF-6676E601E692";
paths = (
{
closed = 1;
nodes = (
"-35 636 OFFCURVE",
"-13 614 OFFCURVE",
"17 614 CURVE SMOOTH",
"47 614 OFFCURVE",
"69 636 OFFCURVE",
"69 665 CURVE SMOOTH",
"69 694 OFFCURVE",
"47 716 OFFCURVE",
"17 716 CURVE SMOOTH",
"-13 716 OFFCURVE",
"-35 694 OFFCURVE",
"-35 665 CURVE SMOOTH"
);
},
{
closed = 1;
nodes = (
"159 636 OFFCURVE",
"181 614 OFFCURVE",
"211 614 CURVE SMOOTH",
"241 614 OFFCURVE",
"263 636 OFFCURVE",
"263 665 CURVE SMOOTH",
"263 694 OFFCURVE",
"241 716 OFFCURVE",
"211 716 CURVE SMOOTH",
"181 716 OFFCURVE",
"159 694 OFFCURVE",
"159 665 CURVE SMOOTH"
);
},
{
closed = 1;
nodes = (
"158 0 LINE",
"158 517 LINE",
"77 517 LINE",
"77 0 LINE"
);
}
);
width = 235;
}
);
note = idieresis;
unicode = 00EF;
},
{
glyphname = igrave;
layers = (
{
hints = (
{
horizontal = 1;
place = "{0, 21}";
target = up;
type = BottomGhost;
},
{
horizontal = 1;
place = "{517, -20}";
target = down;
type = TopGhost;
},
{
horizontal = 1;
place = "{617, 99}";
type = Stem;
},
{
place = "{130, 81}";
type = Stem;
}
);
layerId = "5B3AE2B2-6F0E-4414-97DF-6676E601E692";
paths = (
{
closed = 1;
nodes = (
"265 617 LINE",
"231 650 LINE SMOOTH",
"197 683 OFFCURVE",
"157 716 OFFCURVE",
"157 716 CURVE SMOOTH",
"77 716 LINE SMOOTH",
"77 716 OFFCURVE",
"106 683 OFFCURVE",
"141 650 CURVE SMOOTH",
"174 617 LINE"
);
},
{
closed = 1;
nodes = (
"211 0 LINE",
"211 517 LINE",
"130 517 LINE",
"130 0 LINE"
);
}
);
width = 342;
}
);
note = igrave;
unicode = 00EC;
},
{
glyphname = j;
layers = (
{
hints = (
{
horizontal = 1;
place = "{-96, 67}";
type = Stem;
}
);
layerId = "5B3AE2B2-6F0E-4414-97DF-6676E601E692";
paths = (
{
closed = 1;
nodes = (
"71 640 OFFCURVE",
"93 618 OFFCURVE",
"123 618 CURVE SMOOTH",
"153 618 OFFCURVE",
"175 640 OFFCURVE",
"175 669 CURVE SMOOTH",
"175 698 OFFCURVE",
"153 720 OFFCURVE",
"123 720 CURVE SMOOTH",
"93 720 OFFCURVE",
"71 698 OFFCURVE",
"71 669 CURVE SMOOTH"
);
},
{
closed = 1;
nodes = (
"161 517 LINE",
"80 517 LINE",
"80 -32 LINE SMOOTH",
"80 -84 OFFCURVE",
"68 -96 OFFCURVE",
"36 -96 CURVE SMOOTH",
"12 -96 OFFCURVE",
"-10 -90 OFFCURVE",
"-10 -90 CURVE",
"-10 -157 LINE",
"-10 -157 OFFCURVE",
"1 -166 OFFCURVE",
"44 -166 CURVE SMOOTH",
"112 -166 OFFCURVE",
"161 -140 OFFCURVE",
"161 -67 CURVE SMOOTH"
);
}
);
width = 252;
}
);
leftKerningGroup = j;
note = j;
unicode = 006A;
},
{
glyphname = k;
layers = (
{
hints = (
{
horizontal = 1;
place = "{1, 21}";
target = up;
type = BottomGhost;
},
{
horizontal = 1;
place = "{516, -20}";
target = down;
type = TopGhost;
},
{
horizontal = 1;
place = "{717, -20}";
target = down;
type = TopGhost;
},
{
place = "{77.5, 80.5}";
type = Stem;
},
{
horizontal = 1;
place = "{0, 21}";
target = up;
type = BottomGhost;
}
);
layerId = "5B3AE2B2-6F0E-4414-97DF-6676E601E692";
paths = (
{
closed = 1;
nodes = (
"158 197 LINE",
"158 197 OFFCURVE",
"192 232 OFFCURVE",
"209 251 CURVE",
"251 192 LINE",
"391 0 LINE",
"483 0 LINE",
"259 305 LINE",
"451 516 LINE",
"362 516 LINE",
"220 362 LINE SMOOTH",
"199 340 OFFCURVE",
"158 293 OFFCURVE",
"158 293 CURVE",
"158 717 LINE",
"78 717 LINE",
"77 0 LINE",
"158 1 LINE"
);
}
);
width = 508;
}
);
note = k;
rightKerningGroup = k;
unicode = 006B;
},
{
glyphname = l;
layers = (
{
hints = (
{
horizontal = 1;
place = "{0, 21}";
target = up;
type = BottomGhost;
},
{
horizontal = 1;
place = "{716, -20}";
target = down;
type = TopGhost;
},
{
place = "{77, 81}";
type = Stem;
}
);
layerId = "5B3AE2B2-6F0E-4414-97DF-6676E601E692";
paths = (
{
closed = 1;
nodes = (
"158 0 LINE",
"158 716 LINE",
"77 716 LINE",
"77 0 LINE"
);
}
);
width = 235;
}
);
note = l;
unicode = 006C;
},
{
glyphname = m;
layers = (
{
hints = (
{
horizontal = 1;
place = "{0, 21}";
target = up;
type = BottomGhost;
},
{
horizontal = 1;
place = "{461, 70}";
type = Stem;
},
{
place = "{77, 81}";
type = Stem;
},
{
place = "{386, 81}";
type = Stem;
},
{
place = "{695, 81}";
type = Stem;
},
{
horizontal = 1;
place = "{461, 56}";
type = Stem;
}
);
layerId = "5B3AE2B2-6F0E-4414-97DF-6676E601E692";
paths = (
{
closed = 1;
nodes = (
"544 531 OFFCURVE",
"481 489 OFFCURVE",
"452 448 CURVE",
"427 500 OFFCURVE",
"376 531 OFFCURVE",
"316 531 CURVE SMOOTH",
"228 531 OFFCURVE",
"179 479 OFFCURVE",
"158 445 CURVE",
"158 517 LINE",
"77 517 LINE",
"77 0 LINE",
"158 0 LINE",
"158 333 LINE SMOOTH",
"158 389 OFFCURVE",
"198 461 OFFCURVE",
"291 461 CURVE SMOOTH",
"352 461 OFFCURVE",
"386 425 OFFCURVE",
"386 338 CURVE SMOOTH",
"386 0 LINE",
"467 0 LINE",
"467 333 LINE SMOOTH",
"467 389 OFFCURVE",
"507 461 OFFCURVE",
"600 461 CURVE SMOOTH",
"661 461 OFFCURVE",
"695 425 OFFCURVE",
"695 338 CURVE SMOOTH",
"696 225 OFFCURVE",
"695 113 OFFCURVE",
"695 0 CURVE",
"776 0 LINE",
"776 374 LINE SMOOTH",
"776 471 OFFCURVE",
"709 531 OFFCURVE",
"625 531 CURVE SMOOTH"
);
}
);
width = 853;
}
);
leftKerningGroup = m;
note = m;
unicode = 006D;
},
{
glyphname = n;
layers = (
{
hints = (
{
horizontal = 1;
place = "{461, 68}";
type = Stem;
},
{
place = "{55, 81}";
type = Stem;
},
{
place = "{395, 81}";
type = Stem;
}
);
layerId = "5B3AE2B2-6F0E-4414-97DF-6676E601E692";
paths = (
{
closed = 1;
nodes = (
"158 333 LINE SMOOTH",
"158 389 OFFCURVE",
"216 461 OFFCURVE",
"309 461 CURVE SMOOTH",
"379 461 OFFCURVE",
"417 425 OFFCURVE",
"417 338 CURVE SMOOTH",
"417 0 LINE",
"498 0 LINE",
"498 374 LINE SMOOTH",
"498 471 OFFCURVE",
"427 531 OFFCURVE",
"334 531 CURVE SMOOTH",
"246 531 OFFCURVE",
"179 479 OFFCURVE",
"158 445 CURVE",
"158 517 LINE",
"77 517 LINE",
"77 0 LINE",
"158 0 LINE"
);
}
);
width = 575;
}
);
leftKerningGroup = n;
note = n;
unicode = 006E;
},
{
glyphname = ntilde;
layers = (
{
hints = (
{
horizontal = 1;
place = "{461, 68}";
type = Stem;
},
{
place = "{55, 81}";
type = Stem;
},
{
place = "{395, 81}";
type = Stem;
}
);
layerId = "5B3AE2B2-6F0E-4414-97DF-6676E601E692";
paths = (
{
closed = 1;
nodes = (
"158 333 LINE SMOOTH",
"158 389 OFFCURVE",
"216 461 OFFCURVE",
"309 461 CURVE SMOOTH",
"379 461 OFFCURVE",
"417 425 OFFCURVE",
"417 338 CURVE SMOOTH",
"417 0 LINE",
"498 0 LINE",
"498 374 LINE SMOOTH",
"498 471 OFFCURVE",
"427 531 OFFCURVE",
"334 531 CURVE SMOOTH",
"246 531 OFFCURVE",
"179 479 OFFCURVE",
"158 445 CURVE",
"158 517 LINE",
"77 517 LINE",
"77 0 LINE",
"158 0 LINE"
);
}
);
width = 575;
}
);
note = ntilde;
unicode = 00F1;
},
{
glyphname = o;
layers = (
{
hints = (
{
horizontal = 1;
place = "{-14, 81}";
type = Stem;
},
{
horizontal = 1;
place = "{449, 81}";
type = Stem;
},
{
place = "{22, 83}";
type = Stem;
},
{
place = "{438, 83}";
type = Stem;
}
);
layerId = "5B3AE2B2-6F0E-4414-97DF-6676E601E692";
paths = (
{
closed = 1;
nodes = (
"445 -14 OFFCURVE",
"539 108 OFFCURVE",
"539 258 CURVE SMOOTH",
"539 408 OFFCURVE",
"447 530 OFFCURVE",
"290 530 CURVE SMOOTH",
"136 530 OFFCURVE",
"40 408 OFFCURVE",
"40 258 CURVE SMOOTH",
"40 108 OFFCURVE",
"136 -14 OFFCURVE",
"290 -14 CURVE SMOOTH"
);
},
{
closed = 1;
nodes = (
"123 366 OFFCURVE",
"183 459 OFFCURVE",
"290 459 CURVE SMOOTH",
"400 459 OFFCURVE",
"457 366 OFFCURVE",
"457 258 CURVE SMOOTH",
"457 151 OFFCURVE",
"397 58 OFFCURVE",
"290 58 CURVE SMOOTH",
"184 58 OFFCURVE",
"123 151 OFFCURVE",
"123 258 CURVE SMOOTH"
);
}
);
width = 579;
}
);
leftKerningGroup = o;
note = o;
rightKerningGroup = o;
unicode = 006F;
},
{
glyphname = oacute;
layers = (
{
hints = (
{
horizontal = 1;
place = "{-14, 81}";
type = Stem;
},
{
horizontal = 1;
place = "{449, 81}";
type = Stem;
},
{
horizontal = 1;
place = "{617, 99}";
type = Stem;
},
{
place = "{22, 83}";
type = Stem;
},
{
place = "{168, 188}";
type = Stem;
},
{
place = "{438, 83}";
type = Stem;
}
);
layerId = "5B3AE2B2-6F0E-4414-97DF-6676E601E692";
paths = (
{
closed = 1;
nodes = (
"292 650 LINE SMOOTH",
"327 683 OFFCURVE",
"356 716 OFFCURVE",
"356 716 CURVE SMOOTH",
"276 716 LINE SMOOTH",
"276 716 OFFCURVE",
"236 683 OFFCURVE",
"202 650 CURVE SMOOTH",
"168 617 LINE",
"259 617 LINE"
);
},
{
closed = 1;
nodes = (
"445 -14 OFFCURVE",
"539 108 OFFCURVE",
"539 258 CURVE SMOOTH",
"539 408 OFFCURVE",
"447 530 OFFCURVE",
"290 530 CURVE SMOOTH",
"136 530 OFFCURVE",
"40 408 OFFCURVE",
"40 258 CURVE SMOOTH",
"40 108 OFFCURVE",
"136 -14 OFFCURVE",
"290 -14 CURVE SMOOTH"
);
},
{
closed = 1;
nodes = (
"123 366 OFFCURVE",
"183 459 OFFCURVE",
"290 459 CURVE SMOOTH",
"400 459 OFFCURVE",
"457 366 OFFCURVE",
"457 258 CURVE SMOOTH",
"457 151 OFFCURVE",
"397 58 OFFCURVE",
"290 58 CURVE SMOOTH",
"184 58 OFFCURVE",
"123 151 OFFCURVE",
"123 258 CURVE SMOOTH"
);
}
);
width = 579;
}
);
note = oacute;
unicode = 00F3;
},
{
glyphname = ocircumflex;
layers = (
{
hints = (
{
horizontal = 1;
place = "{-14, 81}";
type = Stem;
},
{
horizontal = 1;
place = "{449, 81}";
type = Stem;
},
{
horizontal = 1;
place = "{617, 99}";
type = Stem;
},
{
place = "{22, 83}";
type = Stem;
},
{
place = "{163, 208}";
type = Stem;
},
{
place = "{438, 83}";
type = Stem;
},
{
horizontal = 1;
place = "{682, 34}";
type = Stem;
}
);
layerId = "5B3AE2B2-6F0E-4414-97DF-6676E601E692";
paths = (
{
closed = 1;
nodes = (
"225 716 LINE",
"163 617 LINE",
"225 617 LINE",
"267 682 LINE",
"308 617 LINE",
"371 617 LINE",
"308 716 LINE"
);
},
{
closed = 1;
nodes = (
"445 -14 OFFCURVE",
"539 108 OFFCURVE",
"539 258 CURVE SMOOTH",
"539 408 OFFCURVE",
"447 530 OFFCURVE",
"290 530 CURVE SMOOTH",
"136 530 OFFCURVE",
"40 408 OFFCURVE",
"40 258 CURVE SMOOTH",
"40 108 OFFCURVE",
"136 -14 OFFCURVE",
"290 -14 CURVE SMOOTH"
);
},
{
closed = 1;
nodes = (
"123 366 OFFCURVE",
"183 459 OFFCURVE",
"290 459 CURVE SMOOTH",
"400 459 OFFCURVE",
"457 366 OFFCURVE",
"457 258 CURVE SMOOTH",
"457 151 OFFCURVE",
"397 58 OFFCURVE",
"290 58 CURVE SMOOTH",
"184 58 OFFCURVE",
"123 151 OFFCURVE",
"123 258 CURVE SMOOTH"
);
}
);
width = 579;
}
);
note = ocircumflex;
unicode = 00F4;
},
{
glyphname = odieresis;
layers = (
{
hints = (
{
horizontal = 1;
place = "{-14, 81}";
type = Stem;
},
{
horizontal = 1;
place = "{449, 81}";
type = Stem;
},
{
horizontal = 1;
place = "{614, 102}";
type = Stem;
},
{
place = "{22, 83}";
type = Stem;
},
{
place = "{136, 104}";
type = Stem;
},
{
place = "{330, 104}";
type = Stem;
},
{
place = "{438, 83}";
type = Stem;
}
);
layerId = "5B3AE2B2-6F0E-4414-97DF-6676E601E692";
paths = (
{
closed = 1;
nodes = (
"136 636 OFFCURVE",
"158 614 OFFCURVE",
"188 614 CURVE SMOOTH",
"218 614 OFFCURVE",
"240 636 OFFCURVE",
"240 665 CURVE SMOOTH",
"240 694 OFFCURVE",
"218 716 OFFCURVE",
"188 716 CURVE SMOOTH",
"158 716 OFFCURVE",
"136 694 OFFCURVE",
"136 665 CURVE SMOOTH"
);
},
{
closed = 1;
nodes = (
"330 636 OFFCURVE",
"352 614 OFFCURVE",
"382 614 CURVE SMOOTH",
"412 614 OFFCURVE",
"434 636 OFFCURVE",
"434 665 CURVE SMOOTH",
"434 694 OFFCURVE",
"412 716 OFFCURVE",
"382 716 CURVE SMOOTH",
"352 716 OFFCURVE",
"330 694 OFFCURVE",
"330 665 CURVE SMOOTH"
);
},
{
closed = 1;
nodes = (
"445 -14 OFFCURVE",
"539 108 OFFCURVE",
"539 258 CURVE SMOOTH",
"539 408 OFFCURVE",
"447 530 OFFCURVE",
"290 530 CURVE SMOOTH",
"136 530 OFFCURVE",
"40 408 OFFCURVE",
"40 258 CURVE SMOOTH",
"40 108 OFFCURVE",
"136 -14 OFFCURVE",
"290 -14 CURVE SMOOTH"
);
},
{
closed = 1;
nodes = (
"123 366 OFFCURVE",
"183 459 OFFCURVE",
"290 459 CURVE SMOOTH",
"400 459 OFFCURVE",
"457 366 OFFCURVE",
"457 258 CURVE SMOOTH",
"457 151 OFFCURVE",
"397 58 OFFCURVE",
"290 58 CURVE SMOOTH",
"184 58 OFFCURVE",
"123 151 OFFCURVE",
"123 258 CURVE SMOOTH"
);
}
);
width = 579;
}
);
note = odieresis;
unicode = 00F6;
},
{
glyphname = ograve;
layers = (
{
hints = (
{
horizontal = 1;
place = "{-14, 81}";
type = Stem;
},
{
horizontal = 1;
place = "{449, 81}";
type = Stem;
},
{
horizontal = 1;
place = "{617, 99}";
type = Stem;
},
{
place = "{186, 188}";
type = Stem;
},
{
place = "{557, 83}";
type = Stem;
}
);
layerId = "5B3AE2B2-6F0E-4414-97DF-6676E601E692";
paths = (
{
closed = 1;
nodes = (
"310 650 LINE SMOOTH",
"345 683 OFFCURVE",
"374 716 OFFCURVE",
"374 716 CURVE SMOOTH",
"294 716 LINE SMOOTH",
"294 716 OFFCURVE",
"254 683 OFFCURVE",
"220 650 CURVE SMOOTH",
"186 617 LINE",
"277 617 LINE"
);
},
{
closed = 1;
nodes = (
"443 -14 OFFCURVE",
"539 108 OFFCURVE",
"539 258 CURVE SMOOTH",
"539 408 OFFCURVE",
"443 530 OFFCURVE",
"289 530 CURVE SMOOTH",
"132 530 OFFCURVE",
"40 408 OFFCURVE",
"40 258 CURVE SMOOTH",
"40 108 OFFCURVE",
"134 -14 OFFCURVE",
"289 -14 CURVE SMOOTH"
);
},
{
closed = 1;
nodes = (
"456 151 OFFCURVE",
"395 58 OFFCURVE",
"289 58 CURVE SMOOTH",
"182 58 OFFCURVE",
"122 151 OFFCURVE",
"122 258 CURVE SMOOTH",
"122 366 OFFCURVE",
"179 459 OFFCURVE",
"289 459 CURVE SMOOTH",
"396 459 OFFCURVE",
"456 366 OFFCURVE",
"456 258 CURVE SMOOTH"
);
}
);
width = 579;
}
);
note = ograve;
unicode = 00F2;
},
{
glyphname = oslash;
layers = (
{
hints = (
{
horizontal = 1;
place = "{-94, 21}";
target = up;
type = BottomGhost;
},
{
horizontal = 1;
place = "{-14, 81}";
type = Stem;
},
{
horizontal = 1;
place = "{449, 81}";
type = Stem;
},
{
horizontal = 1;
place = "{652, -20}";
target = down;
type = TopGhost;
},
{
place = "{22, 83}";
type = Stem;
},
{
place = "{438, 83}";
type = Stem;
}
);
layerId = "5B3AE2B2-6F0E-4414-97DF-6676E601E692";
paths = (
{
closed = 1;
nodes = (
"565 652 LINE",
"478 652 LINE",
"395 509 LINE",
"364 522 OFFCURVE",
"329 530 OFFCURVE",
"290 530 CURVE SMOOTH",
"136 530 OFFCURVE",
"40 408 OFFCURVE",
"40 258 CURVE SMOOTH",
"40 173 OFFCURVE",
"71 96 OFFCURVE",
"126 46 CURVE",
"45 -94 LINE",
"132 -94 LINE",
"190 6 LINE",
"220 -7 OFFCURVE",
"253 -14 OFFCURVE",
"290 -14 CURVE SMOOTH",
"445 -14 OFFCURVE",
"539 108 OFFCURVE",
"539 258 CURVE SMOOTH",
"539 342 OFFCURVE",
"510 417 OFFCURVE",
"458 467 CURVE"
);
},
{
closed = 1;
nodes = (
"123 366 OFFCURVE",
"183 459 OFFCURVE",
"290 459 CURVE SMOOTH",
"315 459 OFFCURVE",
"338 454 OFFCURVE",
"358 445 CURVE",
"167 117 LINE",
"139 154 OFFCURVE",
"123 204 OFFCURVE",
"123 258 CURVE SMOOTH"
);
},
{
closed = 1;
nodes = (
"267 58 OFFCURVE",
"246 62 OFFCURVE",
"227 70 CURVE",
"417 396 LINE",
"443 360 OFFCURVE",
"457 311 OFFCURVE",
"457 258 CURVE SMOOTH",
"457 151 OFFCURVE",
"397 58 OFFCURVE",
"290 58 CURVE SMOOTH"
);
}
);
width = 608;
}
);
note = oslash;
unicode = 00F8;
},
{
glyphname = otilde;
layers = (
{
hints = (
{
horizontal = 1;
place = "{-14, 81}";
type = Stem;
},
{
horizontal = 1;
place = "{449, 81}";
type = Stem;
},
{
place = "{22, 83}";
type = Stem;
},
{
place = "{438, 83}";
type = Stem;
}
);
layerId = "5B3AE2B2-6F0E-4414-97DF-6676E601E692";
paths = (
{
closed = 1;
nodes = (
"445 -14 OFFCURVE",
"539 108 OFFCURVE",
"539 258 CURVE SMOOTH",
"539 408 OFFCURVE",
"447 530 OFFCURVE",
"290 530 CURVE SMOOTH",
"136 530 OFFCURVE",
"40 408 OFFCURVE",
"40 258 CURVE SMOOTH",
"40 108 OFFCURVE",
"136 -14 OFFCURVE",
"290 -14 CURVE SMOOTH"
);
},
{
closed = 1;
nodes = (
"123 366 OFFCURVE",
"183 459 OFFCURVE",
"290 459 CURVE SMOOTH",
"400 459 OFFCURVE",
"457 366 OFFCURVE",
"457 258 CURVE SMOOTH",
"457 151 OFFCURVE",
"397 58 OFFCURVE",
"290 58 CURVE SMOOTH",
"184 58 OFFCURVE",
"123 151 OFFCURVE",
"123 258 CURVE SMOOTH"
);
}
);
width = 579;
}
);
note = otilde;
unicode = 00F5;
},
{
glyphname = oe;
layers = (
{
hints = (
{
horizontal = 1;
place = "{-14, 81}";
type = Stem;
},
{
horizontal = 1;
place = "{449, 81}";
type = Stem;
},
{
place = "{22, 83}";
type = Stem;
},
{
place = "{438, 83}";
type = Stem;
}
);
layerId = "5B3AE2B2-6F0E-4414-97DF-6676E601E692";
paths = (
{
closed = 1;
nodes = (
"833 -14 OFFCURVE",
"906 62 OFFCURVE",
"931 161 CURVE",
"850 160 LINE",
"834 105 OFFCURVE",
"790 53 OFFCURVE",
"711 53 CURVE SMOOTH",
"601 53 OFFCURVE",
"547 142 OFFCURVE",
"542 244 CURVE",
"562 243 OFFCURVE",
"608 242 OFFCURVE",
"649 242 CURVE SMOOTH",
"942 242 LINE",
"942 258 LINE SMOOTH",
"942 408 OFFCURVE",
"868 530 OFFCURVE",
"711 530 CURVE SMOOTH",
"617 530 OFFCURVE",
"539 484 OFFCURVE",
"502 374 CURVE",
"466 484 OFFCURVE",
"389 530 OFFCURVE",
"293 530 CURVE SMOOTH",
"139 530 OFFCURVE",
"43 408 OFFCURVE",
"43 258 CURVE SMOOTH",
"43 108 OFFCURVE",
"139 -14 OFFCURVE",
"293 -14 CURVE SMOOTH",
"388 -14 OFFCURVE",
"465 32 OFFCURVE",
"502 142 CURVE",
"539 32 OFFCURVE",
"617 -14 OFFCURVE",
"711 -14 CURVE SMOOTH"
);
},
{
closed = 1;
nodes = (
"560 394 OFFCURVE",
"601 464 OFFCURVE",
"712 464 CURVE SMOOTH",
"799 464 OFFCURVE",
"849 395 OFFCURVE",
"859 307 CURVE",
"649 307 LINE SMOOTH",
"610 307 OFFCURVE",
"567 306 OFFCURVE",
"546 305 CURVE"
);
},
{
closed = 1;
nodes = (
"126 366 OFFCURVE",
"186 459 OFFCURVE",
"293 459 CURVE SMOOTH",
"403 459 OFFCURVE",
"460 366 OFFCURVE",
"460 258 CURVE SMOOTH",
"460 151 OFFCURVE",
"400 58 OFFCURVE",
"293 58 CURVE SMOOTH",
"187 58 OFFCURVE",
"126 151 OFFCURVE",
"126 258 CURVE SMOOTH"
);
}
);
width = 985;
}
);
note = oe;
unicode = 0153;
},
{
glyphname = p;
layers = (
{
hints = (
{
horizontal = 1;
place = "{-166, 21}";
target = up;
type = BottomGhost;
},
{
horizontal = 1;
place = "{-15, 69}";
type = Stem;
},
{
horizontal = 1;
place = "{460, 70}";
type = Stem;
},
{
place = "{77, 81}";
type = Stem;
},
{
place = "{461, 82}";
type = Stem;
},
{
horizontal = 1;
place = "{517, -20}";
target = down;
type = TopGhost;
}
);
layerId = "5B3AE2B2-6F0E-4414-97DF-6676E601E692";
paths = (
{
closed = 1;
nodes = (
"158 -166 LINE",
"158 80 LINE",
"180 34 OFFCURVE",
"246 -15 OFFCURVE",
"335 -15 CURVE SMOOTH",
"446 -15 OFFCURVE",
"543 87 OFFCURVE",
"543 257 CURVE SMOOTH",
"543 428 OFFCURVE",
"445 530 OFFCURVE",
"335 530 CURVE SMOOTH",
"246 530 OFFCURVE",
"180 481 OFFCURVE",
"158 435 CURVE",
"158 517 LINE",
"77 517 LINE",
"77 -166 LINE"
);
},
{
closed = 1;
nodes = (
"158 370 OFFCURVE",
"211 460 OFFCURVE",
"310 460 CURVE SMOOTH",
"389 460 OFFCURVE",
"461 390 OFFCURVE",
"461 258 CURVE SMOOTH",
"461 124 OFFCURVE",
"388 54 OFFCURVE",
"310 54 CURVE SMOOTH",
"211 54 OFFCURVE",
"158 144 OFFCURVE",
"158 258 CURVE SMOOTH"
);
}
);
width = 586;
}
);
leftKerningGroup = p;
note = p;
unicode = 0070;
},
{
glyphname = thorn;
layers = (
{
hints = (
{
horizontal = 1;
place = "{-166, 21}";
target = up;
type = BottomGhost;
},
{
horizontal = 1;
place = "{-15, 69}";
type = Stem;
},
{
horizontal = 1;
place = "{460, 70}";
type = Stem;
},
{
horizontal = 1;
place = "{716, -20}";
target = down;
type = TopGhost;
},
{
place = "{77, 81}";
type = Stem;
},
{
place = "{461, 82}";
type = Stem;
}
);
layerId = "5B3AE2B2-6F0E-4414-97DF-6676E601E692";
paths = (
{
closed = 1;
nodes = (
"158 -166 LINE",
"158 80 LINE",
"180 34 OFFCURVE",
"246 -15 OFFCURVE",
"335 -15 CURVE SMOOTH",
"446 -15 OFFCURVE",
"543 87 OFFCURVE",
"543 257 CURVE SMOOTH",
"543 428 OFFCURVE",
"445 530 OFFCURVE",
"335 530 CURVE SMOOTH",
"246 530 OFFCURVE",
"180 481 OFFCURVE",
"158 435 CURVE",
"158 716 LINE",
"77 716 LINE",
"77 -166 LINE"
);
},
{
closed = 1;
nodes = (
"158 370 OFFCURVE",
"211 460 OFFCURVE",
"310 460 CURVE SMOOTH",
"389 460 OFFCURVE",
"461 390 OFFCURVE",
"461 258 CURVE SMOOTH",
"461 124 OFFCURVE",
"388 54 OFFCURVE",
"310 54 CURVE SMOOTH",
"211 54 OFFCURVE",
"158 144 OFFCURVE",
"158 258 CURVE SMOOTH"
);
}
);
width = 586;
}
);
note = thorn;
unicode = 00FE;
},
{
glyphname = q;
layers = (
{
hints = (
{
horizontal = 1;
place = "{-166, 21}";
target = up;
type = BottomGhost;
},
{
horizontal = 1;
place = "{-15, 69}";
type = Stem;
},
{
horizontal = 1;
place = "{460, 70}";
type = Stem;
},
{
place = "{43, 82}";
type = Stem;
},
{
place = "{428, 81}";
type = Stem;
},
{
horizontal = 1;
place = "{517, -20}";
target = down;
type = TopGhost;
}
);
layerId = "5B3AE2B2-6F0E-4414-97DF-6676E601E692";
paths = (
{
closed = 1;
nodes = (
"509 -166 LINE",
"509 517 LINE",
"428 517 LINE",
"428 435 LINE",
"406 481 OFFCURVE",
"340 530 OFFCURVE",
"251 530 CURVE SMOOTH",
"141 530 OFFCURVE",
"43 428 OFFCURVE",
"43 257 CURVE SMOOTH",
"43 87 OFFCURVE",
"140 -15 OFFCURVE",
"251 -15 CURVE SMOOTH",
"340 -15 OFFCURVE",
"406 34 OFFCURVE",
"428 80 CURVE",
"428 -166 LINE"
);
},
{
closed = 1;
nodes = (
"125 390 OFFCURVE",
"197 460 OFFCURVE",
"276 460 CURVE SMOOTH",
"375 460 OFFCURVE",
"428 370 OFFCURVE",
"428 258 CURVE SMOOTH",
"428 144 OFFCURVE",
"375 54 OFFCURVE",
"276 54 CURVE SMOOTH",
"198 54 OFFCURVE",
"125 124 OFFCURVE",
"125 258 CURVE SMOOTH"
);
}
);
width = 586;
}
);
leftKerningGroup = q;
note = q;
unicode = 0071;
},
{
glyphname = r;
layers = (
{
hints = (
{
horizontal = 1;
place = "{0, 21}";
target = up;
type = BottomGhost;
},
{
horizontal = 1;
place = "{461, 70}";
type = Stem;
},
{
place = "{77, 81}";
type = Stem;
},
{
horizontal = 1;
place = "{517, -20}";
target = down;
type = TopGhost;
}
);
layerId = "5B3AE2B2-6F0E-4414-97DF-6676E601E692";
paths = (
{
closed = 1;
nodes = (
"334 531 LINE",
"246 531 OFFCURVE",
"179 479 OFFCURVE",
"158 445 CURVE",
"158 517 LINE",
"77 517 LINE",
"77 0 LINE",
"158 0 LINE",
"158 333 LINE SMOOTH",
"158 389 OFFCURVE",
"216 461 OFFCURVE",
"334 461 CURVE"
);
}
);
width = 356;
}
);
leftKerningGroup = r;
note = r;
rightKerningGroup = r;
unicode = 0072;
},
{
glyphname = s;
layers = (
{
hints = (
{
horizontal = 1;
place = "{-15, 545}";
type = Stem;
},
{
place = "{55, 425}";
type = Stem;
}
);
layerId = "5B3AE2B2-6F0E-4414-97DF-6676E601E692";
paths = (
{
closed = 1;
nodes = (
"139 147 LINE",
"145 83 OFFCURVE",
"198 55 OFFCURVE",
"264 55 CURVE SMOOTH",
"344 55 OFFCURVE",
"398 85 OFFCURVE",
"398 141 CURVE SMOOTH",
"399 181 OFFCURVE",
"373 207 OFFCURVE",
"262 231 CURVE SMOOTH",
"158 253 OFFCURVE",
"65 281 OFFCURVE",
"65 390 CURVE SMOOTH",
"65 473 OFFCURVE",
"146 530 OFFCURVE",
"266 530 CURVE SMOOTH",
"386 530 OFFCURVE",
"461 457 OFFCURVE",
"471 368 CURVE",
"387 368 LINE",
"381 432 OFFCURVE",
"329 460 OFFCURVE",
"263 460 CURVE SMOOTH",
"197 460 OFFCURVE",
"147 434 OFFCURVE",
"147 390 CURVE SMOOTH",
"147 338 OFFCURVE",
"197 325 OFFCURVE",
"289 301 CURVE SMOOTH",
"398 276 OFFCURVE",
"480 254 OFFCURVE",
"480 142 CURVE SMOOTH",
"480 51 OFFCURVE",
"396 -15 OFFCURVE",
"261 -15 CURVE SMOOTH",
"141 -15 OFFCURVE",
"65 58 OFFCURVE",
"55 147 CURVE"
);
}
);
width = 530;
}
);
leftKerningGroup = s;
note = s;
unicode = 0073;
},
{
glyphname = germandbls;
layers = (
{
hints = (
{
horizontal = 1;
place = "{0, 21}";
target = up;
type = BottomGhost;
},
{
horizontal = 1;
place = "{345, 71}";
type = Stem;
},
{
horizontal = 1;
place = "{656, 75}";
type = Stem;
},
{
place = "{75, 85}";
type = Stem;
},
{
place = "{409, 86}";
type = Stem;
},
{
horizontal = 1;
place = "{-15, 77}";
type = Stem;
},
{
place = "{445, 86}";
type = Stem;
},
{
horizontal = 1;
place = "{-9, 21}";
target = up;
type = BottomGhost;
}
);
layerId = "5B3AE2B2-6F0E-4414-97DF-6676E601E692";
paths = (
{
closed = 1;
nodes = (
"160 0 LINE",
"160 528 LINE SMOOTH",
"160 596 OFFCURVE",
"211 656 OFFCURVE",
"280 656 CURVE SMOOTH",
"361 656 OFFCURVE",
"409 603 OFFCURVE",
"409 537 CURVE SMOOTH",
"409 471 OFFCURVE",
"359 416 OFFCURVE",
"266 416 CURVE SMOOTH",
"260 416 LINE",
"260 345 LINE",
"283 345 LINE SMOOTH",
"385 345 OFFCURVE",
"445 277 OFFCURVE",
"445 201 CURVE SMOOTH",
"445 124 OFFCURVE",
"397 62 OFFCURVE",
"312 62 CURVE SMOOTH",
"265 62 OFFCURVE",
"253 68 OFFCURVE",
"253 68 CURVE",
"253 -9 LINE",
"253 -9 OFFCURVE",
"273 -15 OFFCURVE",
"326 -15 CURVE SMOOTH",
"457 -15 OFFCURVE",
"531 82 OFFCURVE",
"531 201 CURVE SMOOTH",
"531 294 OFFCURVE",
"476 359 OFFCURVE",
"389 383 CURVE",
"456 408 OFFCURVE",
"495 463 OFFCURVE",
"495 537 CURVE SMOOTH",
"495 644 OFFCURVE",
"408 731 OFFCURVE",
"280 731 CURVE SMOOTH",
"151 731 OFFCURVE",
"75 637 OFFCURVE",
"75 533 CURVE SMOOTH",
"76 0 LINE"
);
}
);
width = 574;
}
);
note = germandbls;
unicode = 00DF;
},
{
glyphname = t;
layers = (
{
hints = (
{
horizontal = 1;
place = "{-3, 659}";
type = Stem;
},
{
place = "{32, 296}";
type = Stem;
}
);
layerId = "5B3AE2B2-6F0E-4414-97DF-6676E601E692";
paths = (
{
closed = 1;
nodes = (
"124 451 LINE",
"124 451 OFFCURVE",
"95 450 OFFCURVE",
"80 450 CURVE SMOOTH",
"32 450 LINE",
"32 517 LINE",
"80 517 LINE SMOOTH",
"95 517 OFFCURVE",
"125 516 OFFCURVE",
"125 516 CURVE",
"124 632 LINE",
"124 656 LINE",
"205 656 LINE",
"205 632 LINE",
"204 516 LINE",
"204 516 OFFCURVE",
"232 517 OFFCURVE",
"247 517 CURVE SMOOTH",
"328 517 LINE",
"328 450 LINE",
"247 450 LINE SMOOTH",
"232 450 OFFCURVE",
"205 451 OFFCURVE",
"205 451 CURVE",
"205 131 LINE SMOOTH",
"205 78 OFFCURVE",
"222 67 OFFCURVE",
"249 67 CURVE SMOOTH",
"289 67 OFFCURVE",
"325 76 OFFCURVE",
"325 76 CURVE",
"325 9 LINE",
"325 9 OFFCURVE",
"312 -3 OFFCURVE",
"241 -3 CURVE SMOOTH",
"174 -3 OFFCURVE",
"127 21 OFFCURVE",
"124 91 CURVE"
);
}
);
width = 353;
}
);
note = t;
unicode = 0074;
},
{
glyphname = u;
layers = (
{
hints = (
{
horizontal = 1;
place = "{-14, 70}";
type = Stem;
},
{
horizontal = 1;
place = "{517, -20}";
target = down;
type = TopGhost;
},
{
place = "{77, 81}";
type = Stem;
},
{
place = "{408, 81}";
type = Stem;
},
{
horizontal = 1;
place = "{0, 56}";
type = Stem;
}
);
layerId = "5B3AE2B2-6F0E-4414-97DF-6676E601E692";
paths = (
{
closed = 1;
nodes = (
"337 -14 OFFCURVE",
"387 35 OFFCURVE",
"408 69 CURVE",
"408 0 LINE",
"489 0 LINE",
"489 517 LINE",
"408 517 LINE",
"408 175 LINE SMOOTH",
"408 119 OFFCURVE",
"347 56 OFFCURVE",
"279 56 CURVE SMOOTH",
"198 56 OFFCURVE",
"158 91 OFFCURVE",
"158 189 CURVE SMOOTH",
"158 517 LINE",
"77 517 LINE",
"77 164 LINE SMOOTH",
"77 46 OFFCURVE",
"151 -14 OFFCURVE",
"254 -14 CURVE SMOOTH"
);
}
);
width = 566;
}
);
note = u;
unicode = 0075;
},
{
glyphname = uacute;
layers = (
{
hints = (
{
horizontal = 1;
place = "{-14, 70}";
type = Stem;
},
{
horizontal = 1;
place = "{517, -20}";
target = down;
type = TopGhost;
},
{
horizontal = 1;
place = "{617, 99}";
type = Stem;
},
{
place = "{77, 81}";
type = Stem;
},
{
place = "{408, 81}";
type = Stem;
},
{
horizontal = 1;
place = "{0, 56}";
type = Stem;
}
);
layerId = "5B3AE2B2-6F0E-4414-97DF-6676E601E692";
paths = (
{
closed = 1;
nodes = (
"268 650 LINE SMOOTH",
"303 683 OFFCURVE",
"332 716 OFFCURVE",
"332 716 CURVE SMOOTH",
"252 716 LINE SMOOTH",
"252 716 OFFCURVE",
"212 683 OFFCURVE",
"178 650 CURVE SMOOTH",
"144 617 LINE",
"235 617 LINE"
);
},
{
closed = 1;
nodes = (
"337 -14 OFFCURVE",
"387 35 OFFCURVE",
"408 69 CURVE",
"408 0 LINE",
"489 0 LINE",
"489 517 LINE",
"408 517 LINE",
"408 175 LINE SMOOTH",
"408 119 OFFCURVE",
"347 56 OFFCURVE",
"279 56 CURVE SMOOTH",
"198 56 OFFCURVE",
"158 91 OFFCURVE",
"158 189 CURVE SMOOTH",
"158 517 LINE",
"77 517 LINE",
"77 164 LINE SMOOTH",
"77 46 OFFCURVE",
"151 -14 OFFCURVE",
"254 -14 CURVE SMOOTH"
);
}
);
width = 566;
}
);
note = uacute;
unicode = 00FA;
},
{
glyphname = ucircumflex;
layers = (
{
hints = (
{
horizontal = 1;
place = "{-14, 70}";
type = Stem;
},
{
horizontal = 1;
place = "{517, -20}";
target = down;
type = TopGhost;
},
{
horizontal = 1;
place = "{617, 99}";
type = Stem;
},
{
place = "{77, 81}";
type = Stem;
},
{
place = "{408, 81}";
type = Stem;
},
{
horizontal = 1;
place = "{682, 34}";
type = Stem;
},
{
horizontal = 1;
place = "{0, 56}";
type = Stem;
}
);
layerId = "5B3AE2B2-6F0E-4414-97DF-6676E601E692";
paths = (
{
closed = 1;
nodes = (
"237 716 LINE",
"175 617 LINE",
"237 617 LINE",
"279 682 LINE",
"320 617 LINE",
"383 617 LINE",
"320 716 LINE"
);
},
{
closed = 1;
nodes = (
"337 -14 OFFCURVE",
"387 35 OFFCURVE",
"408 69 CURVE",
"408 0 LINE",
"489 0 LINE",
"489 517 LINE",
"408 517 LINE",
"408 175 LINE SMOOTH",
"408 119 OFFCURVE",
"347 56 OFFCURVE",
"279 56 CURVE SMOOTH",
"198 56 OFFCURVE",
"158 91 OFFCURVE",
"158 189 CURVE SMOOTH",
"158 517 LINE",
"77 517 LINE",
"77 164 LINE SMOOTH",
"77 46 OFFCURVE",
"151 -14 OFFCURVE",
"254 -14 CURVE SMOOTH"
);
}
);
width = 566;
}
);
note = ucircumflex;
unicode = 00FB;
},
{
glyphname = udieresis;
layers = (
{
hints = (
{
horizontal = 1;
place = "{-14, 70}";
type = Stem;
},
{
horizontal = 1;
place = "{517, -20}";
target = down;
type = TopGhost;
},
{
horizontal = 1;
place = "{615, 102}";
type = Stem;
},
{
place = "{125, 104}";
type = Stem;
},
{
place = "{319, 104}";
type = Stem;
},
{
place = "{77, 81}";
type = Stem;
},
{
place = "{408, 81}";
type = Stem;
},
{
horizontal = 1;
place = "{0, 56}";
type = Stem;
}
);
layerId = "5B3AE2B2-6F0E-4414-97DF-6676E601E692";
paths = (
{
closed = 1;
nodes = (
"125 637 OFFCURVE",
"147 615 OFFCURVE",
"177 615 CURVE SMOOTH",
"207 615 OFFCURVE",
"229 637 OFFCURVE",
"229 666 CURVE SMOOTH",
"229 695 OFFCURVE",
"207 717 OFFCURVE",
"177 717 CURVE SMOOTH",
"147 717 OFFCURVE",
"125 695 OFFCURVE",
"125 666 CURVE SMOOTH"
);
},
{
closed = 1;
nodes = (
"319 637 OFFCURVE",
"341 615 OFFCURVE",
"371 615 CURVE SMOOTH",
"401 615 OFFCURVE",
"423 637 OFFCURVE",
"423 666 CURVE SMOOTH",
"423 695 OFFCURVE",
"401 717 OFFCURVE",
"371 717 CURVE SMOOTH",
"341 717 OFFCURVE",
"319 695 OFFCURVE",
"319 666 CURVE SMOOTH"
);
},
{
closed = 1;
nodes = (
"337 -14 OFFCURVE",
"387 35 OFFCURVE",
"408 69 CURVE",
"408 0 LINE",
"489 0 LINE",
"489 517 LINE",
"408 517 LINE",
"408 175 LINE SMOOTH",
"408 119 OFFCURVE",
"347 56 OFFCURVE",
"279 56 CURVE SMOOTH",
"198 56 OFFCURVE",
"158 91 OFFCURVE",
"158 189 CURVE SMOOTH",
"158 517 LINE",
"77 517 LINE",
"77 164 LINE SMOOTH",
"77 46 OFFCURVE",
"151 -14 OFFCURVE",
"254 -14 CURVE SMOOTH"
);
}
);
width = 566;
}
);
note = udieresis;
unicode = 00FC;
},
{
glyphname = ugrave;
layers = (
{
hints = (
{
horizontal = 1;
place = "{-14, 70}";
type = Stem;
},
{
horizontal = 1;
place = "{517, -20}";
target = down;
type = TopGhost;
},
{
horizontal = 1;
place = "{617, 99}";
type = Stem;
},
{
place = "{77, 81}";
type = Stem;
},
{
place = "{408, 81}";
type = Stem;
},
{
horizontal = 1;
place = "{0, 56}";
type = Stem;
}
);
layerId = "5B3AE2B2-6F0E-4414-97DF-6676E601E692";
paths = (
{
closed = 1;
nodes = (
"237 650 LINE",
"270 617 LINE",
"361 617 LINE",
"327 650 LINE SMOOTH",
"293 683 OFFCURVE",
"253 716 OFFCURVE",
"253 716 CURVE SMOOTH",
"173 716 LINE"
);
},
{
closed = 1;
nodes = (
"337 -14 OFFCURVE",
"387 35 OFFCURVE",
"408 69 CURVE",
"408 0 LINE",
"489 0 LINE",
"489 517 LINE",
"408 517 LINE",
"408 175 LINE SMOOTH",
"408 119 OFFCURVE",
"347 56 OFFCURVE",
"279 56 CURVE SMOOTH",
"198 56 OFFCURVE",
"158 91 OFFCURVE",
"158 189 CURVE SMOOTH",
"158 517 LINE",
"77 517 LINE",
"77 164 LINE SMOOTH",
"77 46 OFFCURVE",
"151 -14 OFFCURVE",
"254 -14 CURVE SMOOTH"
);
}
);
width = 566;
}
);
note = ugrave;
unicode = 00F9;
},
{
glyphname = v;
layers = (
{
hints = (
{
horizontal = 1;
place = "{2, 81}";
type = Stem;
}
);
layerId = "5B3AE2B2-6F0E-4414-97DF-6676E601E692";
paths = (
{
closed = 1;
nodes = (
"291 2 LINE",
"472 517 LINE",
"387 517 LINE SMOOTH",
"387 517 OFFCURVE",
"318 312 OFFCURVE",
"287 209 CURVE SMOOTH",
"248 81 LINE",
"208 211 LINE SMOOTH",
"176 315 OFFCURVE",
"110 517 OFFCURVE",
"110 517 CURVE SMOOTH",
"25 517 LINE",
"205 2 LINE"
);
}
);
width = 497;
}
);
leftKerningGroup = v;
note = v;
rightKerningGroup = v;
unicode = 0076;
},
{
glyphname = w;
layers = (
{
hints = (
{
horizontal = 1;
place = "{0, 81}";
type = Stem;
},
{
horizontal = 1;
place = "{436, 81}";
type = Stem;
}
);
layerId = "5B3AE2B2-6F0E-4414-97DF-6676E601E692";
paths = (
{
closed = 1;
nodes = (
"281 0 LINE",
"409 436 LINE",
"536 0 LINE",
"622 0 LINE",
"793 517 LINE",
"708 517 LINE SMOOTH",
"708 517 OFFCURVE",
"642 311 OFFCURVE",
"614 208 CURVE SMOOTH",
"603 165 OFFCURVE",
"580 80 OFFCURVE",
"580 80 CURVE SMOOTH",
"580 80 OFFCURVE",
"554 163 OFFCURVE",
"543 206 CURVE SMOOTH",
"515 313 OFFCURVE",
"451 517 OFFCURVE",
"451 517 CURVE SMOOTH",
"366 517 LINE SMOOTH",
"366 517 OFFCURVE",
"300 312 OFFCURVE",
"273 208 CURVE SMOOTH",
"262 165 OFFCURVE",
"238 80 OFFCURVE",
"238 80 CURVE SMOOTH",
"238 80 OFFCURVE",
"215 166 OFFCURVE",
"202 210 CURVE SMOOTH",
"173 314 OFFCURVE",
"110 517 OFFCURVE",
"110 517 CURVE SMOOTH",
"25 517 LINE",
"195 0 LINE"
);
}
);
width = 818;
}
);
leftKerningGroup = v;
note = w;
unicode = 0077;
},
{
glyphname = wacute;
layers = (
{
hints = (
{
horizontal = 1;
place = "{0, 81}";
type = Stem;
},
{
horizontal = 1;
place = "{436, 81}";
type = Stem;
},
{
horizontal = 1;
place = "{617, 99}";
type = Stem;
},
{
place = "{297, 188}";
type = Stem;
}
);
layerId = "5B3AE2B2-6F0E-4414-97DF-6676E601E692";
paths = (
{
closed = 1;
nodes = (
"421 650 LINE SMOOTH",
"456 683 OFFCURVE",
"485 716 OFFCURVE",
"485 716 CURVE SMOOTH",
"405 716 LINE SMOOTH",
"405 716 OFFCURVE",
"365 683 OFFCURVE",
"331 650 CURVE SMOOTH",
"297 617 LINE",
"388 617 LINE"
);
},
{
closed = 1;
nodes = (
"281 0 LINE",
"409 436 LINE",
"536 0 LINE",
"622 0 LINE",
"793 517 LINE",
"708 517 LINE SMOOTH",
"708 517 OFFCURVE",
"642 311 OFFCURVE",
"614 208 CURVE SMOOTH",
"603 165 OFFCURVE",
"580 80 OFFCURVE",
"580 80 CURVE SMOOTH",
"580 80 OFFCURVE",
"554 163 OFFCURVE",
"543 206 CURVE SMOOTH",
"515 313 OFFCURVE",
"451 517 OFFCURVE",
"451 517 CURVE SMOOTH",
"366 517 LINE SMOOTH",
"366 517 OFFCURVE",
"300 312 OFFCURVE",
"273 208 CURVE SMOOTH",
"262 165 OFFCURVE",
"238 80 OFFCURVE",
"238 80 CURVE SMOOTH",
"238 80 OFFCURVE",
"215 166 OFFCURVE",
"202 210 CURVE SMOOTH",
"173 314 OFFCURVE",
"110 517 OFFCURVE",
"110 517 CURVE SMOOTH",
"25 517 LINE",
"195 0 LINE"
);
}
);
width = 818;
}
);
note = wacute;
unicode = 1E83;
},
{
glyphname = wcircumflex;
layers = (
{
hints = (
{
horizontal = 1;
place = "{0, 81}";
type = Stem;
},
{
horizontal = 1;
place = "{436, 81}";
type = Stem;
},
{
horizontal = 1;
place = "{617, 99}";
type = Stem;
},
{
place = "{292, 208}";
type = Stem;
},
{
horizontal = 1;
place = "{682, 34}";
type = Stem;
}
);
layerId = "5B3AE2B2-6F0E-4414-97DF-6676E601E692";
paths = (
{
closed = 1;
nodes = (
"292 617 LINE",
"354 617 LINE",
"396 682 LINE",
"437 617 LINE",
"500 617 LINE",
"437 716 LINE",
"354 716 LINE"
);
},
{
closed = 1;
nodes = (
"281 0 LINE",
"409 436 LINE",
"536 0 LINE",
"622 0 LINE",
"793 517 LINE",
"708 517 LINE SMOOTH",
"708 517 OFFCURVE",
"642 311 OFFCURVE",
"614 208 CURVE SMOOTH",
"603 165 OFFCURVE",
"580 80 OFFCURVE",
"580 80 CURVE SMOOTH",
"580 80 OFFCURVE",
"554 163 OFFCURVE",
"543 206 CURVE SMOOTH",
"515 313 OFFCURVE",
"451 517 OFFCURVE",
"451 517 CURVE SMOOTH",
"366 517 LINE SMOOTH",
"366 517 OFFCURVE",
"300 312 OFFCURVE",
"273 208 CURVE SMOOTH",
"262 165 OFFCURVE",
"238 80 OFFCURVE",
"238 80 CURVE SMOOTH",
"238 80 OFFCURVE",
"215 166 OFFCURVE",
"202 210 CURVE SMOOTH",
"173 314 OFFCURVE",
"110 517 OFFCURVE",
"110 517 CURVE SMOOTH",
"25 517 LINE",
"195 0 LINE"
);
}
);
width = 818;
}
);
note = wcircumflex;
unicode = 0175;
},
{
glyphname = wdieresis;
layers = (
{
hints = (
{
horizontal = 1;
place = "{0, 81}";
type = Stem;
},
{
horizontal = 1;
place = "{436, 81}";
type = Stem;
},
{
horizontal = 1;
place = "{630, 102}";
type = Stem;
},
{
place = "{258, 104}";
type = Stem;
},
{
place = "{452, 104}";
type = Stem;
}
);
layerId = "5B3AE2B2-6F0E-4414-97DF-6676E601E692";
paths = (
{
closed = 1;
nodes = (
"258 652 OFFCURVE",
"280 630 OFFCURVE",
"310 630 CURVE SMOOTH",
"340 630 OFFCURVE",
"362 652 OFFCURVE",
"362 681 CURVE SMOOTH",
"362 710 OFFCURVE",
"340 732 OFFCURVE",
"310 732 CURVE SMOOTH",
"280 732 OFFCURVE",
"258 710 OFFCURVE",
"258 681 CURVE SMOOTH"
);
},
{
closed = 1;
nodes = (
"452 652 OFFCURVE",
"474 630 OFFCURVE",
"504 630 CURVE SMOOTH",
"534 630 OFFCURVE",
"556 652 OFFCURVE",
"556 681 CURVE SMOOTH",
"556 710 OFFCURVE",
"534 732 OFFCURVE",
"504 732 CURVE SMOOTH",
"474 732 OFFCURVE",
"452 710 OFFCURVE",
"452 681 CURVE SMOOTH"
);
},
{
closed = 1;
nodes = (
"281 0 LINE",
"409 436 LINE",
"536 0 LINE",
"622 0 LINE",
"793 517 LINE",
"708 517 LINE SMOOTH",
"708 517 OFFCURVE",
"642 311 OFFCURVE",
"614 208 CURVE SMOOTH",
"603 165 OFFCURVE",
"580 80 OFFCURVE",
"580 80 CURVE SMOOTH",
"580 80 OFFCURVE",
"554 163 OFFCURVE",
"543 206 CURVE SMOOTH",
"515 313 OFFCURVE",
"451 517 OFFCURVE",
"451 517 CURVE SMOOTH",
"366 517 LINE SMOOTH",
"366 517 OFFCURVE",
"300 312 OFFCURVE",
"273 208 CURVE SMOOTH",
"262 165 OFFCURVE",
"238 80 OFFCURVE",
"238 80 CURVE SMOOTH",
"238 80 OFFCURVE",
"215 166 OFFCURVE",
"202 210 CURVE SMOOTH",
"173 314 OFFCURVE",
"110 517 OFFCURVE",
"110 517 CURVE SMOOTH",
"25 517 LINE",
"195 0 LINE"
);
}
);
width = 818;
}
);
note = wdieresis;
unicode = 1E85;
},
{
glyphname = wgrave;
layers = (
{
hints = (
{
horizontal = 1;
place = "{0, 81}";
type = Stem;
},
{
horizontal = 1;
place = "{436, 81}";
type = Stem;
},
{
horizontal = 1;
place = "{617, 99}";
type = Stem;
},
{
place = "{318, 188}";
type = Stem;
}
);
layerId = "5B3AE2B2-6F0E-4414-97DF-6676E601E692";
paths = (
{
closed = 1;
nodes = (
"382 650 LINE",
"415 617 LINE",
"506 617 LINE",
"472 650 LINE SMOOTH",
"438 683 OFFCURVE",
"398 716 OFFCURVE",
"398 716 CURVE SMOOTH",
"318 716 LINE"
);
},
{
closed = 1;
nodes = (
"281 0 LINE",
"409 436 LINE",
"536 0 LINE",
"622 0 LINE",
"793 517 LINE",
"708 517 LINE SMOOTH",
"708 517 OFFCURVE",
"642 311 OFFCURVE",
"614 208 CURVE SMOOTH",
"603 165 OFFCURVE",
"580 80 OFFCURVE",
"580 80 CURVE SMOOTH",
"580 80 OFFCURVE",
"554 163 OFFCURVE",
"543 206 CURVE SMOOTH",
"515 313 OFFCURVE",
"451 517 OFFCURVE",
"451 517 CURVE SMOOTH",
"366 517 LINE SMOOTH",
"366 517 OFFCURVE",
"300 312 OFFCURVE",
"273 208 CURVE SMOOTH",
"262 165 OFFCURVE",
"238 80 OFFCURVE",
"238 80 CURVE SMOOTH",
"238 80 OFFCURVE",
"215 166 OFFCURVE",
"202 210 CURVE SMOOTH",
"173 314 OFFCURVE",
"110 517 OFFCURVE",
"110 517 CURVE SMOOTH",
"25 517 LINE",
"195 0 LINE"
);
}
);
width = 818;
}
);
note = wgrave;
unicode = 1E81;
},
{
glyphname = x;
layers = (
{
hints = (
{
horizontal = 1;
place = "{0, 21}";
target = up;
type = BottomGhost;
},
{
horizontal = 1;
place = "{517, -20}";
target = down;
type = TopGhost;
},
{
place = "{25, 452}";
type = Stem;
}
);
layerId = "5B3AE2B2-6F0E-4414-97DF-6676E601E692";
paths = (
{
closed = 1;
nodes = (
"115 0 LINE",
"206 130 LINE SMOOTH",
"221 151 OFFCURVE",
"236 174 OFFCURVE",
"251 195 CURVE",
"296 129 LINE",
"387 0 LINE",
"477 0 LINE",
"339 198 LINE SMOOTH",
"325 218 OFFCURVE",
"308 239 OFFCURVE",
"294 259 CURVE",
"308 279 OFFCURVE",
"325 300 OFFCURVE",
"339 320 CURVE SMOOTH",
"477 517 LINE",
"387 517 LINE",
"295 385 LINE SMOOTH",
"280 364 OFFCURVE",
"266 342 OFFCURVE",
"251 321 CURVE",
"236 342 OFFCURVE",
"222 364 OFFCURVE",
"207 385 CURVE SMOOTH",
"115 517 LINE",
"25 517 LINE",
"167 315 LINE SMOOTH",
"180 296 OFFCURVE",
"195 278 OFFCURVE",
"208 259 CURVE",
"168 204 LINE",
"25 0 LINE"
);
}
);
width = 502;
}
);
leftKerningGroup = x;
note = x;
unicode = 0078;
},
{
glyphname = y;
layers = (
{
hints = (
{
horizontal = 1;
place = "{-181, 70}";
type = Stem;
},
{
horizontal = 1;
place = "{517, -20}";
target = down;
type = TopGhost;
},
{
place = "{25, 447}";
type = Stem;
},
{
horizontal = 1;
place = "{-172, 21}";
target = up;
type = BottomGhost;
}
);
layerId = "5B3AE2B2-6F0E-4414-97DF-6676E601E692";
paths = (
{
closed = 1;
nodes = (
"182 -59 LINE SMOOTH",
"166 -102 OFFCURVE",
"143 -111 OFFCURVE",
"116 -111 CURVE SMOOTH",
"96 -111 OFFCURVE",
"70 -105 OFFCURVE",
"70 -105 CURVE",
"70 -172 LINE",
"70 -172 OFFCURVE",
"91 -181 OFFCURVE",
"134 -181 CURVE SMOOTH",
"203 -181 OFFCURVE",
"242 -132 OFFCURVE",
"269 -67 CURVE",
"472 517 LINE",
"387 517 LINE SMOOTH",
"387 517 OFFCURVE",
"318 312 OFFCURVE",
"287 209 CURVE SMOOTH",
"248 81 LINE",
"208 211 LINE SMOOTH",
"176 315 OFFCURVE",
"110 517 OFFCURVE",
"110 517 CURVE SMOOTH",
"25 517 LINE",
"205 2 LINE"
);
}
);
width = 497;
}
);
leftKerningGroup = v;
note = y;
unicode = 0079;
},
{
glyphname = yacute;
layers = (
{
hints = (
{
horizontal = 1;
place = "{-181, 70}";
type = Stem;
},
{
horizontal = 1;
place = "{517, -20}";
target = down;
type = TopGhost;
},
{
horizontal = 1;
place = "{617, 99}";
type = Stem;
},
{
place = "{25, 447}";
type = Stem;
},
{
horizontal = 1;
place = "{-172, 21}";
target = up;
type = BottomGhost;
}
);
layerId = "5B3AE2B2-6F0E-4414-97DF-6676E601E692";
paths = (
{
closed = 1;
nodes = (
"260 650 LINE SMOOTH",
"295 683 OFFCURVE",
"324 716 OFFCURVE",
"324 716 CURVE SMOOTH",
"244 716 LINE SMOOTH",
"244 716 OFFCURVE",
"204 683 OFFCURVE",
"170 650 CURVE SMOOTH",
"136 617 LINE",
"227 617 LINE"
);
},
{
closed = 1;
nodes = (
"182 -59 LINE SMOOTH",
"166 -102 OFFCURVE",
"143 -111 OFFCURVE",
"116 -111 CURVE SMOOTH",
"96 -111 OFFCURVE",
"70 -105 OFFCURVE",
"70 -105 CURVE",
"70 -172 LINE",
"70 -172 OFFCURVE",
"91 -181 OFFCURVE",
"134 -181 CURVE SMOOTH",
"203 -181 OFFCURVE",
"242 -132 OFFCURVE",
"269 -67 CURVE",
"472 517 LINE",
"387 517 LINE SMOOTH",
"387 517 OFFCURVE",
"318 312 OFFCURVE",
"287 209 CURVE SMOOTH",
"248 81 LINE",
"208 211 LINE SMOOTH",
"176 315 OFFCURVE",
"110 517 OFFCURVE",
"110 517 CURVE SMOOTH",
"25 517 LINE",
"205 2 LINE"
);
}
);
width = 497;
}
);
note = yacute;
unicode = 00FD;
},
{
glyphname = ycircumflex;
layers = (
{
hints = (
{
horizontal = 1;
place = "{-181, 70}";
type = Stem;
},
{
horizontal = 1;
place = "{517, -20}";
target = down;
type = TopGhost;
},
{
horizontal = 1;
place = "{617, 99}";
type = Stem;
},
{
place = "{25, 447}";
type = Stem;
},
{
horizontal = 1;
place = "{682, 34}";
type = Stem;
},
{
horizontal = 1;
place = "{-172, 21}";
target = up;
type = BottomGhost;
}
);
layerId = "5B3AE2B2-6F0E-4414-97DF-6676E601E692";
paths = (
{
closed = 1;
nodes = (
"131 617 LINE",
"193 617 LINE",
"235 682 LINE",
"276 617 LINE",
"339 617 LINE",
"276 716 LINE",
"193 716 LINE"
);
},
{
closed = 1;
nodes = (
"182 -59 LINE SMOOTH",
"166 -102 OFFCURVE",
"143 -111 OFFCURVE",
"116 -111 CURVE SMOOTH",
"96 -111 OFFCURVE",
"70 -105 OFFCURVE",
"70 -105 CURVE",
"70 -172 LINE",
"70 -172 OFFCURVE",
"91 -181 OFFCURVE",
"134 -181 CURVE SMOOTH",
"203 -181 OFFCURVE",
"242 -132 OFFCURVE",
"269 -67 CURVE",
"472 517 LINE",
"387 517 LINE SMOOTH",
"387 517 OFFCURVE",
"318 312 OFFCURVE",
"287 209 CURVE SMOOTH",
"248 81 LINE",
"208 211 LINE SMOOTH",
"176 315 OFFCURVE",
"110 517 OFFCURVE",
"110 517 CURVE SMOOTH",
"25 517 LINE",
"205 2 LINE"
);
}
);
width = 497;
}
);
note = ycircumflex;
unicode = 0177;
},
{
glyphname = ydieresis;
layers = (
{
hints = (
{
horizontal = 1;
place = "{-181, 70}";
type = Stem;
},
{
horizontal = 1;
place = "{517, -20}";
target = down;
type = TopGhost;
},
{
horizontal = 1;
place = "{630, 102}";
type = Stem;
},
{
place = "{117, 104}";
type = Stem;
},
{
place = "{311, 104}";
type = Stem;
},
{
horizontal = 1;
place = "{-172, 21}";
target = up;
type = BottomGhost;
}
);
layerId = "5B3AE2B2-6F0E-4414-97DF-6676E601E692";
paths = (
{
closed = 1;
nodes = (
"117 652 OFFCURVE",
"139 630 OFFCURVE",
"169 630 CURVE SMOOTH",
"199 630 OFFCURVE",
"221 652 OFFCURVE",
"221 681 CURVE SMOOTH",
"221 710 OFFCURVE",
"199 732 OFFCURVE",
"169 732 CURVE SMOOTH",
"139 732 OFFCURVE",
"117 710 OFFCURVE",
"117 681 CURVE SMOOTH"
);
},
{
closed = 1;
nodes = (
"311 652 OFFCURVE",
"333 630 OFFCURVE",
"363 630 CURVE SMOOTH",
"393 630 OFFCURVE",
"415 652 OFFCURVE",
"415 681 CURVE SMOOTH",
"415 710 OFFCURVE",
"393 732 OFFCURVE",
"363 732 CURVE SMOOTH",
"333 732 OFFCURVE",
"311 710 OFFCURVE",
"311 681 CURVE SMOOTH"
);
},
{
closed = 1;
nodes = (
"182 -59 LINE SMOOTH",
"166 -102 OFFCURVE",
"143 -111 OFFCURVE",
"116 -111 CURVE SMOOTH",
"96 -111 OFFCURVE",
"70 -105 OFFCURVE",
"70 -105 CURVE",
"70 -172 LINE",
"70 -172 OFFCURVE",
"91 -181 OFFCURVE",
"134 -181 CURVE SMOOTH",
"203 -181 OFFCURVE",
"242 -132 OFFCURVE",
"269 -67 CURVE",
"472 517 LINE",
"387 517 LINE SMOOTH",
"387 517 OFFCURVE",
"318 312 OFFCURVE",
"287 209 CURVE SMOOTH",
"248 81 LINE",
"208 211 LINE SMOOTH",
"176 315 OFFCURVE",
"110 517 OFFCURVE",
"110 517 CURVE SMOOTH",
"25 517 LINE",
"205 2 LINE"
);
}
);
width = 497;
}
);
note = ydieresis;
unicode = 00FF;
},
{
glyphname = ygrave;
layers = (
{
hints = (
{
horizontal = 1;
place = "{-181, 70}";
type = Stem;
},
{
horizontal = 1;
place = "{517, -20}";
target = down;
type = TopGhost;
},
{
horizontal = 1;
place = "{617, 99}";
type = Stem;
},
{
place = "{25, 447}";
type = Stem;
},
{
horizontal = 1;
place = "{-172, 21}";
target = up;
type = BottomGhost;
}
);
layerId = "5B3AE2B2-6F0E-4414-97DF-6676E601E692";
paths = (
{
closed = 1;
nodes = (
"222 650 LINE",
"255 617 LINE",
"346 617 LINE",
"312 650 LINE SMOOTH",
"278 683 OFFCURVE",
"238 716 OFFCURVE",
"238 716 CURVE SMOOTH",
"158 716 LINE"
);
},
{
closed = 1;
nodes = (
"182 -59 LINE SMOOTH",
"166 -102 OFFCURVE",
"143 -111 OFFCURVE",
"116 -111 CURVE SMOOTH",
"96 -111 OFFCURVE",
"70 -105 OFFCURVE",
"70 -105 CURVE",
"70 -172 LINE",
"70 -172 OFFCURVE",
"91 -181 OFFCURVE",
"134 -181 CURVE SMOOTH",
"203 -181 OFFCURVE",
"242 -132 OFFCURVE",
"269 -67 CURVE",
"472 517 LINE",
"387 517 LINE SMOOTH",
"387 517 OFFCURVE",
"318 312 OFFCURVE",
"287 209 CURVE SMOOTH",
"248 81 LINE",
"208 211 LINE SMOOTH",
"176 315 OFFCURVE",
"110 517 OFFCURVE",
"110 517 CURVE SMOOTH",
"25 517 LINE",
"205 2 LINE"
);
}
);
width = 497;
}
);
note = ygrave;
unicode = 1EF3;
},
{
glyphname = z;
layers = (
{
hints = (
{
horizontal = 1;
place = "{0, 67}";
type = Stem;
},
{
horizontal = 1;
place = "{450, 67}";
type = Stem;
},
{
place = "{25, 406}";
type = Stem;
}
);
layerId = "5B3AE2B2-6F0E-4414-97DF-6676E601E692";
paths = (
{
closed = 1;
nodes = (
"431 67 LINE",
"114 67 LINE",
"186 154 LINE",
"426 452 LINE",
"426 517 LINE",
"50 517 LINE",
"50 450 LINE",
"337 450 LINE",
"337 450 OFFCURVE",
"295 401 OFFCURVE",
"277 378 CURVE SMOOTH",
"25 65 LINE",
"25 1 LINE",
"431 0 LINE"
);
}
);
width = 456;
}
);
note = z;
unicode = 007A;
},
{
glyphname = a.001;
layers = (
{
hints = (
{
horizontal = 1;
place = "{-3, 67}";
type = Stem;
},
{
horizontal = 1;
place = "{460, 71}";
type = Stem;
},
{
place = "{43, 82}";
type = Stem;
},
{
place = "{383, 75}";
type = Stem;
},
{
horizontal = 1;
place = "{-13, 68}";
type = Stem;
}
);
layerId = "5B3AE2B2-6F0E-4414-97DF-6676E601E692";
paths = (
{
closed = 1;
nodes = (
"458 207 LINE SMOOTH",
"458 266 OFFCURVE",
"459 342 OFFCURVE",
"458 389 CURVE SMOOTH",
"457 474 OFFCURVE",
"386 531 OFFCURVE",
"257 531 CURVE SMOOTH",
"147 531 OFFCURVE",
"69 457 OFFCURVE",
"59 368 CURVE",
"143 368 LINE",
"149 432 OFFCURVE",
"199 460 OFFCURVE",
"268 460 CURVE SMOOTH",
"334 460 OFFCURVE",
"376 435 OFFCURVE",
"376 392 CURVE SMOOTH",
"376 339 OFFCURVE",
"326 326 OFFCURVE",
"234 302 CURVE SMOOTH",
"125 277 OFFCURVE",
"43 255 OFFCURVE",
"43 145 CURVE SMOOTH",
"43 52 OFFCURVE",
"131 -13 OFFCURVE",
"208 -13 CURVE SMOOTH",
"334 -13 OFFCURVE",
"368 50 OFFCURVE",
"383 69 CURVE",
"389 23 OFFCURVE",
"425 -3 OFFCURVE",
"484 -3 CURVE SMOOTH",
"514 -3 OFFCURVE",
"517 -1 OFFCURVE",
"517 -1 CURVE",
"517 64 LINE",
"476 64 OFFCURVE",
"458 77 OFFCURVE",
"458 121 CURVE SMOOTH"
);
},
{
closed = 1;
nodes = (
"182 55 OFFCURVE",
"125 86 OFFCURVE",
"125 140 CURVE SMOOTH",
"125 182 OFFCURVE",
"143 215 OFFCURVE",
"244 239 CURVE SMOOTH",
"305 253 OFFCURVE",
"352 270 OFFCURVE",
"382 292 CURVE",
"383 226 LINE",
"383 192 LINE SMOOTH",
"384 119 OFFCURVE",
"308 55 OFFCURVE",
"234 55 CURVE SMOOTH"
);
}
);
width = 542;
}
);
note = a.001;
rightKerningGroup = a;
},
{
glyphname = g.001;
layers = (
{
hints = (
{
horizontal = 1;
place = "{-182, 68}";
type = Stem;
},
{
horizontal = 1;
place = "{18, 65}";
type = Stem;
},
{
horizontal = 1;
place = "{517, -20}";
target = down;
type = TopGhost;
},
{
place = "{64, 81}";
type = Stem;
},
{
place = "{428, 81}";
type = Stem;
},
{
horizontal = 1;
place = "{465, 65}";
type = Stem;
},
{
place = "{43, 82}";
type = Stem;
}
);
layerId = "5B3AE2B2-6F0E-4414-97DF-6676E601E692";
paths = (
{
closed = 1;
nodes = (
"409 -182 OFFCURVE",
"509 -116 OFFCURVE",
"509 60 CURVE SMOOTH",
"509 517 LINE",
"428 517 LINE",
"428 441 LINE",
"406 483 OFFCURVE",
"340 530 OFFCURVE",
"251 530 CURVE SMOOTH",
"141 530 OFFCURVE",
"43 434 OFFCURVE",
"43 274 CURVE SMOOTH",
"43 115 OFFCURVE",
"140 18 OFFCURVE",
"251 18 CURVE SMOOTH",
"340 18 OFFCURVE",
"406 64 OFFCURVE",
"428 108 CURVE",
"428 68 LINE SMOOTH",
"428 -65 OFFCURVE",
"379 -114 OFFCURVE",
"278 -114 CURVE SMOOTH",
"168 -114 OFFCURVE",
"154 -64 OFFCURVE",
"145 -32 CURVE",
"64 -31 LINE",
"74 -108 OFFCURVE",
"138 -182 OFFCURVE",
"278 -182 CURVE SMOOTH"
);
},
{
closed = 1;
nodes = (
"125 398 OFFCURVE",
"197 465 OFFCURVE",
"276 465 CURVE SMOOTH",
"375 465 OFFCURVE",
"428 380 OFFCURVE",
"428 275 CURVE SMOOTH",
"428 167 OFFCURVE",
"375 83 OFFCURVE",
"276 83 CURVE SMOOTH",
"198 83 OFFCURVE",
"125 149 OFFCURVE",
"125 275 CURVE SMOOTH"
);
}
);
width = 586;
}
);
note = g.001;
},
{
glyphname = zero;
layers = (
{
hints = (
{
horizontal = 1;
place = "{-15, 75}";
type = Stem;
},
{
horizontal = 1;
place = "{655, 75}";
type = Stem;
},
{
place = "{42, 87}";
type = Stem;
},
{
place = "{478, 87}";
type = Stem;
}
);
layerId = "5B3AE2B2-6F0E-4414-97DF-6676E601E692";
paths = (
{
closed = 1;
nodes = (
"465 -15 OFFCURVE",
"565 102 OFFCURVE",
"565 357 CURVE SMOOTH",
"565 613 OFFCURVE",
"465 730 OFFCURVE",
"304 730 CURVE SMOOTH",
"145 730 OFFCURVE",
"42 613 OFFCURVE",
"42 357 CURVE SMOOTH",
"42 102 OFFCURVE",
"145 -15 OFFCURVE",
"304 -15 CURVE SMOOTH"
);
},
{
closed = 1;
nodes = (
"129 567 OFFCURVE",
"196 655 OFFCURVE",
"305 655 CURVE SMOOTH",
"414 655 OFFCURVE",
"478 567 OFFCURVE",
"478 356 CURVE SMOOTH",
"478 147 OFFCURVE",
"414 60 OFFCURVE",
"305 60 CURVE SMOOTH",
"196 60 OFFCURVE",
"129 147 OFFCURVE",
"129 356 CURVE SMOOTH"
);
}
);
width = 607;
}
);
note = zero;
unicode = 0030;
},
{
glyphname = one;
layers = (
{
hints = (
{
horizontal = 1;
place = "{0, 21}";
target = up;
type = BottomGhost;
},
{
horizontal = 1;
place = "{531, 184}";
type = Stem;
},
{
place = "{184, 85}";
type = Stem;
},
{
horizontal = 1;
place = "{531, 58}";
type = Stem;
}
);
layerId = "5B3AE2B2-6F0E-4414-97DF-6676E601E692";
paths = (
{
closed = 1;
nodes = (
"269 0 LINE",
"269 715 LINE",
"184 715 LINE",
"184 634 OFFCURVE",
"92 589 OFFCURVE",
"37 589 CURVE",
"37 531 LINE",
"184 531 LINE",
"184 0 LINE"
);
}
);
width = 393;
}
);
note = one;
unicode = 0031;
},
{
glyphname = two;
layers = (
{
hints = (
{
horizontal = 1;
place = "{0, 71}";
type = Stem;
},
{
horizontal = 1;
place = "{657, 75}";
type = Stem;
},
{
place = "{53, 85}";
type = Stem;
},
{
place = "{423, 87}";
type = Stem;
}
);
layerId = "5B3AE2B2-6F0E-4414-97DF-6676E601E692";
paths = (
{
closed = 1;
nodes = (
"512 0 LINE",
"512 71 LINE",
"157 71 LINE",
"188 205 OFFCURVE",
"311 238 OFFCURVE",
"446 390 CURVE SMOOTH",
"485 434 OFFCURVE",
"510 481 OFFCURVE",
"510 548 CURVE SMOOTH",
"510 650 OFFCURVE",
"417 732 OFFCURVE",
"281 732 CURVE SMOOTH",
"146 732 OFFCURVE",
"53 650 OFFCURVE",
"53 548 CURVE",
"138 548 LINE",
"138 606 OFFCURVE",
"192 657 OFFCURVE",
"281 657 CURVE SMOOTH",
"371 657 OFFCURVE",
"423 606 OFFCURVE",
"423 540 CURVE SMOOTH",
"423 515 OFFCURVE",
"417 471 OFFCURVE",
"382 430 CURVE SMOOTH",
"272 301 OFFCURVE",
"98 265 OFFCURVE",
"42 0 CURVE"
);
}
);
width = 567;
}
);
note = two;
unicode = 0032;
},
{
glyphname = three;
layers = (
{
hints = (
{
horizontal = 1;
place = "{-15, 75}";
type = Stem;
},
{
horizontal = 1;
place = "{355, 71}";
type = Stem;
},
{
horizontal = 1;
place = "{660, 72}";
type = Stem;
},
{
place = "{42, 85}";
type = Stem;
},
{
place = "{440, 87}";
type = Stem;
},
{
place = "{56, 85}";
type = Stem;
},
{
place = "{426, 87}";
type = Stem;
}
);
layerId = "5B3AE2B2-6F0E-4414-97DF-6676E601E692";
paths = (
{
closed = 1;
nodes = (
"429 -15 OFFCURVE",
"527 78 OFFCURVE",
"527 195 CURVE SMOOTH",
"527 281 OFFCURVE",
"476 355 OFFCURVE",
"394 389 CURVE",
"468 419 OFFCURVE",
"513 478 OFFCURVE",
"513 548 CURVE SMOOTH",
"513 650 OFFCURVE",
"420 732 OFFCURVE",
"284 732 CURVE SMOOTH",
"149 732 OFFCURVE",
"56 650 OFFCURVE",
"56 548 CURVE",
"141 548 LINE",
"141 610 OFFCURVE",
"199 660 OFFCURVE",
"284 660 CURVE SMOOTH",
"370 660 OFFCURVE",
"426 610 OFFCURVE",
"426 545 CURVE SMOOTH",
"426 482 OFFCURVE",
"380 426 OFFCURVE",
"294 426 CURVE SMOOTH",
"234 426 LINE",
"233 355 LINE",
"294 355 LINE SMOOTH",
"394 355 OFFCURVE",
"440 286 OFFCURVE",
"440 205 CURVE SMOOTH",
"440 124 OFFCURVE",
"384 60 OFFCURVE",
"284 60 CURVE SMOOTH",
"185 60 OFFCURVE",
"127 126 OFFCURVE",
"127 195 CURVE",
"42 195 LINE",
"42 78 OFFCURVE",
"140 -15 OFFCURVE",
"284 -15 CURVE SMOOTH"
);
}
);
width = 569;
}
);
note = three;
unicode = 0033;
},
{
glyphname = four;
layers = (
{
hints = (
{
horizontal = 1;
place = "{0, 21}";
target = up;
type = BottomGhost;
},
{
horizontal = 1;
place = "{187, 71}";
type = Stem;
},
{
horizontal = 1;
place = "{715, -20}";
target = down;
type = TopGhost;
},
{
place = "{393, 85}";
type = Stem;
}
);
layerId = "5B3AE2B2-6F0E-4414-97DF-6676E601E692";
paths = (
{
closed = 1;
nodes = (
"393 187 LINE",
"393 0 LINE",
"478 0 LINE",
"478 187 LINE",
"557 187 LINE",
"557 258 LINE",
"478 258 LINE",
"478 715 LINE",
"393 715 LINE",
"40 258 LINE",
"40 187 LINE"
);
},
{
closed = 1;
nodes = (
"393 594 LINE",
"393 258 LINE",
"137 258 LINE"
);
}
);
width = 612;
}
);
note = four;
unicode = 0034;
},
{
glyphname = five;
layers = (
{
hints = (
{
horizontal = 1;
place = "{-10, 75}";
type = Stem;
},
{
horizontal = 1;
place = "{398, 75}";
type = Stem;
},
{
horizontal = 1;
place = "{644, 71}";
type = Stem;
},
{
place = "{433, 85}";
type = Stem;
}
);
layerId = "5B3AE2B2-6F0E-4414-97DF-6676E601E692";
paths = (
{
closed = 1;
nodes = (
"420 -10 OFFCURVE",
"518 97 OFFCURVE",
"518 232 CURVE SMOOTH",
"518 366 OFFCURVE",
"420 473 OFFCURVE",
"277 473 CURVE SMOOTH",
"220 473 OFFCURVE",
"170 456 OFFCURVE",
"130 427 CURVE",
"158 644 LINE",
"497 644 LINE",
"497 715 LINE",
"91 715 LINE",
"42 333 LINE",
"127 327 LINE",
"155 368 OFFCURVE",
"199 398 OFFCURVE",
"259 398 CURVE SMOOTH",
"377 398 OFFCURVE",
"433 322 OFFCURVE",
"433 232 CURVE SMOOTH",
"433 141 OFFCURVE",
"377 65 OFFCURVE",
"277 65 CURVE SMOOTH",
"202 65 OFFCURVE",
"150 110 OFFCURVE",
"128 169 CURVE",
"43 166 LINE",
"70 64 OFFCURVE",
"157 -10 OFFCURVE",
"277 -10 CURVE SMOOTH"
);
}
);
width = 560;
}
);
note = five;
unicode = 0035;
},
{
glyphname = six;
layers = (
{
hints = (
{
horizontal = 1;
place = "{-15, 75}";
type = Stem;
},
{
horizontal = 1;
place = "{393, 75}";
type = Stem;
},
{
horizontal = 1;
place = "{655, 75}";
type = Stem;
},
{
place = "{42, 80}";
type = Stem;
},
{
place = "{458, 87}";
type = Stem;
}
);
layerId = "5B3AE2B2-6F0E-4414-97DF-6676E601E692";
paths = (
{
closed = 1;
nodes = (
"447 -15 OFFCURVE",
"545 92 OFFCURVE",
"545 226 CURVE SMOOTH",
"545 361 OFFCURVE",
"447 468 OFFCURVE",
"303 468 CURVE SMOOTH",
"224 468 OFFCURVE",
"165 435 OFFCURVE",
"122 382 CURVE",
"128 576 OFFCURVE",
"191 655 OFFCURVE",
"303 655 CURVE SMOOTH",
"383 655 OFFCURVE",
"452 615 OFFCURVE",
"462 520 CURVE",
"547 521 LINE",
"531 663 OFFCURVE",
"423 730 OFFCURVE",
"303 730 CURVE SMOOTH",
"142 730 OFFCURVE",
"42 613 OFFCURVE",
"42 358 CURVE SMOOTH",
"42 272 OFFCURVE",
"53 202 OFFCURVE",
"74 146 CURVE",
"85 112 OFFCURVE",
"104 81 OFFCURVE",
"128 56 CURVE SMOOTH",
"172 8 OFFCURVE",
"232 -15 OFFCURVE",
"303 -15 CURVE SMOOTH"
);
},
{
closed = 1;
nodes = (
"142 320 OFFCURVE",
"200 393 OFFCURVE",
"302 393 CURVE SMOOTH",
"406 393 OFFCURVE",
"458 320 OFFCURVE",
"458 226 CURVE SMOOTH",
"458 133 OFFCURVE",
"406 60 OFFCURVE",
"302 60 CURVE SMOOTH",
"200 60 OFFCURVE",
"142 133 OFFCURVE",
"142 226 CURVE SMOOTH"
);
}
);
width = 589;
}
);
note = six;
unicode = 0036;
},
{
glyphname = seven;
layers = (
{
hints = (
{
horizontal = 1;
place = "{0, 21}";
target = up;
type = BottomGhost;
},
{
horizontal = 1;
place = "{644, 71}";
type = Stem;
},
{
place = "{120, 85}";
type = Stem;
}
);
layerId = "5B3AE2B2-6F0E-4414-97DF-6676E601E692";
paths = (
{
closed = 1;
nodes = (
"205 0 LINE",
"213 305 OFFCURVE",
"383 495 OFFCURVE",
"577 646 CURVE",
"577 715 LINE",
"37 715 LINE",
"37 644 LINE",
"472 644 LINE",
"286 506 OFFCURVE",
"120 252 OFFCURVE",
"120 0 CURVE"
);
}
);
width = 577;
}
);
note = seven;
unicode = 0037;
},
{
glyphname = eight;
layers = (
{
hints = (
{
horizontal = 1;
place = "{-15, 75}";
type = Stem;
},
{
horizontal = 1;
place = "{370, 71}";
type = Stem;
},
{
horizontal = 1;
place = "{656, 75}";
type = Stem;
},
{
place = "{42, 87}";
type = Stem;
},
{
place = "{460, 87}";
type = Stem;
},
{
place = "{77, 87}";
type = Stem;
},
{
place = "{425, 87}";
type = Stem;
}
);
layerId = "5B3AE2B2-6F0E-4414-97DF-6676E601E692";
paths = (
{
closed = 1;
nodes = (
"445 -15 OFFCURVE",
"547 82 OFFCURVE",
"547 204 CURVE SMOOTH",
"547 294 OFFCURVE",
"493 370 OFFCURVE",
"405 404 CURVE",
"472 434 OFFCURVE",
"512 490 OFFCURVE",
"512 555 CURVE SMOOTH",
"512 653 OFFCURVE",
"424 731 OFFCURVE",
"294 731 CURVE SMOOTH",
"165 731 OFFCURVE",
"77 653 OFFCURVE",
"77 555 CURVE SMOOTH",
"77 490 OFFCURVE",
"117 434 OFFCURVE",
"183 404 CURVE",
"96 370 OFFCURVE",
"42 295 OFFCURVE",
"42 204 CURVE SMOOTH",
"42 82 OFFCURVE",
"144 -15 OFFCURVE",
"294 -15 CURVE SMOOTH"
);
},
{
closed = 1;
nodes = (
"164 609 OFFCURVE",
"210 656 OFFCURVE",
"294 656 CURVE SMOOTH",
"379 656 OFFCURVE",
"425 609 OFFCURVE",
"425 548 CURVE SMOOTH",
"425 488 OFFCURVE",
"379 441 OFFCURVE",
"294 441 CURVE SMOOTH",
"210 441 OFFCURVE",
"164 488 OFFCURVE",
"164 548 CURVE SMOOTH"
);
},
{
closed = 1;
nodes = (
"129 302 OFFCURVE",
"188 370 OFFCURVE",
"294 370 CURVE SMOOTH",
"401 370 OFFCURVE",
"460 302 OFFCURVE",
"460 214 CURVE SMOOTH",
"460 129 OFFCURVE",
"401 60 OFFCURVE",
"294 60 CURVE SMOOTH",
"188 60 OFFCURVE",
"129 129 OFFCURVE",
"129 214 CURVE SMOOTH"
);
}
);
width = 589;
}
);
note = eight;
unicode = 0038;
},
{
glyphname = nine;
layers = (
{
hints = (
{
horizontal = 1;
place = "{8, 75}";
type = Stem;
},
{
horizontal = 1;
place = "{270, 75}";
type = Stem;
},
{
horizontal = 1;
place = "{678, 75}";
type = Stem;
},
{
place = "{44, 87}";
type = Stem;
},
{
place = "{467, 80}";
type = Stem;
}
);
layerId = "5B3AE2B2-6F0E-4414-97DF-6676E601E692";
paths = (
{
closed = 1;
nodes = (
"142 753 OFFCURVE",
"44 646 OFFCURVE",
"44 512 CURVE SMOOTH",
"44 377 OFFCURVE",
"142 270 OFFCURVE",
"286 270 CURVE SMOOTH",
"365 270 OFFCURVE",
"424 303 OFFCURVE",
"467 356 CURVE",
"461 162 OFFCURVE",
"398 83 OFFCURVE",
"286 83 CURVE SMOOTH",
"206 83 OFFCURVE",
"137 123 OFFCURVE",
"127 218 CURVE",
"42 217 LINE",
"58 75 OFFCURVE",
"166 8 OFFCURVE",
"286 8 CURVE SMOOTH",
"447 8 OFFCURVE",
"547 125 OFFCURVE",
"547 380 CURVE SMOOTH",
"547 466 OFFCURVE",
"536 536 OFFCURVE",
"515 592 CURVE",
"504 626 OFFCURVE",
"485 657 OFFCURVE",
"461 682 CURVE SMOOTH",
"417 730 OFFCURVE",
"357 753 OFFCURVE",
"286 753 CURVE SMOOTH"
);
},
{
closed = 1;
nodes = (
"447 418 OFFCURVE",
"389 345 OFFCURVE",
"287 345 CURVE SMOOTH",
"183 345 OFFCURVE",
"131 418 OFFCURVE",
"131 512 CURVE SMOOTH",
"131 605 OFFCURVE",
"183 678 OFFCURVE",
"287 678 CURVE SMOOTH",
"389 678 OFFCURVE",
"447 605 OFFCURVE",
"447 512 CURVE SMOOTH"
);
}
);
width = 589;
}
);
note = nine;
unicode = 0039;
},
{
glyphname = fraction;
layers = (
{
hints = (
{
horizontal = 1;
place = "{-15, 21}";
target = up;
type = BottomGhost;
},
{
horizontal = 1;
place = "{731, -20}";
target = down;
type = TopGhost;
},
{
place = "{75, 520}";
type = Stem;
}
);
layerId = "5B3AE2B2-6F0E-4414-97DF-6676E601E692";
paths = (
{
closed = 1;
nodes = (
"162 -15 LINE",
"595 731 LINE",
"508 731 LINE",
"75 -15 LINE"
);
}
);
width = 670;
}
);
note = fraction;
unicode = 2044;
},
{
glyphname = period;
layers = (
{
hints = (
{
horizontal = 1;
place = "{-3, 112}";
type = Stem;
},
{
place = "{77, 114}";
type = Stem;
}
);
layerId = "5B3AE2B2-6F0E-4414-97DF-6676E601E692";
paths = (
{
closed = 1;
nodes = (
"77 21 OFFCURVE",
"101 -3 OFFCURVE",
"134 -3 CURVE SMOOTH",
"167 -3 OFFCURVE",
"191 21 OFFCURVE",
"191 53 CURVE SMOOTH",
"191 85 OFFCURVE",
"167 109 OFFCURVE",
"134 109 CURVE SMOOTH",
"101 109 OFFCURVE",
"77 85 OFFCURVE",
"77 53 CURVE SMOOTH"
);
}
);
width = 268;
}
);
note = period;
unicode = 002E;
},
{
glyphname = comma;
layers = (
{
hints = (
{
horizontal = 1;
place = "{-123, 46}";
type = Stem;
},
{
horizontal = 1;
place = "{0, 21}";
target = up;
type = BottomGhost;
},
{
place = "{76, 52}";
type = Stem;
},
{
horizontal = 1;
place = "{0, 103}";
type = Stem;
}
);
layerId = "5B3AE2B2-6F0E-4414-97DF-6676E601E692";
paths = (
{
closed = 1;
nodes = (
"25 -123 LINE",
"79 -123 OFFCURVE",
"128 -83 OFFCURVE",
"128 29 CURVE SMOOTH",
"128 50 LINE SMOOTH",
"128 79 OFFCURVE",
"105 103 OFFCURVE",
"75 103 CURVE SMOOTH",
"45 103 OFFCURVE",
"23 80 OFFCURVE",
"23 51 CURVE SMOOTH",
"23 23 OFFCURVE",
"45 0 OFFCURVE",
"75 0 CURVE SMOOTH",
"76 0 LINE",
"76 -2 LINE SMOOTH",
"76 -59 OFFCURVE",
"38 -77 OFFCURVE",
"25 -77 CURVE"
);
}
);
width = 151;
}
);
note = comma;
unicode = 002C;
},
{
glyphname = colon;
layers = (
{
hints = (
{
horizontal = 1;
place = "{-8, 102}";
type = Stem;
},
{
horizontal = 1;
place = "{283, 102}";
type = Stem;
},
{
place = "{75, 104}";
type = Stem;
}
);
layerId = "5B3AE2B2-6F0E-4414-97DF-6676E601E692";
paths = (
{
closed = 1;
nodes = (
"75 305 OFFCURVE",
"97 283 OFFCURVE",
"127 283 CURVE SMOOTH",
"157 283 OFFCURVE",
"179 305 OFFCURVE",
"179 334 CURVE SMOOTH",
"179 363 OFFCURVE",
"157 385 OFFCURVE",
"127 385 CURVE SMOOTH",
"97 385 OFFCURVE",
"75 363 OFFCURVE",
"75 334 CURVE SMOOTH"
);
},
{
closed = 1;
nodes = (
"75 14 OFFCURVE",
"97 -8 OFFCURVE",
"127 -8 CURVE SMOOTH",
"157 -8 OFFCURVE",
"179 14 OFFCURVE",
"179 43 CURVE SMOOTH",
"179 72 OFFCURVE",
"157 94 OFFCURVE",
"127 94 CURVE SMOOTH",
"97 94 OFFCURVE",
"75 72 OFFCURVE",
"75 43 CURVE SMOOTH"
);
}
);
width = 248;
}
);
note = colon;
unicode = 003A;
},
{
glyphname = semicolon;
layers = (
{
hints = (
{
horizontal = 1;
place = "{-123, 46}";
type = Stem;
},
{
horizontal = 1;
place = "{0, 21}";
target = up;
type = BottomGhost;
},
{
horizontal = 1;
place = "{211, 102}";
type = Stem;
},
{
place = "{131, 104}";
type = Stem;
},
{
horizontal = 1;
place = "{0, 103}";
type = Stem;
},
{
place = "{130, 52}";
type = Stem;
}
);
layerId = "5B3AE2B2-6F0E-4414-97DF-6676E601E692";
paths = (
{
closed = 1;
nodes = (
"131 233 OFFCURVE",
"153 211 OFFCURVE",
"183 211 CURVE SMOOTH",
"213 211 OFFCURVE",
"235 233 OFFCURVE",
"235 262 CURVE SMOOTH",
"235 291 OFFCURVE",
"213 313 OFFCURVE",
"183 313 CURVE SMOOTH",
"153 313 OFFCURVE",
"131 291 OFFCURVE",
"131 262 CURVE SMOOTH"
);
},
{
closed = 1;
nodes = (
"79 -123 LINE",
"133 -123 OFFCURVE",
"182 -83 OFFCURVE",
"182 29 CURVE SMOOTH",
"182 50 LINE SMOOTH",
"182 79 OFFCURVE",
"159 103 OFFCURVE",
"129 103 CURVE SMOOTH",
"99 103 OFFCURVE",
"77 80 OFFCURVE",
"77 51 CURVE SMOOTH",
"77 23 OFFCURVE",
"99 0 OFFCURVE",
"129 0 CURVE SMOOTH",
"130 0 LINE",
"130 -2 LINE SMOOTH",
"130 -59 OFFCURVE",
"92 -77 OFFCURVE",
"79 -77 CURVE"
);
}
);
width = 312;
}
);
note = semicolon;
unicode = 003B;
},
{
glyphname = ellipsis;
layers = (
{
hints = (
{
horizontal = 1;
place = "{-3, 112}";
type = Stem;
},
{
place = "{77, 114}";
type = Stem;
}
);
layerId = "5B3AE2B2-6F0E-4414-97DF-6676E601E692";
paths = (
{
closed = 1;
nodes = (
"101 109 OFFCURVE",
"77 85 OFFCURVE",
"77 53 CURVE SMOOTH",
"77 21 OFFCURVE",
"101 -3 OFFCURVE",
"134 -3 CURVE SMOOTH",
"167 -3 OFFCURVE",
"191 21 OFFCURVE",
"191 53 CURVE SMOOTH",
"191 85 OFFCURVE",
"167 109 OFFCURVE",
"134 109 CURVE SMOOTH"
);
}
);
width = 251;
}
);
note = ellipsis;
unicode = 2026;
},
{
glyphname = exclam;
layers = (
{
hints = (
{
horizontal = 1;
place = "{-1, 102}";
type = Stem;
},
{
horizontal = 1;
place = "{716, -20}";
target = down;
type = TopGhost;
},
{
place = "{82, 85}";
type = Stem;
},
{
place = "{75, 104}";
type = Stem;
}
);
layerId = "5B3AE2B2-6F0E-4414-97DF-6676E601E692";
paths = (
{
closed = 1;
nodes = (
"167 199 LINE",
"167 716 LINE",
"82 716 LINE",
"82 199 LINE"
);
},
{
closed = 1;
nodes = (
"75 21 OFFCURVE",
"97 -1 OFFCURVE",
"127 -1 CURVE SMOOTH",
"157 -1 OFFCURVE",
"179 21 OFFCURVE",
"179 50 CURVE SMOOTH",
"179 79 OFFCURVE",
"157 101 OFFCURVE",
"127 101 CURVE SMOOTH",
"97 101 OFFCURVE",
"75 79 OFFCURVE",
"75 50 CURVE SMOOTH"
);
}
);
width = 254;
}
);
note = exclam;
unicode = 0021;
},
{
glyphname = exclamdown;
layers = (
{
hints = (
{
horizontal = 1;
place = "{-166, 21}";
target = up;
type = BottomGhost;
},
{
horizontal = 1;
place = "{449, 102}";
type = Stem;
},
{
place = "{75, 104}";
type = Stem;
},
{
place = "{87, 85}";
type = Stem;
}
);
layerId = "5B3AE2B2-6F0E-4414-97DF-6676E601E692";
paths = (
{
closed = 1;
nodes = (
"179 529 OFFCURVE",
"157 551 OFFCURVE",
"127 551 CURVE SMOOTH",
"97 551 OFFCURVE",
"75 529 OFFCURVE",
"75 500 CURVE SMOOTH",
"75 471 OFFCURVE",
"97 449 OFFCURVE",
"127 449 CURVE SMOOTH",
"157 449 OFFCURVE",
"179 471 OFFCURVE",
"179 500 CURVE SMOOTH"
);
},
{
closed = 1;
nodes = (
"87 351 LINE",
"87 -166 LINE",
"172 -166 LINE",
"172 351 LINE"
);
}
);
width = 254;
}
);
note = exclamdown;
unicode = 00A1;
},
{
glyphname = question;
layers = (
{
hints = (
{
horizontal = 1;
place = "{-3, 102}";
type = Stem;
},
{
horizontal = 1;
place = "{653, 75}";
type = Stem;
},
{
place = "{75, 81}";
type = Stem;
},
{
place = "{236, 85}";
type = Stem;
},
{
place = "{427, 87}";
type = Stem;
},
{
place = "{236, 104}";
type = Stem;
}
);
layerId = "5B3AE2B2-6F0E-4414-97DF-6676E601E692";
paths = (
{
closed = 1;
nodes = (
"321 193 LINE",
"321 256 OFFCURVE",
"334 301 OFFCURVE",
"399 345 CURVE SMOOTH",
"447 377 OFFCURVE",
"514 443 OFFCURVE",
"514 532 CURVE SMOOTH",
"514 648 OFFCURVE",
"432 728 OFFCURVE",
"301 728 CURVE SMOOTH",
"178 728 OFFCURVE",
"75 648 OFFCURVE",
"75 498 CURVE",
"156 498 LINE",
"155 613 OFFCURVE",
"228 653 OFFCURVE",
"301 653 CURVE SMOOTH",
"384 653 OFFCURVE",
"427 602 OFFCURVE",
"427 544 CURVE SMOOTH",
"427 477 OFFCURVE",
"405 434 OFFCURVE",
"342 390 CURVE SMOOTH",
"276 344 OFFCURVE",
"236 277 OFFCURVE",
"236 193 CURVE"
);
},
{
closed = 1;
nodes = (
"236 19 OFFCURVE",
"258 -3 OFFCURVE",
"288 -3 CURVE SMOOTH",
"318 -3 OFFCURVE",
"340 19 OFFCURVE",
"340 48 CURVE SMOOTH",
"340 77 OFFCURVE",
"318 99 OFFCURVE",
"288 99 CURVE SMOOTH",
"258 99 OFFCURVE",
"236 77 OFFCURVE",
"236 48 CURVE SMOOTH"
);
}
);
width = 589;
}
);
note = question;
unicode = 003F;
},
{
glyphname = questiondown;
layers = (
{
hints = (
{
horizontal = 1;
place = "{-183, 75}";
type = Stem;
},
{
horizontal = 1;
place = "{446, 102}";
type = Stem;
},
{
place = "{75, 87}";
type = Stem;
},
{
place = "{249, 104}";
type = Stem;
},
{
place = "{433, 81}";
type = Stem;
},
{
place = "{268, 85}";
type = Stem;
}
);
layerId = "5B3AE2B2-6F0E-4414-97DF-6676E601E692";
paths = (
{
closed = 1;
nodes = (
"353 526 OFFCURVE",
"331 548 OFFCURVE",
"301 548 CURVE SMOOTH",
"271 548 OFFCURVE",
"249 526 OFFCURVE",
"249 497 CURVE SMOOTH",
"249 468 OFFCURVE",
"271 446 OFFCURVE",
"301 446 CURVE SMOOTH",
"331 446 OFFCURVE",
"353 468 OFFCURVE",
"353 497 CURVE SMOOTH"
);
},
{
closed = 1;
nodes = (
"268 352 LINE",
"268 289 OFFCURVE",
"255 244 OFFCURVE",
"190 200 CURVE SMOOTH",
"142 168 OFFCURVE",
"75 102 OFFCURVE",
"75 13 CURVE SMOOTH",
"75 -103 OFFCURVE",
"157 -183 OFFCURVE",
"288 -183 CURVE SMOOTH",
"411 -183 OFFCURVE",
"514 -103 OFFCURVE",
"514 47 CURVE",
"433 47 LINE",
"434 -68 OFFCURVE",
"361 -108 OFFCURVE",
"288 -108 CURVE SMOOTH",
"205 -108 OFFCURVE",
"162 -57 OFFCURVE",
"162 1 CURVE SMOOTH",
"162 68 OFFCURVE",
"184 111 OFFCURVE",
"247 155 CURVE SMOOTH",
"313 201 OFFCURVE",
"353 268 OFFCURVE",
"353 352 CURVE"
);
}
);
width = 589;
}
);
note = questiondown;
unicode = 00BF;
},
{
glyphname = periodcentered;
layers = (
{
hints = (
{
horizontal = 1;
place = "{251, 102}";
type = Stem;
},
{
place = "{77, 104}";
type = Stem;
}
);
layerId = "5B3AE2B2-6F0E-4414-97DF-6676E601E692";
paths = (
{
closed = 1;
nodes = (
"77 273 OFFCURVE",
"99 251 OFFCURVE",
"129 251 CURVE SMOOTH",
"159 251 OFFCURVE",
"181 273 OFFCURVE",
"181 302 CURVE SMOOTH",
"181 331 OFFCURVE",
"159 353 OFFCURVE",
"129 353 CURVE SMOOTH",
"99 353 OFFCURVE",
"77 331 OFFCURVE",
"77 302 CURVE SMOOTH"
);
}
);
width = 258;
}
);
note = periodcentered;
unicode = 00B7;
},
{
glyphname = bullet;
layers = (
{
hints = (
{
horizontal = 1;
place = "{210, 160}";
type = Stem;
},
{
place = "{77, 164}";
type = Stem;
}
);
layerId = "5B3AE2B2-6F0E-4414-97DF-6676E601E692";
paths = (
{
closed = 1;
nodes = (
"77 244 OFFCURVE",
"112 210 OFFCURVE",
"159 210 CURVE SMOOTH",
"206 210 OFFCURVE",
"241 244 OFFCURVE",
"241 290 CURVE SMOOTH",
"241 336 OFFCURVE",
"206 370 OFFCURVE",
"159 370 CURVE SMOOTH",
"112 370 OFFCURVE",
"77 336 OFFCURVE",
"77 290 CURVE SMOOTH"
);
}
);
width = 318;
}
);
note = bullet;
unicode = 2022;
},
{
glyphname = asterisk;
layers = (
{
hints = (
{
horizontal = 1;
place = "{400, 305}";
type = Stem;
},
{
place = "{192, 60}";
type = Stem;
}
);
layerId = "5B3AE2B2-6F0E-4414-97DF-6676E601E692";
paths = (
{
closed = 1;
nodes = (
"339 655 LINE",
"252 605 LINE",
"252 705 LINE",
"192 705 LINE",
"192 605 LINE",
"105 655 LINE",
"75 603 LINE",
"162 553 LINE",
"75 503 LINE",
"105 451 LINE",
"192 501 LINE",
"192 400 LINE",
"252 400 LINE",
"252 501 LINE",
"339 451 LINE",
"369 503 LINE",
"282 553 LINE",
"369 603 LINE"
);
}
);
width = 444;
}
);
note = asterisk;
unicode = 002A;
},
{
glyphname = numbersign;
layers = (
{
hints = (
{
horizontal = 1;
place = "{0, 202}";
type = Stem;
},
{
horizontal = 1;
place = "{315, 67}";
type = Stem;
},
{
place = "{61, 454}";
type = Stem;
},
{
horizontal = 1;
place = "{315, 203}";
type = Stem;
},
{
horizontal = 1;
place = "{135, 67}";
type = Stem;
}
);
layerId = "5B3AE2B2-6F0E-4414-97DF-6676E601E692";
paths = (
{
closed = 1;
nodes = (
"173 382 LINE",
"92 382 LINE",
"93 315 LINE",
"162 315 LINE",
"142 202 LINE",
"61 202 LINE",
"61 135 LINE",
"131 135 LINE",
"107 0 LINE",
"181 0 LINE",
"205 135 LINE",
"329 135 LINE",
"305 0 LINE",
"379 0 LINE",
"403 135 LINE",
"484 135 LINE",
"483 202 LINE",
"414 202 LINE",
"434 315 LINE",
"515 315 LINE",
"514 382 LINE",
"445 382 LINE",
"470 518 LINE",
"396 518 LINE",
"371 382 LINE",
"247 382 LINE",
"272 518 LINE",
"198 518 LINE"
);
},
{
closed = 1;
nodes = (
"236 315 LINE",
"360 315 LINE",
"340 202 LINE",
"216 202 LINE"
);
}
);
width = 600;
}
);
note = numbersign;
unicode = 0023;
},
{
glyphname = slash;
layers = (
{
hints = (
{
horizontal = 1;
place = "{-15, 21}";
target = up;
type = BottomGhost;
},
{
horizontal = 1;
place = "{731, -20}";
target = down;
type = TopGhost;
},
{
place = "{75, 209}";
type = Stem;
}
);
layerId = "5B3AE2B2-6F0E-4414-97DF-6676E601E692";
paths = (
{
closed = 1;
nodes = (
"75 -15 LINE",
"152 -15 LINE",
"284 731 LINE",
"207 731 LINE"
);
}
);
width = 359;
}
);
note = slash;
unicode = 002F;
},
{
glyphname = backslash;
layers = (
{
hints = (
{
horizontal = 1;
place = "{-15, 21}";
target = up;
type = BottomGhost;
},
{
horizontal = 1;
place = "{731, -20}";
target = down;
type = TopGhost;
},
{
place = "{75, 209}";
type = Stem;
}
);
layerId = "5B3AE2B2-6F0E-4414-97DF-6676E601E692";
paths = (
{
closed = 1;
nodes = (
"75 731 LINE",
"207 -15 LINE",
"284 -15 LINE",
"152 731 LINE"
);
}
);
width = 359;
}
);
note = backslash;
unicode = 005C;
},
{
glyphname = parenleft;
layers = (
{
hints = (
{
horizontal = 1;
place = "{-60, 835}";
type = Stem;
},
{
place = "{75, 243}";
type = Stem;
}
);
layerId = "5B3AE2B2-6F0E-4414-97DF-6676E601E692";
paths = (
{
closed = 1;
nodes = (
"318 -60 LINE",
"147 0 OFFCURVE",
"75 177 OFFCURVE",
"75 357 CURVE SMOOTH",
"75 538 OFFCURVE",
"147 715 OFFCURVE",
"318 775 CURVE",
"317 691 LINE",
"196 631 OFFCURVE",
"163 486 OFFCURVE",
"163 356 CURVE SMOOTH",
"163 229 OFFCURVE",
"196 84 OFFCURVE",
"317 24 CURVE"
);
}
);
width = 393;
}
);
note = parenleft;
unicode = 0028;
},
{
glyphname = parenright;
layers = (
{
hints = (
{
horizontal = 1;
place = "{-60, 835}";
type = Stem;
},
{
place = "{75, 243}";
type = Stem;
}
);
layerId = "5B3AE2B2-6F0E-4414-97DF-6676E601E692";
paths = (
{
closed = 1;
nodes = (
"76 24 LINE",
"197 84 OFFCURVE",
"230 229 OFFCURVE",
"230 356 CURVE SMOOTH",
"230 486 OFFCURVE",
"197 631 OFFCURVE",
"76 691 CURVE",
"75 775 LINE",
"246 715 OFFCURVE",
"318 538 OFFCURVE",
"318 357 CURVE SMOOTH",
"318 177 OFFCURVE",
"246 0 OFFCURVE",
"75 -60 CURVE"
);
}
);
width = 393;
}
);
note = parenright;
unicode = 0029;
},
{
glyphname = braceleft;
layers = (
{
hints = (
{
horizontal = 1;
place = "{-58, 67}";
type = Stem;
},
{
horizontal = 1;
place = "{324, 67}";
type = Stem;
},
{
horizontal = 1;
place = "{707, 67}";
type = Stem;
},
{
place = "{174, 81}";
type = Stem;
}
);
layerId = "5B3AE2B2-6F0E-4414-97DF-6676E601E692";
paths = (
{
closed = 1;
nodes = (
"174 461 LINE SMOOTH",
"174 381 OFFCURVE",
"112 391 OFFCURVE",
"75 391 CURVE",
"75 324 LINE",
"112 324 OFFCURVE",
"174 334 OFFCURVE",
"174 254 CURVE SMOOTH",
"174 66 LINE SMOOTH",
"174 3 OFFCURVE",
"210 -52 OFFCURVE",
"289 -58 CURVE SMOOTH",
"323 -61 OFFCURVE",
"354 -58 OFFCURVE",
"354 -58 CURVE",
"354 9 LINE",
"317 9 OFFCURVE",
"256 -1 OFFCURVE",
"255 79 CURVE",
"255 267 LINE SMOOTH",
"255 311 OFFCURVE",
"238 341 OFFCURVE",
"200 358 CURVE",
"238 374 OFFCURVE",
"255 404 OFFCURVE",
"255 448 CURVE SMOOTH",
"255 637 LINE SMOOTH",
"255 717 OFFCURVE",
"317 707 OFFCURVE",
"354 707 CURVE",
"354 774 LINE",
"354 774 OFFCURVE",
"323 777 OFFCURVE",
"289 774 CURVE SMOOTH",
"210 768 OFFCURVE",
"174 713 OFFCURVE",
"174 650 CURVE SMOOTH"
);
}
);
width = 429;
}
);
note = braceleft;
unicode = 007B;
},
{
glyphname = braceright;
layers = (
{
hints = (
{
horizontal = 1;
place = "{-58, 67}";
type = Stem;
},
{
horizontal = 1;
place = "{324, 67}";
type = Stem;
},
{
horizontal = 1;
place = "{707, 67}";
type = Stem;
},
{
place = "{174, 81}";
type = Stem;
}
);
layerId = "5B3AE2B2-6F0E-4414-97DF-6676E601E692";
paths = (
{
closed = 1;
nodes = (
"255 650 LINE SMOOTH",
"255 713 OFFCURVE",
"219 768 OFFCURVE",
"140 774 CURVE SMOOTH",
"106 777 OFFCURVE",
"75 774 OFFCURVE",
"75 774 CURVE",
"75 707 LINE",
"112 707 OFFCURVE",
"174 717 OFFCURVE",
"174 637 CURVE SMOOTH",
"174 448 LINE SMOOTH",
"174 404 OFFCURVE",
"191 374 OFFCURVE",
"229 358 CURVE",
"191 341 OFFCURVE",
"174 311 OFFCURVE",
"174 267 CURVE SMOOTH",
"174 79 LINE SMOOTH",
"173 -1 OFFCURVE",
"112 9 OFFCURVE",
"75 9 CURVE",
"75 -58 LINE",
"75 -58 OFFCURVE",
"106 -61 OFFCURVE",
"140 -58 CURVE SMOOTH",
"219 -52 OFFCURVE",
"255 3 OFFCURVE",
"255 66 CURVE SMOOTH",
"255 254 LINE SMOOTH",
"255 334 OFFCURVE",
"317 324 OFFCURVE",
"354 324 CURVE",
"354 391 LINE",
"317 391 OFFCURVE",
"255 381 OFFCURVE",
"255 461 CURVE SMOOTH"
);
}
);
width = 429;
}
);
note = braceright;
unicode = 007D;
},
{
glyphname = bracketleft;
layers = (
{
hints = (
{
horizontal = 1;
place = "{1, 70}";
type = Stem;
},
{
horizontal = 1;
place = "{644.5, 70.5}";
type = Stem;
},
{
place = "{75, 85}";
type = Stem;
}
);
layerId = "5B3AE2B2-6F0E-4414-97DF-6676E601E692";
paths = (
{
closed = 1;
nodes = (
"260 1 LINE",
"260 72 LINE",
"160 70 LINE",
"160 645 LINE",
"250 644 LINE",
"250 715 LINE",
"75 715 LINE",
"75 1 LINE"
);
}
);
width = 335;
}
);
note = bracketleft;
unicode = 005B;
},
{
glyphname = bracketright;
layers = (
{
hints = (
{
horizontal = 1;
place = "{1, 70}";
type = Stem;
},
{
horizontal = 1;
place = "{644.5, 70.5}";
type = Stem;
},
{
place = "{175, 85}";
type = Stem;
}
);
layerId = "5B3AE2B2-6F0E-4414-97DF-6676E601E692";
paths = (
{
closed = 1;
nodes = (
"260 715 LINE",
"85 715 LINE",
"85 644 LINE",
"175 645 LINE",
"175 70 LINE",
"75 72 LINE",
"75 1 LINE",
"260 1 LINE"
);
}
);
width = 335;
}
);
note = bracketright;
unicode = 005D;
},
{
glyphname = hyphen;
layers = (
{
hints = (
{
horizontal = 1;
place = "{221, 71}";
type = Stem;
},
{
place = "{75, 280}";
type = Stem;
}
);
layerId = "5B3AE2B2-6F0E-4414-97DF-6676E601E692";
paths = (
{
closed = 1;
nodes = (
"355 221 LINE",
"355 292 LINE",
"75 292 LINE",
"75 221 LINE"
);
}
);
width = 430;
}
);
note = hyphen;
unicode = 002D;
},
{
glyphname = endash;
layers = (
{
hints = (
{
horizontal = 1;
place = "{221, 71}";
type = Stem;
},
{
place = "{75, 421}";
type = Stem;
}
);
layerId = "5B3AE2B2-6F0E-4414-97DF-6676E601E692";
paths = (
{
closed = 1;
nodes = (
"496 221 LINE",
"496 292 LINE",
"75 292 LINE",
"75 221 LINE"
);
}
);
width = 571;
}
);
note = endash;
unicode = 2013;
},
{
glyphname = emdash;
layers = (
{
hints = (
{
horizontal = 1;
place = "{218, 71}";
type = Stem;
},
{
place = "{75, 698}";
type = Stem;
}
);
layerId = "5B3AE2B2-6F0E-4414-97DF-6676E601E692";
paths = (
{
closed = 1;
nodes = (
"773 218 LINE",
"773 289 LINE",
"75 289 LINE",
"75 218 LINE"
);
}
);
width = 848;
}
);
note = emdash;
unicode = 2014;
},
{
glyphname = underscore;
layers = (
{
hints = (
{
horizontal = 1;
place = "{-123, 71}";
type = Stem;
},
{
place = "{75, 421}";
type = Stem;
}
);
layerId = "5B3AE2B2-6F0E-4414-97DF-6676E601E692";
paths = (
{
closed = 1;
nodes = (
"496 -123 LINE",
"496 -52 LINE",
"75 -52 LINE",
"75 -123 LINE"
);
}
);
width = 571;
}
);
note = underscore;
unicode = 005F;
},
{
glyphname = quotesinglbase;
layers = (
{
hints = (
{
horizontal = 1;
place = "{-123, 46}";
type = Stem;
},
{
horizontal = 1;
place = "{0, 21}";
target = up;
type = BottomGhost;
},
{
place = "{76, 52}";
type = Stem;
},
{
horizontal = 1;
place = "{0, 103}";
type = Stem;
}
);
layerId = "5B3AE2B2-6F0E-4414-97DF-6676E601E692";
paths = (
{
closed = 1;
nodes = (
"25 -123 LINE",
"79 -123 OFFCURVE",
"128 -83 OFFCURVE",
"128 29 CURVE SMOOTH",
"128 50 LINE SMOOTH",
"128 79 OFFCURVE",
"105 103 OFFCURVE",
"75 103 CURVE SMOOTH",
"45 103 OFFCURVE",
"23 80 OFFCURVE",
"23 51 CURVE SMOOTH",
"23 23 OFFCURVE",
"45 0 OFFCURVE",
"75 0 CURVE SMOOTH",
"76 0 LINE",
"76 -2 LINE SMOOTH",
"76 -59 OFFCURVE",
"38 -77 OFFCURVE",
"25 -77 CURVE"
);
}
);
width = 251;
}
);
note = quotesinglbase;
unicode = 201A;
},
{
glyphname = quotedblbase;
layers = (
{
hints = (
{
horizontal = 1;
place = "{-123, 46}";
type = Stem;
},
{
horizontal = 1;
place = "{0, 103}";
type = Stem;
},
{
place = "{76, 52}";
type = Stem;
}
);
layerId = "5B3AE2B2-6F0E-4414-97DF-6676E601E692";
paths = (
{
closed = 1;
nodes = (
"45 103 OFFCURVE",
"23 80 OFFCURVE",
"23 51 CURVE SMOOTH",
"23 23 OFFCURVE",
"45 0 OFFCURVE",
"75 0 CURVE SMOOTH",
"76 0 LINE",
"76 -2 LINE SMOOTH",
"76 -59 OFFCURVE",
"38 -77 OFFCURVE",
"25 -77 CURVE",
"25 -123 LINE",
"79 -123 OFFCURVE",
"128 -83 OFFCURVE",
"128 29 CURVE SMOOTH",
"128 50 LINE SMOOTH",
"128 79 OFFCURVE",
"105 103 OFFCURVE",
"75 103 CURVE SMOOTH"
);
}
);
width = 251;
}
);
note = quotedblbase;
unicode = 201E;
},
{
glyphname = quotedblleft;
layers = (
{
hints = (
{
horizontal = 1;
place = "{505, 240}";
type = Stem;
},
{
place = "{32, 113}";
type = Stem;
}
);
layerId = "5B3AE2B2-6F0E-4414-97DF-6676E601E692";
paths = (
{
closed = 1;
nodes = (
"83 745 LINE SMOOTH",
"83 745 OFFCURVE",
"51 612 OFFCURVE",
"41 556 CURVE SMOOTH",
"32 505 LINE",
"112 505 LINE",
"121 556 LINE SMOOTH",
"131 612 OFFCURVE",
"145 745 OFFCURVE",
"145 745 CURVE SMOOTH"
);
}
);
width = 177;
}
);
note = quotedblleft;
unicode = 201C;
},
{
glyphname = quotedblright;
layers = (
{
hints = (
{
horizontal = 1;
place = "{503, 240}";
type = Stem;
},
{
place = "{32, 113}";
type = Stem;
}
);
layerId = "5B3AE2B2-6F0E-4414-97DF-6676E601E692";
paths = (
{
closed = 1;
nodes = (
"56 692 LINE SMOOTH",
"46 636 OFFCURVE",
"32 503 OFFCURVE",
"32 503 CURVE",
"94 503 LINE",
"94 503 OFFCURVE",
"126 636 OFFCURVE",
"136 692 CURVE SMOOTH",
"145 743 LINE",
"65 743 LINE"
);
}
);
width = 177;
}
);
note = quotedblright;
unicode = 201D;
},
{
glyphname = quoteleft;
layers = (
{
hints = (
{
horizontal = 1;
place = "{505, 240}";
type = Stem;
},
{
place = "{32, 113}";
type = Stem;
}
);
layerId = "5B3AE2B2-6F0E-4414-97DF-6676E601E692";
paths = (
{
closed = 1;
nodes = (
"121 556 LINE SMOOTH",
"131 612 OFFCURVE",
"145 745 OFFCURVE",
"145 745 CURVE SMOOTH",
"83 745 LINE SMOOTH",
"83 745 OFFCURVE",
"51 612 OFFCURVE",
"41 556 CURVE SMOOTH",
"32 505 LINE",
"112 505 LINE"
);
}
);
width = 177;
}
);
note = quoteleft;
unicode = 2018;
},
{
glyphname = quoteright;
layers = (
{
hints = (
{
horizontal = 1;
place = "{503, 240}";
type = Stem;
},
{
place = "{32, 113}";
type = Stem;
}
);
layerId = "5B3AE2B2-6F0E-4414-97DF-6676E601E692";
paths = (
{
closed = 1;
nodes = (
"56 692 LINE SMOOTH",
"46 636 OFFCURVE",
"32 503 OFFCURVE",
"32 503 CURVE",
"94 503 LINE",
"94 503 OFFCURVE",
"126 636 OFFCURVE",
"136 692 CURVE SMOOTH",
"145 743 LINE",
"65 743 LINE"
);
}
);
width = 177;
}
);
note = quoteright;
unicode = 2019;
},
{
glyphname = guillemetleft;
layers = (
{
hints = (
{
horizontal = 1;
place = "{0, 21}";
target = up;
type = BottomGhost;
},
{
horizontal = 1;
place = "{517, -20}";
target = down;
type = TopGhost;
},
{
place = "{25, 74}";
type = Stem;
}
);
layerId = "5B3AE2B2-6F0E-4414-97DF-6676E601E692";
paths = (
{
closed = 1;
nodes = (
"25 305 LINE",
"25 212 LINE",
"366 0 LINE",
"366 92 LINE",
"99 259 LINE",
"366 425 LINE",
"366 517 LINE"
);
}
);
width = 443;
}
);
note = guillemotleft;
unicode = 00AB;
},
{
glyphname = guillemetright;
layers = (
{
hints = (
{
horizontal = 1;
place = "{0, 21}";
target = up;
type = BottomGhost;
},
{
horizontal = 1;
place = "{517, -20}";
target = down;
type = TopGhost;
},
{
place = "{344, 74}";
type = Stem;
}
);
layerId = "5B3AE2B2-6F0E-4414-97DF-6676E601E692";
paths = (
{
closed = 1;
nodes = (
"77 425 LINE",
"344 259 LINE",
"77 92 LINE",
"77 0 LINE",
"418 212 LINE",
"418 305 LINE",
"77 517 LINE"
);
}
);
width = 443;
}
);
note = guillemotright;
unicode = 00BB;
},
{
glyphname = guilsinglleft;
layers = (
{
hints = (
{
horizontal = 1;
place = "{0, 21}";
target = up;
type = BottomGhost;
},
{
horizontal = 1;
place = "{517, -20}";
target = down;
type = TopGhost;
},
{
place = "{25, 74}";
type = Stem;
}
);
layerId = "5B3AE2B2-6F0E-4414-97DF-6676E601E692";
paths = (
{
closed = 1;
nodes = (
"25 305 LINE",
"25 212 LINE",
"366 0 LINE",
"366 92 LINE",
"99 259 LINE",
"366 425 LINE",
"366 517 LINE"
);
}
);
width = 441;
}
);
note = guilsinglleft;
unicode = 2039;
},
{
glyphname = guilsinglright;
layers = (
{
hints = (
{
horizontal = 1;
place = "{0, 21}";
target = up;
type = BottomGhost;
},
{
horizontal = 1;
place = "{517, -20}";
target = down;
type = TopGhost;
},
{
place = "{344, 74}";
type = Stem;
}
);
layerId = "5B3AE2B2-6F0E-4414-97DF-6676E601E692";
paths = (
{
closed = 1;
nodes = (
"77 425 LINE",
"344 259 LINE",
"77 92 LINE",
"77 0 LINE",
"418 212 LINE",
"418 305 LINE",
"77 517 LINE"
);
}
);
width = 443;
}
);
note = guilsinglright;
unicode = 203A;
},
{
glyphname = quotedbl;
layers = (
{
hints = (
{
horizontal = 1;
place = "{510, 228}";
type = Stem;
},
{
place = "{32, 76}";
type = Stem;
},
{
place = "{172, 76}";
type = Stem;
}
);
layerId = "5B3AE2B2-6F0E-4414-97DF-6676E601E692";
paths = (
{
closed = 1;
nodes = (
"32 690 LINE SMOOTH",
"32 636 OFFCURVE",
"40 510 OFFCURVE",
"40 510 CURVE",
"100 510 LINE",
"100 510 OFFCURVE",
"108 636 OFFCURVE",
"108 690 CURVE SMOOTH",
"108 738 LINE",
"32 738 LINE"
);
},
{
closed = 1;
nodes = (
"172 690 LINE SMOOTH",
"172 636 OFFCURVE",
"180 510 OFFCURVE",
"180 510 CURVE",
"240 510 LINE",
"240 510 OFFCURVE",
"248 636 OFFCURVE",
"248 690 CURVE SMOOTH",
"248 738 LINE",
"172 738 LINE"
);
}
);
width = 280;
}
);
note = quotedbl;
unicode = 0022;
},
{
glyphname = quotesingle;
layers = (
{
hints = (
{
horizontal = 1;
place = "{510, 228}";
type = Stem;
},
{
place = "{32, 76}";
type = Stem;
}
);
layerId = "5B3AE2B2-6F0E-4414-97DF-6676E601E692";
paths = (
{
closed = 1;
nodes = (
"32 690 LINE SMOOTH",
"32 636 OFFCURVE",
"40 510 OFFCURVE",
"40 510 CURVE",
"100 510 LINE",
"100 510 OFFCURVE",
"108 636 OFFCURVE",
"108 690 CURVE SMOOTH",
"108 738 LINE",
"32 738 LINE"
);
}
);
width = 140;
}
);
note = quotesingle;
unicode = 0027;
},
{
glyphname = at;
layers = (
{
hints = (
{
horizontal = 1;
place = "{-110, 68}";
type = Stem;
},
{
horizontal = 1;
place = "{72, 64}";
type = Stem;
},
{
horizontal = 1;
place = "{392, 72}";
type = Stem;
},
{
horizontal = 1;
place = "{571, 64}";
type = Stem;
},
{
place = "{42, 76}";
type = Stem;
},
{
place = "{711, 76}";
type = Stem;
},
{
horizontal = 1;
place = "{69, 71}";
type = Stem;
}
);
layerId = "5B3AE2B2-6F0E-4414-97DF-6676E601E692";
paths = (
{
closed = 1;
nodes = (
"500 -110 OFFCURVE",
"572 -83 OFFCURVE",
"628 -37 CURVE",
"579 17 LINE",
"538 -19 OFFCURVE",
"479 -42 OFFCURVE",
"414 -42 CURVE SMOOTH",
"250 -42 OFFCURVE",
"118 94 OFFCURVE",
"118 263 CURVE SMOOTH",
"118 435 OFFCURVE",
"249 571 OFFCURVE",
"414 571 CURVE SMOOTH",
"584 571 OFFCURVE",
"711 435 OFFCURVE",
"711 304 CURVE SMOOTH",
"711 168 OFFCURVE",
"626 136 OFFCURVE",
"594 136 CURVE",
"573 135 OFFCURVE",
"553 148 OFFCURVE",
"557 180 CURVE SMOOTH",
"590 455 LINE",
"524 455 LINE",
"517 395 LINE",
"505 429 OFFCURVE",
"472 464 OFFCURVE",
"407 464 CURVE SMOOTH",
"327 464 OFFCURVE",
"247 390 OFFCURVE",
"232 266 CURVE SMOOTH",
"217 143 OFFCURVE",
"278 69 OFFCURVE",
"359 69 CURVE SMOOTH",
"423 69 OFFCURVE",
"465 104 OFFCURVE",
"486 136 CURVE",
"485 97 OFFCURVE",
"516 72 OFFCURVE",
"569 72 CURVE SMOOTH",
"712 72 OFFCURVE",
"787 184 OFFCURVE",
"787 303 CURVE SMOOTH",
"787 477 OFFCURVE",
"630 635 OFFCURVE",
"415 635 CURVE SMOOTH",
"204 635 OFFCURVE",
"42 478 OFFCURVE",
"42 262 CURVE SMOOTH",
"42 47 OFFCURVE",
"204 -110 OFFCURVE",
"415 -110 CURVE SMOOTH"
);
},
{
closed = 1;
nodes = (
"337 140 OFFCURVE",
"296 184 OFFCURVE",
"306 267 CURVE SMOOTH",
"317 349 OFFCURVE",
"367 392 OFFCURVE",
"416 392 CURVE SMOOTH",
"477 392 OFFCURVE",
"504 336 OFFCURVE",
"496 267 CURVE SMOOTH",
"486 196 OFFCURVE",
"447 140 OFFCURVE",
"385 140 CURVE SMOOTH"
);
}
);
width = 829;
}
);
note = at;
unicode = 0040;
},
{
glyphname = ampersand;
layers = (
{
hints = (
{
horizontal = 1;
place = "{-15, 250.5}";
type = Stem;
},
{
horizontal = 1;
place = "{656, 75}";
type = Stem;
},
{
place = "{40, 88}";
type = Stem;
},
{
place = "{517, 85}";
type = Stem;
},
{
horizontal = 1;
place = "{-16, 75}";
type = Stem;
},
{
place = "{117, 88}";
type = Stem;
},
{
place = "{430, 88}";
type = Stem;
}
);
layerId = "5B3AE2B2-6F0E-4414-97DF-6676E601E692";
paths = (
{
closed = 1;
nodes = (
"553 120 LINE",
"580 158 OFFCURVE",
"598 199 OFFCURVE",
"602 236 CURVE",
"517 235 LINE",
"513 217 OFFCURVE",
"506 200 OFFCURVE",
"497 183 CURVE",
"348 351 LINE",
"449 390 OFFCURVE",
"518 452 OFFCURVE",
"518 545 CURVE SMOOTH",
"518 652 OFFCURVE",
"420 731 OFFCURVE",
"307 731 CURVE SMOOTH",
"199 731 OFFCURVE",
"117 656 OFFCURVE",
"117 559 CURVE SMOOTH",
"117 501 OFFCURVE",
"141 457 OFFCURVE",
"193 399 CURVE SMOOTH",
"205 386 LINE",
"115 348 OFFCURVE",
"40 294 OFFCURVE",
"40 195 CURVE SMOOTH",
"40 91 OFFCURVE",
"127 -17 OFFCURVE",
"303 -16 CURVE SMOOTH",
"378 -16 OFFCURVE",
"446 15 OFFCURVE",
"497 60 CURVE",
"564 -15 LINE",
"672 -15 LINE"
);
},
{
closed = 1;
nodes = (
"387 656 OFFCURVE",
"430 609 OFFCURVE",
"430 557 CURVE SMOOTH",
"430 485 OFFCURVE",
"382 448 OFFCURVE",
"291 416 CURVE",
"236 478 OFFCURVE",
"205 511 OFFCURVE",
"205 564 CURVE SMOOTH",
"205 618 OFFCURVE",
"247 656 OFFCURVE",
"307 656 CURVE SMOOTH"
);
},
{
closed = 1;
nodes = (
"179 59 OFFCURVE",
"129 142 OFFCURVE",
"128 190 CURVE SMOOTH",
"127 239 OFFCURVE",
"155 283 OFFCURVE",
"262 322 CURVE",
"443 120 LINE",
"398 83 OFFCURVE",
"339 59 OFFCURVE",
"283 59 CURVE SMOOTH"
);
}
);
width = 600;
}
);
note = ampersand;
unicode = 0026;
},
{
glyphname = section;
layers = (
{
hints = (
{
horizontal = 1;
place = "{-166, 71}";
type = Stem;
},
{
horizontal = 1;
place = "{659, 71}";
type = Stem;
},
{
place = "{48, 78}";
type = Stem;
},
{
place = "{381, 82}";
type = Stem;
},
{
place = "{69, 82}";
type = Stem;
},
{
place = "{406, 78}";
type = Stem;
}
);
layerId = "5B3AE2B2-6F0E-4414-97DF-6676E601E692";
paths = (
{
closed = 1;
nodes = (
"450 140 OFFCURVE",
"484 192 OFFCURVE",
"484 251 CURVE SMOOTH",
"484 350 OFFCURVE",
"389 397 OFFCURVE",
"292 460 CURVE SMOOTH",
"213 511 OFFCURVE",
"151 538 OFFCURVE",
"151 591 CURVE SMOOTH",
"151 634 OFFCURVE",
"193 659 OFFCURVE",
"259 659 CURVE SMOOTH",
"328 659 OFFCURVE",
"378 631 OFFCURVE",
"384 567 CURVE",
"468 567 LINE",
"458 656 OFFCURVE",
"380 730 OFFCURVE",
"270 730 CURVE SMOOTH",
"140 730 OFFCURVE",
"69 673 OFFCURVE",
"69 587 CURVE SMOOTH",
"69 513 OFFCURVE",
"120 476 OFFCURVE",
"181 442 CURVE",
"82 424 OFFCURVE",
"48 372 OFFCURVE",
"48 313 CURVE SMOOTH",
"48 214 OFFCURVE",
"143 167 OFFCURVE",
"240 104 CURVE SMOOTH",
"319 53 OFFCURVE",
"381 26 OFFCURVE",
"381 -27 CURVE SMOOTH",
"381 -70 OFFCURVE",
"339 -95 OFFCURVE",
"273 -95 CURVE SMOOTH",
"204 -95 OFFCURVE",
"154 -67 OFFCURVE",
"148 -3 CURVE",
"64 -3 LINE",
"74 -92 OFFCURVE",
"152 -166 OFFCURVE",
"262 -166 CURVE SMOOTH",
"392 -166 OFFCURVE",
"463 -109 OFFCURVE",
"463 -23 CURVE SMOOTH",
"463 51 OFFCURVE",
"412 88 OFFCURVE",
"351 122 CURVE"
);
},
{
closed = 1;
nodes = (
"126 367 OFFCURVE",
"171 404 OFFCURVE",
"238 411 CURVE",
"247 406 OFFCURVE",
"256 401 OFFCURVE",
"265 395 CURVE",
"376 327 OFFCURVE",
"406 288 OFFCURVE",
"406 246 CURVE SMOOTH",
"406 197 OFFCURVE",
"361 160 OFFCURVE",
"294 153 CURVE",
"285 158 OFFCURVE",
"276 163 OFFCURVE",
"267 169 CURVE",
"156 237 OFFCURVE",
"126 276 OFFCURVE",
"126 318 CURVE SMOOTH"
);
}
);
width = 506;
}
);
note = section;
unicode = 00A7;
},
{
glyphname = copyright;
layers = (
{
hints = (
{
horizontal = 1;
place = "{-110, 65}";
type = Stem;
},
{
horizontal = 1;
place = "{60, 74}";
type = Stem;
},
{
horizontal = 1;
place = "{383, 73}";
type = Stem;
},
{
horizontal = 1;
place = "{570, 65}";
type = Stem;
},
{
place = "{42, 77}";
type = Stem;
},
{
place = "{242, 77}";
type = Stem;
},
{
place = "{710, 76}";
type = Stem;
}
);
layerId = "5B3AE2B2-6F0E-4414-97DF-6676E601E692";
paths = (
{
closed = 1;
nodes = (
"645 -110 OFFCURVE",
"786 57 OFFCURVE",
"786 262 CURVE SMOOTH",
"786 468 OFFCURVE",
"648 635 OFFCURVE",
"415 635 CURVE SMOOTH",
"185 635 OFFCURVE",
"42 468 OFFCURVE",
"42 262 CURVE SMOOTH",
"42 57 OFFCURVE",
"185 -110 OFFCURVE",
"415 -110 CURVE SMOOTH"
);
},
{
closed = 1;
nodes = (
"119 428 OFFCURVE",
"231 570 OFFCURVE",
"413 570 CURVE SMOOTH",
"601 570 OFFCURVE",
"710 428 OFFCURVE",
"710 261 CURVE SMOOTH",
"710 97 OFFCURVE",
"597 -45 OFFCURVE",
"413 -45 CURVE SMOOTH",
"232 -45 OFFCURVE",
"119 97 OFFCURVE",
"119 261 CURVE SMOOTH"
);
},
{
closed = 1;
nodes = (
"514 60 OFFCURVE",
"570 118 OFFCURVE",
"589 206 CURVE",
"509 206 LINE",
"500 167 OFFCURVE",
"467 134 OFFCURVE",
"422 134 CURVE SMOOTH",
"355 134 OFFCURVE",
"319 191 OFFCURVE",
"319 257 CURVE SMOOTH",
"319 326 OFFCURVE",
"355 383 OFFCURVE",
"422 383 CURVE SMOOTH",
"467 383 OFFCURVE",
"500 349 OFFCURVE",
"509 310 CURVE",
"588 310 LINE",
"571 398 OFFCURVE",
"515 456 OFFCURVE",
"424 456 CURVE SMOOTH",
"312 456 OFFCURVE",
"242 367 OFFCURVE",
"242 258 CURVE SMOOTH",
"242 149 OFFCURVE",
"312 60 OFFCURVE",
"424 60 CURVE SMOOTH"
);
}
);
width = 828;
}
);
note = copyright;
unicode = 00A9;
},
{
glyphname = trademark;
layers = (
{
hints = (
{
horizontal = 1;
place = "{0, 21}";
target = up;
type = BottomGhost;
},
{
horizontal = 1;
place = "{644, 71}";
type = Stem;
},
{
place = "{234, 85}";
type = Stem;
},
{
place = "{626, 85}";
type = Stem;
},
{
place = "{1295, 85}";
type = Stem;
},
{
horizontal = 1;
place = "{0, 85}";
type = Stem;
}
);
layerId = "5B3AE2B2-6F0E-4414-97DF-6676E601E692";
paths = (
{
closed = 1;
nodes = (
"319 0 LINE",
"319 544 LINE SMOOTH",
"319 579 OFFCURVE",
"316 644 OFFCURVE",
"316 644 CURVE",
"546 644 LINE",
"546 715 LINE",
"5 715 LINE",
"5 644 LINE",
"235 644 LINE",
"235 644 OFFCURVE",
"234 579 OFFCURVE",
"234 544 CURVE SMOOTH",
"234 0 LINE"
);
},
{
closed = 1;
nodes = (
"1047 0 LINE",
"1241 441 LINE SMOOTH",
"1252 465 OFFCURVE",
"1274 517 OFFCURVE",
"1295 570 CURVE",
"1295 0 LINE",
"1380 0 LINE",
"1380 715 LINE",
"1281 715 LINE",
"1069 240 LINE SMOOTH",
"1051 199 OFFCURVE",
"1026 136 OFFCURVE",
"1006 85 CURVE",
"986 136 OFFCURVE",
"961 199 OFFCURVE",
"943 240 CURVE SMOOTH",
"731 715 LINE",
"626 715 LINE",
"626 0 LINE",
"711 0 LINE",
"711 586 LINE",
"734 528 OFFCURVE",
"759 468 OFFCURVE",
"771 441 CURVE SMOOTH",
"965 0 LINE"
);
}
);
width = 1455;
}
);
note = trademark;
unicode = 2122;
},
{
glyphname = degree;
layers = (
{
hints = (
{
horizontal = 1;
place = "{530, 44}";
type = Stem;
},
{
horizontal = 1;
place = "{672, 44}";
type = Stem;
},
{
place = "{0, 47}";
type = Stem;
},
{
place = "{145, 47}";
type = Stem;
}
);
layerId = "5B3AE2B2-6F0E-4414-97DF-6676E601E692";
paths = (
{
closed = 1;
nodes = (
"150 530 OFFCURVE",
"192 571 OFFCURVE",
"192 623 CURVE SMOOTH",
"192 676 OFFCURVE",
"150 716 OFFCURVE",
"96 716 CURVE SMOOTH",
"42 716 OFFCURVE",
"0 676 OFFCURVE",
"0 623 CURVE SMOOTH",
"0 571 OFFCURVE",
"42 530 OFFCURVE",
"96 530 CURVE SMOOTH"
);
},
{
closed = 1;
nodes = (
"67 574 OFFCURVE",
"47 597 OFFCURVE",
"47 623 CURVE SMOOTH",
"47 652 OFFCURVE",
"67 672 OFFCURVE",
"96 672 CURVE SMOOTH",
"124 672 OFFCURVE",
"145 652 OFFCURVE",
"145 623 CURVE SMOOTH",
"145 597 OFFCURVE",
"124 574 OFFCURVE",
"96 574 CURVE SMOOTH"
);
}
);
width = 192;
}
);
note = degree;
unicode = 00B0;
},
{
glyphname = bar;
layers = (
{
hints = (
{
horizontal = 1;
place = "{-166, 21}";
target = up;
type = BottomGhost;
},
{
horizontal = 1;
place = "{716, -20}";
target = down;
type = TopGhost;
},
{
place = "{75, 85}";
type = Stem;
}
);
layerId = "5B3AE2B2-6F0E-4414-97DF-6676E601E692";
paths = (
{
closed = 1;
nodes = (
"75 -166 LINE",
"160 -166 LINE",
"160 716 LINE",
"75 716 LINE"
);
}
);
width = 235;
}
);
note = bar;
unicode = 007C;
},
{
glyphname = dollar;
layers = (
{
hints = (
{
horizontal = 1;
place = "{-16, 75}";
type = Stem;
},
{
horizontal = 1;
place = "{729, -20}";
target = down;
type = TopGhost;
},
{
place = "{66, 88}";
type = Stem;
},
{
place = "{293, 85}";
type = Stem;
},
{
place = "{546, 88}";
type = Stem;
},
{
horizontal = 1;
place = "{654, 145}";
type = Stem;
},
{
horizontal = 1;
place = "{-12, 21}";
target = up;
type = BottomGhost;
},
{
horizontal = 1;
place = "{654, 75}";
type = Stem;
}
);
layerId = "5B3AE2B2-6F0E-4414-97DF-6676E601E692";
paths = (
{
closed = 1;
nodes = (
"634 345 OFFCURVE",
"495 380 OFFCURVE",
"378 409 CURVE",
"378 652 LINE",
"458 640 OFFCURVE",
"515 598 OFFCURVE",
"527 509 CURVE",
"612 508 LINE",
"596 639 OFFCURVE",
"508 717 OFFCURVE",
"378 729 CURVE",
"378 799 LINE",
"293 799 LINE",
"293 729 LINE",
"146 716 OFFCURVE",
"66 641 OFFCURVE",
"66 535 CURVE SMOOTH",
"66 415 OFFCURVE",
"182 374 OFFCURVE",
"293 348 CURVE",
"293 66 LINE",
"213 80 OFFCURVE",
"142 123 OFFCURVE",
"127 235 CURVE",
"42 236 LINE",
"54 93 OFFCURVE",
"150 7 OFFCURVE",
"293 -12 CURVE",
"293 -84 LINE",
"378 -84 LINE",
"378 -16 LINE",
"533 -9 OFFCURVE",
"634 71 OFFCURVE",
"634 195 CURVE SMOOTH"
);
},
{
closed = 1;
nodes = (
"154 602 OFFCURVE",
"208 646 OFFCURVE",
"293 654 CURVE",
"293 431 LINE",
"209 456 OFFCURVE",
"154 487 OFFCURVE",
"154 547 CURVE SMOOTH"
);
},
{
closed = 1;
nodes = (
"545 116 OFFCURVE",
"474 62 OFFCURVE",
"378 59 CURVE",
"378 328 LINE",
"496 297 OFFCURVE",
"547 258 OFFCURVE",
"546 190 CURVE SMOOTH"
);
}
);
width = 662;
}
);
note = dollar;
unicode = 0024;
},
{
glyphname = euro;
layers = (
{
hints = (
{
horizontal = 1;
place = "{-15, 75}";
type = Stem;
},
{
horizontal = 1;
place = "{263, 71}";
type = Stem;
},
{
horizontal = 1;
place = "{404, 71}";
type = Stem;
},
{
horizontal = 1;
place = "{655, 75}";
type = Stem;
},
{
place = "{59, 87}";
type = Stem;
}
);
layerId = "5B3AE2B2-6F0E-4414-97DF-6676E601E692";
paths = (
{
closed = 1;
nodes = (
"487 243 LINE",
"467 115 OFFCURVE",
"409 60 OFFCURVE",
"322 60 CURVE SMOOTH",
"231 60 OFFCURVE",
"169 121 OFFCURVE",
"151 263 CURVE",
"349 263 LINE",
"349 334 LINE",
"146 334 LINE",
"146 356 LINE SMOOTH",
"146 373 OFFCURVE",
"146 389 OFFCURVE",
"147 404 CURVE",
"349 404 LINE",
"349 475 LINE",
"155 475 LINE",
"177 601 OFFCURVE",
"236 655 OFFCURVE",
"322 655 CURVE SMOOTH",
"403 655 OFFCURVE",
"459 606 OFFCURVE",
"483 495 CURVE",
"570 494 LINE",
"539 655 OFFCURVE",
"450 730 OFFCURVE",
"321 730 CURVE SMOOTH",
"189 730 OFFCURVE",
"95 649 OFFCURVE",
"68 475 CURVE",
"5 475 LINE",
"5 404 LINE",
"60 404 LINE",
"59 389 OFFCURVE",
"59 373 OFFCURVE",
"59 357 CURVE SMOOTH",
"59 334 LINE",
"5 334 LINE",
"5 263 LINE",
"64 263 LINE",
"87 73 OFFCURVE",
"183 -15 OFFCURVE",
"321 -15 CURVE SMOOTH",
"456 -15 OFFCURVE",
"548 67 OFFCURVE",
"574 243 CURVE"
);
}
);
width = 616;
}
);
note = Euro;
unicode = 20AC;
},
{
glyphname = plus;
layers = (
{
hints = (
{
horizontal = 1;
place = "{0, 21}";
target = up;
type = BottomGhost;
},
{
horizontal = 1;
place = "{219, 70}";
type = Stem;
},
{
horizontal = 1;
place = "{517, -20}";
target = down;
type = TopGhost;
},
{
place = "{298, 71}";
type = Stem;
},
{
horizontal = 1;
place = "{218, 71}";
type = Stem;
},
{
place = "{299, 70}";
type = Stem;
}
);
layerId = "5B3AE2B2-6F0E-4414-97DF-6676E601E692";
paths = (
{
closed = 1;
nodes = (
"369 289 LINE",
"369 517 LINE",
"298 517 LINE",
"298 289 LINE",
"75 289 LINE",
"75 218 LINE",
"299 218 LINE",
"299 0 LINE",
"369 0 LINE",
"369 219 LINE",
"592 219 LINE",
"592 289 LINE"
);
}
);
width = 668;
}
);
note = plus;
unicode = 002B;
},
{
glyphname = minus;
layers = (
{
hints = (
{
horizontal = 1;
place = "{218.5, 70.5}";
type = Stem;
},
{
place = "{75, 517}";
type = Stem;
}
);
layerId = "5B3AE2B2-6F0E-4414-97DF-6676E601E692";
paths = (
{
closed = 1;
nodes = (
"592 219 LINE",
"592 289 LINE",
"75 289 LINE",
"75 218 LINE"
);
}
);
width = 667;
}
);
note = minus;
unicode = 2212;
},
{
glyphname = multiply;
layers = (
{
hints = (
{
horizontal = 1;
place = "{57, 416}";
type = Stem;
},
{
place = "{75, 416}";
type = Stem;
}
);
layerId = "5B3AE2B2-6F0E-4414-97DF-6676E601E692";
paths = (
{
closed = 1;
nodes = (
"441 473 LINE",
"283 315 LINE",
"125 473 LINE",
"75 423 LINE",
"234 265 LINE",
"76 107 LINE",
"126 57 LINE",
"284 215 LINE",
"441 58 LINE",
"491 108 LINE",
"334 265 LINE",
"491 423 LINE"
);
}
);
width = 566;
}
);
note = multiply;
unicode = 00D7;
},
{
glyphname = divide;
layers = (
{
hints = (
{
horizontal = 1;
place = "{25, 102}";
type = Stem;
},
{
horizontal = 1;
place = "{218.5, 70.5}";
type = Stem;
},
{
horizontal = 1;
place = "{378, 102}";
type = Stem;
},
{
place = "{282, 104}";
type = Stem;
}
);
layerId = "5B3AE2B2-6F0E-4414-97DF-6676E601E692";
paths = (
{
closed = 1;
nodes = (
"282 400 OFFCURVE",
"304 378 OFFCURVE",
"334 378 CURVE SMOOTH",
"364 378 OFFCURVE",
"386 400 OFFCURVE",
"386 429 CURVE SMOOTH",
"386 458 OFFCURVE",
"364 480 OFFCURVE",
"334 480 CURVE SMOOTH",
"304 480 OFFCURVE",
"282 458 OFFCURVE",
"282 429 CURVE SMOOTH"
);
},
{
closed = 1;
nodes = (
"592 219 LINE",
"592 289 LINE",
"75 289 LINE",
"75 218 LINE"
);
},
{
closed = 1;
nodes = (
"282 47 OFFCURVE",
"304 25 OFFCURVE",
"334 25 CURVE SMOOTH",
"364 25 OFFCURVE",
"386 47 OFFCURVE",
"386 76 CURVE SMOOTH",
"386 105 OFFCURVE",
"364 127 OFFCURVE",
"334 127 CURVE SMOOTH",
"304 127 OFFCURVE",
"282 105 OFFCURVE",
"282 76 CURVE SMOOTH"
);
}
);
width = 667;
}
);
note = divide;
unicode = 00F7;
},
{
glyphname = equal;
layers = (
{
hints = (
{
horizontal = 1;
place = "{130, 71}";
type = Stem;
},
{
horizontal = 1;
place = "{336, 71}";
type = Stem;
},
{
place = "{75, 421}";
type = Stem;
}
);
layerId = "5B3AE2B2-6F0E-4414-97DF-6676E601E692";
paths = (
{
closed = 1;
nodes = (
"496 336 LINE",
"496 407 LINE",
"75 407 LINE",
"75 336 LINE"
);
},
{
closed = 1;
nodes = (
"496 130 LINE",
"496 201 LINE",
"75 201 LINE",
"75 130 LINE"
);
}
);
width = 571;
}
);
note = equal;
unicode = 003D;
},
{
glyphname = notequal;
layers = (
{
hints = (
{
horizontal = 1;
place = "{130, 71}";
type = Stem;
},
{
horizontal = 1;
place = "{336, 71}";
type = Stem;
},
{
place = "{75, 421}";
type = Stem;
},
{
horizontal = 1;
place = "{336, 181}";
type = Stem;
},
{
horizontal = 1;
place = "{0, 201}";
type = Stem;
}
);
layerId = "5B3AE2B2-6F0E-4414-97DF-6676E601E692";
paths = (
{
closed = 1;
nodes = (
"496 407 LINE",
"351 407 LINE",
"370 517 LINE",
"293 517 LINE",
"274 407 LINE",
"75 407 LINE",
"75 336 LINE",
"261 336 LINE",
"237 201 LINE",
"75 201 LINE",
"75 130 LINE",
"225 130 LINE",
"202 0 LINE",
"279 0 LINE",
"302 130 LINE",
"496 130 LINE",
"496 201 LINE",
"314 201 LINE",
"338 336 LINE",
"496 336 LINE"
);
}
);
width = 571;
}
);
note = notequal;
unicode = 2260;
},
{
glyphname = greater;
layers = (
{
hints = (
{
horizontal = 1;
place = "{0, 21}";
target = up;
type = BottomGhost;
},
{
horizontal = 1;
place = "{517, -20}";
target = down;
type = TopGhost;
},
{
place = "{344, 74}";
type = Stem;
}
);
layerId = "5B3AE2B2-6F0E-4414-97DF-6676E601E692";
paths = (
{
closed = 1;
nodes = (
"77 425 LINE",
"344 259 LINE",
"77 92 LINE",
"77 0 LINE",
"418 212 LINE",
"418 305 LINE",
"77 517 LINE"
);
}
);
width = 443;
}
);
note = greater;
unicode = 003E;
},
{
glyphname = less;
layers = (
{
hints = (
{
horizontal = 1;
place = "{0, 21}";
target = up;
type = BottomGhost;
},
{
horizontal = 1;
place = "{517, -20}";
target = down;
type = TopGhost;
},
{
place = "{25, 74}";
type = Stem;
}
);
layerId = "5B3AE2B2-6F0E-4414-97DF-6676E601E692";
paths = (
{
closed = 1;
nodes = (
"25 305 LINE",
"25 212 LINE",
"366 0 LINE",
"366 92 LINE",
"99 259 LINE",
"366 425 LINE",
"366 517 LINE"
);
}
);
width = 443;
}
);
note = less;
unicode = 003C;
},
{
glyphname = percent;
layers = (
{
hints = (
{
horizontal = 1;
place = "{274, 38}";
type = Stem;
},
{
horizontal = 1;
place = "{492, 38}";
type = Stem;
},
{
place = "{30, 39}";
type = Stem;
},
{
place = "{226, 39}";
type = Stem;
}
);
layerId = "5B3AE2B2-6F0E-4414-97DF-6676E601E692";
paths = (
{
closed = 1;
nodes = (
"162 -15 LINE",
"595 731 LINE",
"508 731 LINE",
"75 -15 LINE"
);
},
{
closed = 1;
nodes = (
"241 412 OFFCURVE",
"293 481 OFFCURVE",
"293 564 CURVE SMOOTH",
"293 647 OFFCURVE",
"242 716 OFFCURVE",
"155 716 CURVE SMOOTH",
"69 716 OFFCURVE",
"16 647 OFFCURVE",
"16 564 CURVE SMOOTH",
"16 481 OFFCURVE",
"69 412 OFFCURVE",
"155 412 CURVE SMOOTH"
);
},
{
closed = 1;
nodes = (
"78 615 OFFCURVE",
"105 658 OFFCURVE",
"155 658 CURVE SMOOTH",
"206 658 OFFCURVE",
"231 615 OFFCURVE",
"231 564 CURVE SMOOTH",
"231 515 OFFCURVE",
"205 471 OFFCURVE",
"155 471 CURVE SMOOTH",
"105 471 OFFCURVE",
"78 514 OFFCURVE",
"78 564 CURVE SMOOTH"
);
},
{
closed = 1;
nodes = (
"607 0 OFFCURVE",
"659 69 OFFCURVE",
"659 152 CURVE SMOOTH",
"659 235 OFFCURVE",
"608 304 OFFCURVE",
"521 304 CURVE SMOOTH",
"435 304 OFFCURVE",
"382 235 OFFCURVE",
"382 152 CURVE SMOOTH",
"382 69 OFFCURVE",
"435 0 OFFCURVE",
"521 0 CURVE SMOOTH"
);
},
{
closed = 1;
nodes = (
"444 203 OFFCURVE",
"471 246 OFFCURVE",
"521 246 CURVE SMOOTH",
"572 246 OFFCURVE",
"597 203 OFFCURVE",
"597 152 CURVE SMOOTH",
"597 103 OFFCURVE",
"571 59 OFFCURVE",
"521 59 CURVE SMOOTH",
"471 59 OFFCURVE",
"444 102 OFFCURVE",
"444 152 CURVE SMOOTH"
);
}
);
width = 673;
}
);
note = percent;
unicode = 0025;
},
{
glyphname = aEgrave;
layers = (
{
layerId = "5B3AE2B2-6F0E-4414-97DF-6676E601E692";
paths = (
{
closed = 1;
nodes = (
"242 828 LINE",
"275 795 LINE",
"366 795 LINE",
"332 828 LINE SMOOTH",
"298 861 OFFCURVE",
"258 894 OFFCURVE",
"258 894 CURVE SMOOTH",
"178 894 LINE"
);
},
{
closed = 1;
nodes = (
"536 1 LINE",
"536 72 LINE",
"260 72 LINE SMOOTH",
"227 72 OFFCURVE",
"160 70 OFFCURVE",
"160 70 CURVE",
"160 326 LINE",
"160 326 OFFCURVE",
"227 325 OFFCURVE",
"260 325 CURVE SMOOTH",
"516 325 LINE",
"516 396 LINE",
"260 396 LINE SMOOTH",
"227 396 OFFCURVE",
"160 395 OFFCURVE",
"160 395 CURVE",
"160 645 LINE",
"160 645 OFFCURVE",
"227 644 OFFCURVE",
"260 644 CURVE SMOOTH",
"526 644 LINE",
"526 715 LINE",
"75 715 LINE",
"75 1 LINE"
);
}
